<?xml version="1.0" encoding="utf-8"?>
<!-- Generator: Adobe Illustrator 25.2.1, SVG Export Plug-In . SVG Version: 6.00 Build 0)  -->
<svg version="1.1" id="Camada_1" xmlns="http://www.w3.org/2000/svg" xmlns:xlink="http://www.w3.org/1999/xlink" x="0px" y="0px"
	 viewBox="0 0 4019.2 4019.3" style="enable-background:new 0 0 4019.2 4019.3;" xml:space="preserve">
<style type="text/css">
	.st0{fill:url(#SVGID_1_);}
	.st1{fill:url(#SVGID_2_);}
	.st2{fill:url(#SVGID_3_);}
	.st3{fill:url(#SVGID_4_);}
	.st4{fill:url(#SVGID_5_);}
	.st5{fill:url(#SVGID_6_);}
	.st6{fill:url(#SVGID_7_);}
	.st7{fill:url(#SVGID_8_);}
	.st8{fill:url(#SVGID_9_);}
	.st9{fill:url(#SVGID_10_);}
	.st10{fill:url(#SVGID_11_);}
	.st11{fill:url(#SVGID_12_);}
	.st12{fill:#B1A8A5;}
	.st13{fill:#AFA8A6;}
	.st14{fill:#FEFBFA;}
	.st15{fill:#FFFCFB;}
	.st16{fill:#FFFCF9;}
	.st17{fill:#FEFCFA;}
	.st18{fill:#FFFCFA;}
	.st19{fill:#FFFDFC;}
	.st20{fill:#5F94C4;}
	.st21{fill:#5794B2;}
	.st22{fill:url(#SVGID_13_);}
	.st23{fill:url(#SVGID_14_);}
	.st24{fill:url(#SVGID_15_);}
</style>
<linearGradient id="SVGID_1_" gradientUnits="userSpaceOnUse" x1="2011.2061" y1="67.009" x2="2008.2864" y2="3956.7869" gradientTransform="matrix(1 0 0 -1 0 4020)">
	<stop  offset="0" style="stop-color:#2D097F"/>
	<stop  offset="9.291578e-02" style="stop-color:#2F298D"/>
	<stop  offset="0.2359" style="stop-color:#31539F"/>
	<stop  offset="0.3819" style="stop-color:#3375AE"/>
	<stop  offset="0.5291" style="stop-color:#3590B9"/>
	<stop  offset="0.6782" style="stop-color:#36A4C1"/>
	<stop  offset="0.8302" style="stop-color:#37AFC6"/>
	<stop  offset="0.9897" style="stop-color:#37B3C8"/>
</linearGradient>
<path class="st0" d="M2019.4,0c42.8,2,96.9,1.5,150.7,6.7c19.9,1.9,39.9,2.5,59.8,4.6c23.2,2.4,46.3,5.3,69.3,8.8
	c30.9,4.8,61.8,9.6,92.4,15.8c67.3,13.5,133.8,30.4,199.6,49.8c79.4,23.4,156.6,52.8,232.3,85.9c59.2,26,116.6,55.8,173.2,87.2
	c61.3,34,120,72,177.3,112.2c63.3,44.5,123.3,93.2,181,144.8c73.2,65.5,140.7,136.4,203.7,211.6c45.4,54.2,86.9,111.4,125.9,170.4
	c53.4,80.7,101.3,164.6,142.4,252.3c48.8,103.9,90,210.7,119.4,321.9c12.4,47,24.7,94,34.2,141.7c12.4,62.1,21,124.7,28.7,187.6
	c13.1,107,10.3,214.3,7.8,321.5c-0.6,24.6-3.9,49.1-6.6,73.6c-4.6,41-8,82.2-14.8,123c-1.4,8.5-2.6,17.1-4.2,25.6
	c-11.5,62.8-23.5,125.6-40.4,187.3c-37.1,136.1-87.1,267.3-151.9,392.7c-51.2,99.1-110.8,193-177,282.8
	c-70.6,95.9-149.9,184-236.7,265.2c-90.2,84.4-187.3,160.4-292,226.2c-77.9,48.9-157.3,95.4-241.1,133.8
	c-101.9,46.8-206.5,86.3-314.9,115.4c-53.5,14.3-107.3,26.9-161.6,37.1c-40.5,7.6-81.4,13.4-122.4,18.2
	c-35.7,4.2-71.6,6.6-107.3,10.7c-2,0.2-4,0.4-6,0.5c-57.3,1.4-114.5,6.1-171.9,3.5c-47.3-2.1-94.6-3.7-141.7-7.7
	c-43.7-3.7-87.4-9.2-130.8-16c-80.3-12.6-159.4-31-237.7-53.1c-110.1-31-216.1-72.1-318.7-122.2
	c-103.2-50.4-201.4-109.3-295.2-175.6c-118.7-83.9-225.3-180.9-323.6-287.7C450.4,3279.9,389,3197,331.5,3111
	c-58.2-87.1-109.1-178.7-152.3-274.1c-43.4-95.2-79.1-193.8-106.8-294.7c-19.6-72-35.4-145.1-47.4-218.7
	c-6.4-38.7-10.7-77.8-14.3-116.9C5.5,2151.5,2.5,2096.3,1,2041c-1-37.3-1.3-74.6,1.1-111.9c2.2-32.6,3-65.2,6.1-97.7
	c3.8-40.4,8-80.8,14.3-120.9c7.1-44.7,14.4-89.3,24.1-133.6c15.3-68.9,34-137.1,56.2-204.1c39.3-119,90.1-234,151.7-343.2
	c62.7-111.2,134-216.4,216.3-314.1c99.7-118.2,211-224.1,335.3-316.2c93-69.1,191.9-130.3,295.4-182.8
	c70.8-35.8,142.9-68.7,217.5-95.8c75.8-27.4,153.2-50.3,231.8-68.5c36.3-8.4,72.6-16.8,109.5-22.3c32.9-4.9,65.9-9.3,98.7-14.6
	c34.3-5.4,68.8-8,103.3-10.5C1911,1.5,1959.6,0.1,2019.4,0z"/>
<radialGradient id="SVGID_2_" cx="2009.5999" cy="4950.2998" r="1887.2" gradientTransform="matrix(1 0 0 -1 0 6960)" gradientUnits="userSpaceOnUse">
	<stop  offset="0.2798" style="stop-color:#FFFFFF"/>
	<stop  offset="0.5023" style="stop-color:#FDFCFC"/>
	<stop  offset="0.6463" style="stop-color:#FBFAFC"/>
	<stop  offset="0.7253" style="stop-color:#F3F5FA"/>
	<stop  offset="0.7885" style="stop-color:#E5ECF8"/>
	<stop  offset="0.8434" style="stop-color:#D1E0F5"/>
	<stop  offset="0.8928" style="stop-color:#B8CFF1"/>
	<stop  offset="0.9384" style="stop-color:#99BBEB"/>
	<stop  offset="0.9802" style="stop-color:#75A3E5"/>
	<stop  offset="1" style="stop-color:#6196E2"/>
</radialGradient>
<circle class="st1" cx="2009.6" cy="2009.7" r="1887.2"/>
<linearGradient id="SVGID_3_" gradientUnits="userSpaceOnUse" x1="2026.3973" y1="1065.9109" x2="2026.3973" y2="1651.1152" gradientTransform="matrix(1 0 0 -1 0 4020)">
	<stop  offset="8.219692e-02" style="stop-color:#2D097F"/>
	<stop  offset="0.2097" style="stop-color:#2F288C"/>
	<stop  offset="0.4781" style="stop-color:#3263A6"/>
	<stop  offset="0.707" style="stop-color:#358EB8"/>
	<stop  offset="0.8848" style="stop-color:#36A9C4"/>
	<stop  offset="0.9897" style="stop-color:#37B3C8"/>
</linearGradient>
<path class="st2" d="M1834.5,2208.5c-2.5-15.8,4.3-26.4,2-37.8c9.2-14.9,9.5-32.7,15.3-48.7c1.3-3.7,3.4-8,2.6-11.4
	c-3.3-14,2.2-27.7,0.2-41.5c-1.4-9.4,3.3-15.5,11.2-19.1c14.5-6.7,29.1-13.5,45.4-14c11.1-0.3,22.2-4.6,33.3-0.2
	c0.7,0.1,1.4,0.1,2-0.1c29.1-5.6,58.1-0.5,87.2,0.3c8,0.2,15.9,0.7,23.9-0.5c3.3-0.5,7-1.4,9.9-0.5c13.7,4.4,27.5,3.4,41.4,1.9
	c4.5-0.5,10.1-0.8,13.7,1.4c8.2,5,16.3,4.3,25,2.9c4.6-0.9,9.3-0.9,13.8,0c9.7,2.3,20,1.4,29.2-2.7c1.2-0.5,3.1-1.4,3.8-0.9
	c9.8,7.7,21.9-0.1,32,4.6c3.7,1.6,7.7,2.2,11.7,1.6c10-1,19.7-2,29.4,2.4c2.7,1.2,6.5,0,9.8-0.3c12.3-1.2,16.6,0.5,26.7,10.4
	c1.4,1.3,3.2,3,4.9,3c9.4,0.4,10.1,6.7,10.1,13.8c0,10-0.3,19.9-3,29.7c-3.1,11.6-5.4,23.3-7.8,35.1c-1.2,5.2-1.9,10.5-2,15.8
	c0.2,10.1-1.6,19.4-4.4,29.2c-4.1,14.7-6.5,29.9-7.2,45.2c-0.6,12.9-3.7,25-6.7,37.2c-6.2,24.9-6.4,50-3.9,75.3
	c0.2,2.5,2.7,5.2-0.1,7.2c-10.9,7.9-5.2,21-9.9,30.8c0.2,27.9-4.4,55.4-6.7,83.1c-0.1,2-0.5,4-1.1,5.9c-8.6,26.4-6.4,53.8-8.2,80.9
	c-0.7,10.6-2.7,21-4.1,31.6c-2.8,20.4-5.7,40.8-8.5,61.3c-0.4,2.6-1.3,5.5-0.5,7.8c3.2,10.1,0.2,19.7-1,29.6
	c-1.1,8.9-4.9,17.3-1.5,27.2c2,6-3.4,14-3.2,21.1c0.4,13.6-2.5,26.4-6.1,39.2c-3.6,13.3-4.1,27-4.7,40.7c-0.1,2.6,0.2,5.5-0.9,7.7
	c-9.1,19.3-9.6,40.1-8.8,60.6c0.8,21.1-6.4,40.6-9.3,60.9c-0.7,5-5.7,7.1-9,10.3c-3.9,3.8-7.9,3.2-12.7,1.5
	c-6.8-2.4-14.4-0.9-21.4-4c-5.3-2.4-10.3,1.1-15.2,3.2c-12.8,5.4-25.6,10.8-39,14.8c-6.2,1.9-12.2-3.5-17.2,1.1s-8.9,5.2-12.7-1.1
	c-2.7-4.6-6.3-5.5-11.8-4.8c-8.4,1-17-0.9-25.1,3.2c-2.1,1.1-5.2,0.7-7.7,0.2c-12.8-2.3-25.1-0.1-37.4,3.4
	c-11,3.2-21.9-0.5-32.7-2.7c-1.2-0.2-2.1-1.6-3.3-2.2c-7.8-3.6-15.7-9.9-23.4-9.8c-10.9,0.2-22.4,1.2-33.3,4.8
	c-21.1,7.1-42.8,7.6-64.4,3.4c-8.1-1.6-15.6-3.4-22.7,2.2c-19,2.7-37.5,8.7-57,7.6c-3.5-0.2-6.4-1.4-8.4-4.5
	c-1.8-2.8-3.3-6.6-6.8-6.9c-10.6-1.1-12.3-8.8-13.3-17c-1.5-11.9-1.8-23.8,1.2-35.7c2.9-11.6,4.6-23.5,3.8-35.6
	c-0.5-6.6,0.1-13.3,1.6-19.8c1.1-4.5,2.3-9.3,1.7-13.8c-2.1-17,4-32.7,6.4-49c2.2-15,7.4-29.5,6.1-45.1c-0.9-10,3.4-19.5,4.1-29.5
	c1.5-23.2,2.9-46.7,8-69.3c4.3-19,5.1-38.1,8.6-56.9c2.9-15.7,3.1-31.6,6-47.1c4.3-22.9,5.5-46.1,8-69.1c1-9.2,4.5-18.1,3.8-27.6
	c-0.2-3,1.8-6.2,2.9-9.3c1.2-3.1,2.9-6,3.8-9.1c2.1-7.2-0.4-14.4-0.3-21.5c0.1-5.8,7-10.9,5.6-18.2c-3-15.3,0.9-30.1,3.6-45
	c2.5-13.7,5-27.3,7.1-41.1c2-13.1,3.5-26.3,5.3-39.5c1.2-8.9,1.5-17.5,7.5-25.9C1834.7,2223.9,1836,2213.5,1834.5,2208.5z"/>
<linearGradient id="SVGID_4_" gradientUnits="userSpaceOnUse" x1="926.2639" y1="1044.2966" x2="926.2639" y2="2041.0005" gradientTransform="matrix(1 0 0 -1 0 4020)">
	<stop  offset="8.219692e-02" style="stop-color:#2D097F"/>
	<stop  offset="0.1854" style="stop-color:#2F3190"/>
	<stop  offset="0.3061" style="stop-color:#3259A1"/>
	<stop  offset="0.431" style="stop-color:#3479AF"/>
	<stop  offset="0.5589" style="stop-color:#3593BA"/>
	<stop  offset="0.6914" style="stop-color:#36A5C2"/>
	<stop  offset="0.831" style="stop-color:#37B0C7"/>
	<stop  offset="0.9897" style="stop-color:#37B3C8"/>
</linearGradient>
<path class="st3" d="M918.8,2967.4c-9.1-4-18.2-8.4-28.3-2.9c-3.3,1.8-6.3,0.6-9.6,0.1c-5.9-0.9-12.3-1.8-17.4,2
	c-4.6,3.4-7.8,3.1-12.1-0.5c-14.1-11.8-30-7.8-45.3-3.5c-4.2,1.2-8,4.8-12.8,4.4c-16.5-1.4-33.2,2.2-49.7-1.4
	c-3.4-0.7-6.5-1-9.7,0.4c-4.9,2.2-10.3,3-15.7,2.4c-7.6-0.8-14.8,1-21.5,3.6c-12.3,4.9-24.9,3.3-37.4,3.7c-3.7,0.1-6.2-2-7.1-5.7
	c-1.1-4.8-4.9-5.3-9-6.2c-7-1.7-7.7-2.9-7.2-9.2c2.5-28.4,4.5-56.8,7.9-85c2.1-17.2,3.4-34.3,1.5-51.6c-0.3-2.6-0.5-5.5,0.5-7.8
	c8.3-19.1,4.3-39.2,4.5-58.9c0.1-4.6-0.9-9,1.1-13.6c5.2-11.9,4.7-24.6,4.5-37.2c-0.2-10-0.5-19.8,1.4-29.8
	c1.3-6.5,1.7-13.2,1.3-19.9c-1.3-20.1,1.8-39.8,5.7-59.4c1.4-6.5,2.1-13.1,2-19.8c-0.7-25.5,2.8-50.4,9.1-75
	c1.2-4.5,2.5-9.2,2.4-13.7c-0.6-20.7,4-40.9,6.1-61.4c0.3-3.3,0.5-6.9,2-9.7c4.7-8.6,4.5-17.9,5-27.2s2.9-18.3,3.1-27.5
	c0.2-9.5,2.7-18.2,5-27.3c2.4-9.5,2.5-19.8,3-29.7c0.4-7.2,1.5-14.4,3.3-21.4c5.6-22.6,9.4-45.5,9-68.9c0-2-0.7-4.3,0-5.9
	c10.2-23.6,9-49.5,14.8-74c2.5-10.8,5.4-21.2,2.3-33.1c-2-7.7,1.4-17,3.4-25.4c2.2-8.3,2.6-17,1.2-25.5c-1.4-8.6-0.7-17.4,2.2-25.7
	c2.6-7.8,7.3-12.4,16-12.1c8.7,0.4,17.3-0.9,25.5-3.8c2.5-0.9,5.2-1.8,7.8-1.5c15.7,1.5,29.8-4.2,44-9.3c5.5-2,10.4-1,15.6,0.4
	s10.1,2.7,15-1.6c1.7-1.4,5.1-1.5,7.6-1.2c12.1,1.1,23.7-1.4,35.2-4.5c7.8-2.1,15-3.1,23.2,0c7.3,2.8,15.7,1.9,23.7,0.9
	c9.2-1.4,18.6-1.4,27.8,0c5.8,0.9,12.2,1.1,17.8-0.5c15.1-4.3,29.9-3.4,45.2-1.2c11.2,1.6,22.5,1.6,33.8,2.2c4,0.2,8.2-0.4,11.8,0.8
	c9.1,3,17.2,0.4,24.8-3.8c3-1.6,5.4-3,9-2.7c9.8,0.8,19.8,2.6,29.2-2.8c1.4-0.8,4.2-0.6,5.8,0.3c7,4,15.3,5.1,23.1,2.8
	c2.2-0.6,5.5,0.6,7.5,2.1c9.1,6.7,18,13.7,26.8,20.8c2.3,1.6,2.8,4.7,1.3,7c0,0.1-0.1,0.1-0.1,0.2c-6.2,8.5-8,17.9-7.2,28.3
	c0.3,3.6-2.3,7.5-3.7,11.2c-5.7,14.5-8.5,29.3-7.4,44.9c0.3,4-0.3,8.1,2,11.6c2.9,4.5,2.9,8.7-0.9,12.6c-3.5,3.6-5.3,7.9-4.4,12.7
	c1.8,9.3-6.1,17.7-2.2,27.3c0.5,1.3-1,3.9-2.1,5.4c-6.2,8.6-7.2,18.4-7.7,28.5c-0.4,7.3-1.3,14.6-2.8,21.8
	c-1.7,7.8,0.2,14.2,4.6,20.4c-3.1,5.7-8.7,9.5-9.3,17c-2.3,28.5-9.4,56.2-14.8,84.2c-2.1,11-4.2,22.2-4.2,33.4
	c0,8.8-1.9,17.1-2.7,25.7c-1.7,17.1-2.8,34.4-8.3,51c-0.8,2.5-0.5,5.3-0.9,7.9c-0.9,5.5,6.7,9.2,3.4,14.7c-2.4,4.1-4.7,7.8-4.9,12.7
	c-0.2,3.9-2.3,7.8-2.3,11.7c0.1,14.7-3.2,28.9-5.8,43.3c-0.4,2-1.7,4.6-0.9,5.8c6,9.3-1,17.2-2.2,25.7c-2.8,19.7-5.6,39.4-7.8,59.1
	c-0.7,6.4-1.3,13,2,19.5c3.8,7.5-1.6,15.4-0.5,23.6c2.3,17.8-4,35.6-1.6,53.5c-7.7,18.5-3.7,38.1-5.4,57.2
	c-0.5,5.4-0.3,10.8-3.3,15.4c-3.2,5.1-4.8,11.1-4.3,17.1c0.4,14-1.8,27.9-6.6,41c-4.6,13-4.5,26-4.2,39s-5.3,24.5-6.4,37.1
	c-0.6,6.9-16.9,14.6-24.6,12.3c-7-2-14.3-3-21.6-3c-12.1-0.2-23.8-0.1-34,8.1c-5.3,4.3-12.7,5-19.2,4c-21-3.2-41,1.1-60.8,7.5
	c-4.8,1.6-11.1-0.7-13.9,5.6L918.8,2967.4z"/>
<linearGradient id="SVGID_5_" gradientUnits="userSpaceOnUse" x1="2926.2917" y1="2179.0659" x2="2926.2917" y2="2759.3396" gradientTransform="matrix(1 0 0 -1 0 4020)">
	<stop  offset="8.219692e-02" style="stop-color:#2D097F"/>
	<stop  offset="0.2994" style="stop-color:#2F2D8F"/>
	<stop  offset="0.78" style="stop-color:#3589B6"/>
	<stop  offset="0.9897" style="stop-color:#37B3C8"/>
</linearGradient>
<path class="st4" d="M2918.9,1823.4c-9.4-3.3-18.7-7.5-28.7-2c-3.2,1.8-6.5,0-9.7-0.1c-6-0.1-12.2-0.3-17.4,3.2
	c-4.1,2.7-7.3,2-10.7-1c-14-12.3-29.8-7.9-45.5-5c-7,6.8-16.2,6.4-24.5,5.4c-13.9-1.7-28,3.2-41.6-2.4c-0.6-0.3-1.4-0.3-2,0
	c-12.9,6.9-27.7,2.7-40.8,7.3c-9.8,3.4-19.6,3-29.5,3.7c-6.7,0.5-13.4,0.6-16.2-7.9c-1.1-3.3-4.9-4.2-8.4-4.4
	c-5.9-0.3-8.4-3.6-7.6-9.2c4-28.2,4.3-56.7,8-84.9c2.2-17.2,3.1-34.4,1.5-51.7c-0.2-2.5-0.5-5.5,0.5-7.7c5.9-12.5,4.4-25.7,5-38.9
	c0.6-13.6-3.9-27.9,4-40.8c-0.7-10.6,2.9-20.8,1.4-31.7c-1.2-8.8-1.7-18.4,1.2-27.5c0.9-3.2,1.3-6.5,1-9.9
	c-1.3-25.5,2.8-50.4,7-75.3c1-5.9,0.6-12,0.7-18c0.3-21.9,3-43.8,8.2-65.1c3.2-13.6,5.8-27.4,4.5-41.5c-0.3-2.7-0.3-5.4,0.1-8
	c2.6-13,5.1-26,7-39.1c1.2-8.2,5.1-16.3,4.9-25c-0.1-6,2-12,2-17.5c-0.1-22.1,8.7-42.9,8.9-64.8c0.2-11.2,1.8-22.4,4.7-33.3
	c3.7-14.8,5.4-30,7.4-45.1c1.4-9.8-3.3-20.3,2.8-29.2s4.5-19.3,6.1-29c2.9-17.7,4.9-35.5,9.6-52.8c0.7-2.5,1.6-5.5,0.9-7.8
	c-4.7-15.5,1.3-30.1,3.4-45c0.9-6.5,0.4-13.2,0.7-19.9c0.3-8,0-16,1.2-23.9c1.3-8.4,6.4-12.2,15.4-12.1c9.4,0.1,18.5-0.7,27.4-3.8
	c2.5-0.9,5.2-2.1,7.7-1.7c14.4,2.2,27.1-5,40.7-7.3c2.6-0.5,5.2-2.2,7.6-1.9c10.6,1.4,20.9-1.7,31.1-2.1c14-0.7,27.4-3.3,41-5.6
	c5.8-1.1,11.8-1,17.6,0.5c9.6,2.4,19.2,3.8,29.4,0.7c7.1-2.2,14.7-2.1,21.7,0.3c5.7,2,11.9,2.2,17.6,0.3c22.4-6.6,44.9-2.5,67-0.2
	c11.8,1.2,23.7,0.3,35.5,2.4c4.3,0.8,9.8,0.5,13.3-3.1c4.9-5.1,10.7-4.7,16.7-4.3c7.2,0.4,14.4,2.2,21.3-2.1
	c1.9-1.2,5.5-0.9,7.7,0.1c7.4,3.5,14.3,6.3,22.7,2c3.5-1.8,7.6,1.5,10.9,3.8c5.9,4.3,11.7,8.8,17.5,13.3c9.4,7.4,9.3,7.5,4.1,19.4
	c-1.3,3-3,6.3-2.8,9.4c0.7,10.4-3.1,19.6-6.4,29c-4.2,12-6.7,24.3-5.8,37.2c0.4,5.3-0.4,10.7,2.9,15.4c1.6,2.3,2.3,5.2,0.6,7.5
	c-9.6,12.4-6.9,27.6-9.9,41.5c-0.7,3.2-0.5,6.9-2,9.6c-9.9,17.7-6,37.9-10.1,56.6c-0.5,2.1,1.1,5.3,2.7,7.1c3.6,4.2,2,7.2-1.4,10
	c-3.8,3.3-4.7,7.6-5.4,12.4c-4,25.6-7.9,51.2-12.9,76.6c-3.2,16.2-4.6,32.6-6.6,49c-2.5,20.3-2.7,41.1-9,61
	c-1.4,4.4-3.7,10.1-2.1,13.5c4.9,10.3,0,19.1-2,28.5c-1.6,7.8-2.6,15.7-3.1,23.7c-0.5,6-1.4,11.9-2.8,17.7c-1.9,8.9-5.3,18.1-1,27.4
	c1.6,3.5-0.5,6.1-1.4,9.3c-2.6,8.2-5.1,16.6-6.3,25.1c-2,13.7-2.9,27.6-4.2,41.4c-0.7,7.2-2,14.4,1.6,21.5s-1.3,14.2-0.6,21.6
	c1,11.1,1.1,22.4-1.5,33.5c-1,4.4-0.4,9.3-0.4,13.9c0,2.6,1.3,5.7,0.4,7.9c-7.4,18-3.9,36.8-4.8,55.3c-0.3,6-0.2,12.1-3.8,17.3
	c-4.8,7.1-5.3,15.2-4.7,23.1c0.8,11.5-0.8,23.2-5.1,33c-5.6,12.9-5.8,25.9-5.2,38.5c0.7,13.9-5.2,26-6.7,39.1
	c-0.8,6.7-15.1,14.6-22.4,12.9c-7.8-1.8-15.5-3.3-23.6-3.3c-12,0-23.4,0.3-34.1,7.8c-8.4,5.9-19.2,5.5-29.1,3.7
	c-10.9-2-21,0.1-31.4,2.7c-9,2.3-18.2,4-27.2,6.3c-2.4,0.6-4.4,2.7-6.5,4.1L2918.9,1823.4z"/>
<linearGradient id="SVGID_6_" gradientUnits="userSpaceOnUse" x1="2372.6377" y1="2165.6985" x2="2372.6377" y2="2787.0947" gradientTransform="matrix(1 0 0 -1 0 4020)">
	<stop  offset="8.219692e-02" style="stop-color:#2D097F"/>
	<stop  offset="0.2994" style="stop-color:#2F2D8F"/>
	<stop  offset="0.78" style="stop-color:#3589B6"/>
	<stop  offset="0.9897" style="stop-color:#37B3C8"/>
</linearGradient>
<path class="st5" d="M2515.9,1835.3c-8.6-0.6-17.2-1.3-25.9-1.9c-2.6-0.2-5.5-1.4-7.9-0.8c-21.4,5.6-42.3-3.1-63.5-2.1
	c-5.1,0.2-10.9-3.8-15.5-2.6c-13.9,3.8-27.4-0.5-41.1-0.5c-3.9,0-5.9,2.2-8.3,4.6c-1.6,1.6-3.8,1.4-4.3-1.1c-0.7-3.6-1.6-6.9-6-6.1
	c-17.6,3.3-34-2.6-50.7-6.5c-8.5-2-16-2.6-24.8,1.5c-9.1,4.2-19.4,9.3-30.5,5.2c-12.8,5.4-26.2,3-39.4,3.7c-2.7,0.1-5.6-0.3-7.9,0.7
	c-15.9,7.1-32.6,5.6-49.2,5.3c-9.3-0.1-18.6,0.1-28,0.3c-5.6,0.2-10.6-1-14.3-5.5c-3.5-4.2-8.6-6.2-12.9-9.3
	c-8-5.8-12.2-13.9-11.8-24c0-1.3,0.1-2.7,0.3-4c4.8-32.2,8.1-64.6,15.9-96.3c1-3.9,2.3-7.6,3.6-11.4c0.7-1.9,1.7-3.6,2.5-5.4
	c4.2-9.2-0.1-18-0.9-27c-0.7-8.8,9.7-16.3,4.7-26.5c-0.9-1.8-1.2-3.8-0.9-5.8c5-21.8,4-44.6,10.2-66.2c0.6-1.9,1.6-4,1.3-5.8
	c-2-12.2,2.2-23.6,4.5-35.1c1.6-7.7,2.4-15.6,2.5-23.5c0-9.9,0.7-20.1,6.2-29c4.1-6.6,4.2-14.4,4.1-21.1
	c-0.1-10.4,1.8-19.6,6.8-28.4c2.8-5,3.7-9.9-1.6-14.3c-2.4-2-2.2-4.5-0.4-7c6.8-9.7,5.2-22.7,12.6-32.3c1.7-2.2,2-6.7,1.1-9.6
	c-2.7-9.7,0.8-19.8-2.5-29.4c-2.2-6.3,1.8-11.6,3.7-17.2c3-8.8,7.1-17.1,3.1-26.9c-1.9-4.6,0.9-9.1,3.5-13
	c3.5-5.3,5.1-10.8,1.7-16.8c-2.3-4-0.5-7.7,1.6-11.2c3.2-5.3,2.8-11.5,4.3-17.1c1.7-6.4-5.4-12-0.9-16.9c4.4-4.8,1.6-10.2,3.5-15
	c2.3-5.7,1.9-11.8,1.4-17.8c-0.2-1.9-1-4.6,0-5.6c4.3-4.8,6-9.8,4.3-16.3c-1.3-4.9,1.7-9.7,1-15.4c-0.8-6.5,3.3-13.3-1.1-20.4
	c-1.6-2.6,0.3-6.9,3.1-8.9c6-4.2,5.9-10.2,5.4-16.1c-1.1-12.7,0.3-42.5,3.3-52.6c2.1-7.1,4-13.7,2-21.4c-1.7-6.5,1.2-13.2,3.3-19.4
	c4.1-12.1,5.2-24.3,4.9-37.1c-0.3-13.1,2.1-26.5,4.4-39.5c1.7-9.1,5.3-17.8,5.6-27.3c0.2-5,3-8.7,6.9-11.6c2.8-2,6.1-3.6,8.6,0.1
	c2.6,3.8,5.8,5,10.1,4.8c8.6-0.3,17.4,1.6,25.8-1.2c5.6-1.8,10.2-1.8,14,3.7c1.4,2,4.2,2.4,6.1,1c0.3-0.2,0.6-0.5,0.9-0.8
	c6.3-8.9,14-6.2,20.4-1.6c6.4,4.6,11.7,5.4,17.8,0.3c1.4-1.2,3.7-3,4.9-2.5c8.1,3.1,15.7,0.9,23.4-1.5c3.8-1.2,6.2,1.1,8.8,3.3
	c2.1,1.8,5.2,3.7,7.2,2c8-6.7,14.3,0.1,21.2,1.9c13.9,3.6,27.5,5.1,40.2-3.9c3.9-2.8,8-2.9,13.1-1.9c17.7,3.5,35.8,0.8,53.8,1.4
	c2.7,0,5.3-0.7,7.6-2c12.5-7.1,24.4-3.9,36.1,1.8c5.4,2.7,10.1,3.9,16.8,2.2c8.7-2.2,18.5-1.6,27.6-0.3c5.9,0.8,11.5,2.9,17.5,0.6
	c1.1-0.5,3.2-0.7,3.8,0c6.2,6.3,13.2,4.2,20.4,2.6c7-1.6,14.6,1.2,21.2-3.7c2.1-1.5,5.3-0.5,7.2,1.7c3.8,4.5,8.5,8.2,13.8,10.8
	c8,4.1,10.4,13.3,13.4,21.5c2.3,6.4-0.8,11.6-3.7,16.9c-2.5,4.7-5.8,9.5-5,14.9c1.6,10.5-1.2,19.5-6.2,28.5c-3.6,6.4-4.7,14-4,21.3
	c0.5,5.9,0.7,11.7-0.6,17.6c-1,4.4-1.3,9,0.4,13.7s-5.4,6.7-5,12s-1.2,10.5,4.1,14.4c4.1,3.1,2.9,7-0.2,10.3c-6,6.3-7,13-5.6,21.9
	c1.7,10.8,3.8,22.4-1.8,33.1c7.4,8.3-0.9,15.4-1.7,23.1c-0.1,0.6-0.6,1.2-1,1.7c-2.1,3.7-2.6,7.2-0.2,11.2
	c3.4,5.6,3.4,11.2-0.5,16.8c-4.7,6.8-5.2,14.9-6.7,22.8c-0.8,4.2-0.8,8.1,2.2,11.2c4.8,5,3.7,9.4-0.4,14c-2.7,3-3.7,6.8-5,10.7
	c-2.8,8.6-0.4,17-0.8,25.5s-5.3,16.5,0.4,25.1c2.6,4,0.2,9.1-2.5,13.1c-3.5,5.2-4.8,9.2-0.9,16c4.3,7.4,2.4,16.7-3.6,23.9
	c-1.7,2-4.1,3.4-5.8,5.5c-2.5,3-2.5,6.2,1.5,8.1c5.8,2.7,6.2,6.6,2.8,11.2c-4,5.5-8.3,10.4-4.6,18c2,4-0.7,8-2.4,11.3
	c-4.3,8.3-6.8,17.4-7.2,26.7c-0.6,15.4-7,29.7-6.8,45.1c-9.3,16.3-4.5,35.1-9.2,52.3c-2.5,9-4.8,18-6.9,27c-1.2,5.2-2.1,11,3.4,14.4
	c4.7,2.9,5.7,5.6,0.6,8.5c-3.9,2.2-5.2,5.4-6.1,9.5c-2.1,9-4.9,17.8-7.3,26.6c-0.4,1.3-1.1,3-0.5,3.9c6.6,9.9-0.5,16.5-4.5,24.7
	c-4.4,8.8-3.4,19.1-3.3,28.8c0,3.3,1.1,6.8,0.3,9.8c-1.5,5.1-3.6,10-6.2,14.7c-3,5.5,3.4,10,0.9,15.4c-4.7,10-1.7,21.1-4.3,31.4
	c-1.1,4.3-0.2,7.8,3.1,10.8c3.8,3.4,3.7,6.8-0.7,9.6c-4.8,3-6,6.9-3.4,11.9c1.1,2.1,0.9,4.1-0.6,5.3c-7.5,6.4-3.6,16.4-7.7,24.1
	c-2.3,4.2-1,10.4-1.2,15.7c-0.1,2,0.1,4,0.1,6c0.1,23.9-0.4,24.4-24.5,24.5L2515.9,1835.3L2515.9,1835.3z"/>
<linearGradient id="SVGID_7_" gradientUnits="userSpaceOnUse" x1="1465.6262" y1="961.5618" x2="1465.6262" y2="1598.4211" gradientTransform="matrix(1 0 0 -1 0 4020)">
	<stop  offset="8.219692e-02" style="stop-color:#2D097F"/>
	<stop  offset="0.3019" style="stop-color:#2F2D8F"/>
	<stop  offset="0.7879" style="stop-color:#3589B6"/>
	<stop  offset="1" style="stop-color:#37B3C8"/>
</linearGradient>
<path class="st6" d="M1597.8,2980.2c-8.7,0-17.3,0.1-26,0c-4.7-0.1-9.6,0.6-13.9-0.9c-12.9-4.3-26-4.5-39.4-3.8
	c-4.5,0.2-9.2-1-13.8-1.7c-2-0.3-3.8-1.9-5.7-1.8c-14.9,1-28.7-2.5-42.3-8.3c-3.3-1.4-7.9-0.5-11.8,0c-6.6,0.9-13.3,1.6-19.6,3.7
	c-13.5,4.4-27.2,4.9-41.2,4.1c-3.9-0.2-8.3-0.5-9.9,4.5c-0.4,1.6-1.9,2.6-3.5,2.2c-0.4-0.1-0.8-0.3-1.2-0.6
	c-9.6-7.5-19.9-1.9-29.8-1.7c-5.1,0.1-10.1,2.7-15.3-0.6c-2-1.3-5.3-1.5-7.7-0.8c-14.9,4.1-30.5,0.9-45.5,4.5
	c-3.9,0.8-7.9,1.1-11.9,1c-28,0.1-55.9,0.2-83.9,0.2c-5.5,0-10.7,0-12.2-7.2c-1.1-5.1-5.7-4.7-9.6-5.2c-4.9-0.6-6.9-3.8-6.3-8.3
	c0.5-3.9,1-8.1,2.7-11.6c6.5-13.5,6.2-28.3,7.5-42.6c0.6-5.8-3.1-11.7,0.9-17.9c1.4-2.1-1.5-4.7-3.5-6.6c-3.8-3.6-3.8-6.9,1.2-9.1
	c3.9-1.7,7.1-4,7.2-8.6c0.2-11.3,7.6-21.5,4.9-33.3c-0.2-2,0.3-3.9,1.6-5.5c4.1-4.6,4-9.5,2.6-15c-1.9-7.1-1.1-14.6,2.2-21.1
	c3.3-6.9,3.8-15.1,5.1-22.8c0.9-4.9-1.8-8.9-4.3-12.9c-1.9-3-1.8-6.7,1.2-9c5-3.6,6.2-8.4,5.5-14c-0.6-6-0.4-12,0.6-17.9
	c0.5-3.2-0.9-6.6-0.6-9.9c0.4-4.7-5.7-5.8-5.3-10.1c0.5-5.1,6.5-3.6,8.8-7c3-4.5,4.3-9.8,3.8-15.2c-0.6-12-0.4-24,2-35.8
	c4.2-20.8,4.1-41.9,6.2-62.9c0.6-5.9,1.9-11.8,2.4-17.7c0.6-7.9,2.1-16.1,0.7-23.7c-1.3-6.8-1.1-13.4,1.1-19.2
	c2.7-7,2.6-12.2-1.7-18.3c-3-4.3-1.7-6.4,3.7-9.1c1.8-0.9,3.9-1,5.5-2c2.5-1.5,3.6-3.8,2-6.7c-0.7-1.2-1.4-2.2-2.3-3.2
	c-2.6-3-7.2-6-5.2-10c3-6.2-1.1-15.5,8.2-19c3.6-1.4,4.9-4.6,3.4-8.1c-4-9.6-2.6-18.2,4.2-26c0.5-0.5,0.8-1.1,0.9-1.8
	c0.5-14.6,6-28.3,8.3-42.6c0.6-2.6,0-5.4-1.4-7.6c-4.5-6.4-5.2-11.9,2.8-16.3c3.1-1.7,4.2-5,4.4-8.5c0.3-6,1.5-12.1,0.7-17.9
	c-1.3-9.5-1.9-18.4,5.8-25.8c2.8-2.7,2.4-6.2,0.8-9.2c-2.8-5.5,2.2-11.9-2.2-17.2c-0.4-0.5,0.5-3.3,1.1-3.3c8.4-1.2,6-7.1,5.2-12.1
	s1-9.2,3-13.4c1.7-3.6,3.4-7.2,5.1-10.8c3.9-8.2,5.7-16.2-0.4-24.2c-2.5-3.3-1.4-6.7,1.9-8.4c6-3,8-7.9,9.6-14
	c1.5-5.4-7.8-9.1-1.5-14.2c4.3-3.5,2.9-8.6,4.3-12.9c1.6-5,2.5-10.2,3.7-15.3c2.3-9.7,5.1-19.2,1-29.3c-2.1-5-1.9-10.7,0.4-15.6
	c4.2-8.4,4.1-16.8,0.5-25.1c-2.4-5.6-1.4-10.3,2.3-14.8c2.9-3.6,5.5-7.6,8.5-11.1c5.8-6.7,10.8-11.9,21.9-7
	c7.9,3.5,18.3,1.1,27.3,3.8c1.9,0.6,4.7-1.8,7.1-2.7c2.4-0.9,5.1-2.8,7.3-2.3c18.3,3.6,36.8-4,55,1.3c4.7,1.4,9.2-1.3,13.3-3.4
	c13.8-7.1,27.6-9.5,41.8-1.2c1.8,1,3.8,1.4,5.8,1.3c19.8-1.3,39.8,2.3,59.4-2.1c3.9-1.1,8-0.4,11.3,1.9c16.8,11,34.2,8.9,51.1,1.3
	c5-2.2,8.1-2.4,12.5,0.2c2.9,1.7,7.2,1.9,9.4-0.7c4.8-5.7,9.6-5.4,15.8-2.7c5.5,2.4,11.6,3.8,17.5,2.4c3.8-0.9,6.1,0,9,2
	c5.5,3.9,11.9,4,16.3-0.6c3.8-4.1,8.5-3.2,12.5-5.2c3.7-1.8,6.4-0.7,8.4,2.6c3.1,5.1,6.9,6.2,11.3,2c3.8-3.7,8.2-4.6,12.8-2.8
	c10.4,4,21.1,0.7,31.7,1.4c2.9,0.2,5-1.1,7.3-2.5c8.8-5.2,8.9-5.1,14.7,0.6c2.3,2.3,4.6,5.4,7.4,6.3c10.4,3.4,12.6,11.1,11.5,20.5
	c-2.7,23.1-4.9,46.2-12,68.5c-2.6,8.1-4.1,16.6-2.9,25.5c1.3,9.9,1.1,19.9-4.4,29.1c-1.3,2.3-1.8,5-1.6,7.7
	c1.6,14.9-3.6,28.8-5.1,43.3c-0.5,5.2-2.2,10.2-5,14.5c-3.3,5.4-7.3,12.9-0.2,19.6c2,1.9,2.5,4.9,1.3,7.4c-1.9,3.5-4.1,6.8-6.7,9.8
	c-3.2,3.8,2.4,6.8,0.4,10.8c-4.1,8.3-7.5,24.3-6.4,30.2c0.5,2.8-0.1,5.1-0.5,7.7c-1.6,11.6-6.7,22.9-3.2,35.1c0.3,1-0.5,2.5-1.2,3.4
	c-6.7,9.2-8.1,19.2-4.9,29.9c1,3.4,1.1,6.7-1.4,9.3c-5.1,5.5-6.1,11.6-3.5,18.5c2.3,6.2,1,11.7-2.8,16.9c-2.9,3.9-4.1,8.5-2.7,13.2
	c5.2,17.3-2.6,32.6-8.2,47.8c-3,8.3-7.6,15.6-1.6,24.1c-4.2,7.5,2.2,14.7,0.5,22.6c-0.8,4,1.8,8.2-3.7,11.1
	c-4.7,2.5-5.8,7.4-3.9,12.2c4.2,10.6,2.4,20.4-1.1,30.9c-2.2,6.5-3.3,13.7-1.1,21.3c2.5,9.1,2.1,18.7-1,27.6
	c-4.4,12.7-5.2,25.5-5.7,38.6c-0.3,11.2-4.9,21.7-5.1,33.2c-0.4,19-6.2,37.4-7.8,56.4c-0.1,2-0.7,3.9-1.8,5.6
	c-5,6.4-5.6,13.3-3.4,20.8c1.7,5.6,1.1,10.4-3.7,14.4c-5.9,4.8-6.6,11.8-5.2,18.3c4.6,23.3-0.4,46.1-2.5,69.1
	c-1.4,15.2-5,30.2-6.2,45.4c-1,12-7.9,19.3-16.3,26.2c-3.9,3.2-8.6,3.2-13.3,3.2L1597.8,2980.2L1597.8,2980.2z"/>
<linearGradient id="SVGID_8_" gradientUnits="userSpaceOnUse" x1="2557.6011" y1="977.3789" x2="2557.6011" y2="1589.4329" gradientTransform="matrix(1 0 0 -1 0 4020)">
	<stop  offset="8.219692e-02" style="stop-color:#2D097F"/>
	<stop  offset="0.2994" style="stop-color:#2F2D8F"/>
	<stop  offset="0.78" style="stop-color:#3589B6"/>
	<stop  offset="0.9897" style="stop-color:#37B3C8"/>
</linearGradient>
<path class="st7" d="M2710.5,2971.1c-4.6-0.1-9.1-1.1-13.2-2.9c-16.1-7-32.4-9.5-50.5-6.2c-15.7,2.8-31.6,3.8-47.5,2.9
	c-10.6-0.6-21.3-1.1-31.8,1.7c-2.6,0.7-5.6,1.6-7.9,0.9c-14.9-4.6-28.8,0.9-42.9,3.8c-9.9,2-20.1,3.3-29.8,1
	c-16.7-4-31.8,0.4-46.4,7.2c-6.4,3-11.8,4.2-18.9,2.3c-21.4-5.8-43.5-5.8-65.4-4.4c-8.3,0.5-15.8,0.1-23.3-3.3
	c-4.2-2-8.6-4.2-13.3-2c-2.3,1.1-4,0.7-4.2-1.4c-0.5-8.3-6.4-8.5-11.3-6.3c-8,3.6-15.4-4.8-23.3,0.2c-2.3,1.5-4.3-2.3-5.6-4.5
	c-2.8-4.6-5.3-9.6-12.2-7.6c-2.7,0.8-3.2-1.6-4.1-3.3c-1.9-3.5-3.8-7-5.6-10.6c-2-3.5-2.3-7.7-0.7-11.5c5.9-15,8.2-30.6,7.6-46.7
	c-0.1-3,1.7-6.3,3.1-9.2c7.5-15.2,10.7-30.6,8.3-48c-1.5-11-2.5-23.4,5.3-34c2.1-2.9,1.7-7.7,2.6-11.5c2.7-10.9,1-22.8,7.2-32.9
	c-2.8-14.1,6.2-26.5,5.6-40.7c-0.7-18,7.3-34.7,12-51.9c6.3-23.1,10-46.5,10-70.4c0-2-0.3-4.2,0.4-5.9c6.7-17.1,5.2-35.3,7.1-53
	c1.1-10.3,2.5-20.5,2.4-31.1c-0.1-10.2,4.4-20.5,6.9-30.8c0.9-3.9,2.4-7.7,2.4-11.6c0.1-19.7,7.4-37.8,11.4-56.7
	c1.8-8.4,3.9-16.8,5-25.4c0.6-5.2,1.9-10.4,3-15.6c0.3-2,0.9-3.9,1.7-5.7c3.6-6.8-6.2-13.1-1.7-18.6c5.1-6.3,5.8-13.3,7.2-20.3
	c1.4-6.5,1.6-13.2,2.1-19.8c0.5-7.3,0.7-14.6,0.9-22c0.2-6.7,0.1-13.4,2.6-19.7c3.4-9,1.4-18.5,3.2-27.7c1.6-8.3,5.3-16,3-25.2
	c-1.2-5,2.5-11.3,4.3-17c1.2-3.8,4.9-7.7,4.3-11c-2.1-10.2,0.9-19.7,1.7-29.6c0.8-9.1,0.2-18.1,2.6-27.4c2.1-8.4-1.2-18.1-2.2-27.3
	c-1.1-9.1-4.1-18.2,3.1-26.2c2.2-2.4,1-5-0.6-7.2c-3.2-4.5-5-9.2-4.3-14.9c0.7-5.7,2.2-10.3,7.7-13.1c4.8-2.4,9.9-4.4,13.9-7.7
	c7.6-6.3,15.2-6.6,23.9-2.7c6.2,2.8,12.6,4,19.4,1.2c5.8-2.3,11.5-1.4,17.5,0.5c21.3,6.8,42.5,6.5,64.6,1.5
	c16.6-3.7,32.9-9.6,50.7-9.6c13.2,0,26.2,1.3,39.4,1.5c18,0.2,36-2.3,53.9,0.9c10.4-5.7,22,1.2,32.6-3.1c3.4-1.4,6.5,0.1,9.6,1.4
	c4.2,1.8,7.6,1.3,9.8-3.4c1.6-3.3,4.5-2.9,6.4-0.8c4.3,5,9.2,7.1,15.9,6.1c3.1-0.4,6.6,0.6,9.8,1.5c16.1,4.6,32.8,4.3,49.3,5.4
	c9,0.6,17.2-1.8,23.9-8.2c3.7-3.5,7.3-3.2,10.3,0.4c3.9,4.7,9.1,7.5,13.8,11.1c8.7,6.4,13.1,15.1,8.7,26.2
	c-2.8,6.9-3.6,14.1-4.1,21.5c-0.4,5.2-1.1,10.8-3.1,15.6c-8.2,19.5-8.3,39.9-7.2,60.4c0.2,5.3-0.3,10.6-1.4,15.8
	c-4.1,20.9-4.6,42.3-1.6,63.4c0.3,2.5,0.2,5.1-0.3,7.5c-1.9,10.7-9.6,20.9-3,32.5c0.4,0.7-0.5,2.5-1.3,3.4
	c-9.8,10.3-7.2,23.3-7.9,35.6c-0.2,2.6,1.3,6.3,0,7.5c-7.9,7.9-4.4,17.4-4.7,26.5c-0.2,5.3-0.2,10.8-1.3,15.9
	c-1.2,5.3-1.9,10.3-0.2,15.7c0.8,2.4,1.3,5.5,0.5,7.8c-4.6,14.2-2.4,29-3.9,43.5c-0.5,4.6-0.6,9.3-1.8,13.8
	c-1.8,7.1-2.5,14.4-2.1,21.8c0.8,14.7,0.9,29.3-3.3,43.6c-0.4,1.3-0.3,2.7-0.7,3.9c-1.9,6.1,3.7,11.4,1.7,17.6
	c-1.8,5.7-4.3,11.5-4.6,17.3c-1.4,27.3-7.1,54.1-9.4,81.3c-1.2,14.5-2.3,29-3.6,43.4c-0.4,3.9-1.2,7.8-2.3,11.6
	c-5.3,18.5-12.2,36.6-15.6,55.4c-2.9,16.2-10.5,31.5-8.3,48.8c0.8,6.2-2.6,13-3.9,19.5c-1.4,7.1-4.4,14.1-0.8,21.5
	c1.6,3.4-0.1,6.3-1.7,9.3c-3.8,7-3.8,14,1.1,20.6c2.1,2.9,2.3,5.6,1.7,9.2c-1.8,9.6-4.3,18.9-3.9,29.2c0.3,8.8-3.5,17.8-3.4,27.3
	c0.1,8.1-4.7,15.8-6.8,23.9c-1.9,7.2-7.7,13.6-7.9,22c-0.1,3.4-2.9,6-5.8,7.7C2732.2,2967.6,2723,2971.6,2710.5,2971.1z"/>
<linearGradient id="SVGID_9_" gradientUnits="userSpaceOnUse" x1="3149.3643" y1="1076.7722" x2="3149.3643" y2="1696.8318" gradientTransform="matrix(1 0 0 -1 0 4020)">
	<stop  offset="8.219692e-02" style="stop-color:#2D097F"/>
	<stop  offset="0.2994" style="stop-color:#2F2D8F"/>
	<stop  offset="0.78" style="stop-color:#3589B6"/>
	<stop  offset="0.9897" style="stop-color:#37B3C8"/>
</linearGradient>
<path class="st8" d="M2912,2956.1c-12,0-24-0.1-36,0c-8,0.1-16.3,1.5-19.2-9.1c-0.6-1.2-1.8-2-3.1-2.1c-12,0-11.2-8.4-11.5-16.6
	c-0.3-10.6-1.5-21.2-2.2-31.9c-0.7-10.6-1.6-21.1,1.7-31.7c1.7-5.6,1.7-11.8,1.9-17.8c0.4-10,0.8-19.9,4.1-29.5
	c0.9-2.5,1.6-5.3,1.1-7.8c-1.2-6.1-1.8-11.9,2.5-17.1c-2.6-10.8,8.4-18.7,5.7-30.5c-2.1-9.1,1.2-19.6,2.5-29.4
	c1.4-10.5,2.9-21.1,5-31.5c5.4-27.4,13.2-54.4,14-82.6c0.2-2,0.5-4,1-5.9c8.5-38.4,12.7-77.4,15.7-116.6c2.4-31.2,4.6-62.4,6.7-93.6
	c0.4-8.7,3.2-17,8-24.3c3.2-4.7,3.1-9.4,3.6-14.8c1.9-22.5-2.6-45.2,1.1-67.6c3.1-18.9,7.6-37.5,11-56.2c1.9-10.4,4.2-21,4.2-31.5
	c-0.1-11.6,2.8-22.3,5.1-33.3c3.6-16.8,5.4-34.1,8.3-51c3.6-21.7,1.2-44,7.4-65.3c1.4-4.8,3.5-7.1,8.1-6c14.5,3.5,28.9,3.8,43.4,0.1
	c1.9-0.6,4-0.6,5.9,0.1c10.1,4.5,19.6-1.3,29.4-1c16.2-10.1,35.3-1.4,52.1-7.8c2.1-0.8,5.1,1,7.7,1.3c17.7,1.8,35.4,4.8,53-0.6
	c1.9-0.7,3.9-0.8,5.9-0.4c17.9,5.7,36.8,3.5,55.1,6.5c8.3,1.4,17.2,3.5,25.4-1.4c7.7,3.3,15.8,1.3,23.7,1.6
	c9.3,0.3,18.6-0.6,27.9,0.3c18.8,1.8,37.1,0.9,55.1-5.4c1.8-0.6,4.2-1.5,5.7-0.9c8.2,3.7,17.3,1.8,25.4,4.4
	c10.8,3.5,20.5,3.8,30-3.2c3.3-2.4,7.4-2.4,11.5-1.4c5.8,1.5,11.7,2.6,17.6,3.4c4.5,0.5,7.5,2.5,9.3,6.4c1.5,3.2,3.6,5.5,7.3,6
	c9,1.3,9.8,8,9.1,15c-1.6,14.6-3.2,29.1-5.4,43.6c-2.8,19.1-6.5,38.1-9.2,57.2c-2.3,15.8-3,31.9-5.9,47.5c-3.1,16.4-4.5,33-4.2,49.6
	c0.1,8.7-0.2,17.6-4,25.5c-4.2,8.7-4.9,18.1-5.6,27.2c-0.6,8-2.8,15.5-3.9,23.2c-1.7,12.3-3.3,24.4-5.9,36.6
	c-1,4.8,2.5,10.3,2.4,15.5c-0.1,6.7,5.1,13.9-2.1,20.3c-1.8,1.5-1.9,6.9-0.6,9.5c4.2,8.6,2.3,17.5-0.1,25.3
	c-4.4,14.4-4.3,29.1-4.5,43.5c-0.2,17.1-5,32.7-10,48.4c-3.3,10.2-6.2,19.9-4.6,31.1c1,7.4-0.9,15-5,22.6
	c-4.2,7.8-5.4,17.6-6.5,26.8c-1.4,11.4-4.6,22.1-8,32.9c-1.8,5.5-5,11.1-0.8,17.1c0.7,1,1,3,0.5,3.8c-4.4,6.2-6.7,13.4-5.7,20.7
	s-6.3,13.8-1.8,21.2c-3.3,7-7.9,13.2-9.6,21c-0.7,3.1-3,6.1-1.9,9.3c3,8.3,0.4,16.5-2.5,23.4c-7.3,17.4-7,35.8-9.2,53.9
	c-0.8,6.3-5.4,12.4-1.4,19.2c1.8,3-2.8,4.2-3.3,6.4c-1.6,7.1-2.7,14.2-3.4,21.5c-0.3,3.3,0,6.6-2,9.5c-7.4,10.7-2.4,19.9,3.4,29
	c3,4.8,2.5,8.9-2.2,11.2c-7.7,3.7-15.3,7.1-24,8.3c-20.5,2.9-41.1,1.8-61.7,2.7c-4.7,0.2-9.2-0.3-13.4-3c-6.4-4.3-13.6-5.1-21.1-3.7
	c-12.1,2.3-24.6,2-36.7,5.1c-4.4,1.1-9.9,2.6-13.8,1.1c-16.4-6.4-29.9,1.7-43.4,7.9c-9.3,4.3-18.9,6.1-28.7,8c-2.6,0.5-5.8,1-7.9,0
	c-9.9-5.1-19.1-4-28.5,1.4c-4.2,2.4-9,1.9-13.7,1.3c-17.2-1.9-34.4-3.7-51.7-5.2c-6.6-0.7-13.3-0.8-20-0.1
	C2951.9,2954.7,2931.9,2954.6,2912,2956.1z"/>
<linearGradient id="SVGID_10_" gradientUnits="userSpaceOnUse" x1="1817.597" y1="2198.8743" x2="1817.597" y2="3175.1841" gradientTransform="matrix(1 0 0 -1 0 4020)">
	<stop  offset="8.219692e-02" style="stop-color:#2C0E82"/>
	<stop  offset="0.1857" style="stop-color:#2F3793"/>
	<stop  offset="0.3006" style="stop-color:#315DA3"/>
	<stop  offset="0.4206" style="stop-color:#337CB1"/>
	<stop  offset="0.5452" style="stop-color:#3594BB"/>
	<stop  offset="0.6762" style="stop-color:#36A6C2"/>
	<stop  offset="0.8178" style="stop-color:#37B0C7"/>
	<stop  offset="0.9897" style="stop-color:#37B3C8"/>
</linearGradient>
<path class="st9" d="M1965,1807.2c-0.7-0.1-1.3-0.2-2-0.1c-14.9,3.6-30,3.3-45.2,2c-2.6-0.1-5.2,0.7-7.4,2.2
	c-3.6,2.8-7.2,2.6-11.2,1.7c-8.1-1.8-15.1,0.5-22.9,3.5c-6.2,2.4-12.9-6-20.7-5c-13.9,1.8-27.9,1.5-41.8,0.2
	c-2.6-0.2-5.7-0.2-7.8,1.1c-9.9,6.1-20.7,3.6-31.2,3.4c-9.9-0.2-19.9-1.6-29.6,2c-5.8,2.2-11.8,1.1-17.8,0.2
	c-15.1-2.4-35.4-1-51.1,1.7c-8.3,1.4-17.1,0.8-25.6,0.7c-12.6-0.1-25.3,1.6-37.8-1.9c-1.9-0.5-4.3-1.4-5.8-0.7
	c-11.8,5.1-23.5,0.7-35.2,0c-25.8-1.4-46.5-14.3-65.6-30.3c-4.6-3.8-6.3-9.4-3.6-14.5c7.6-14.4,5.7-31.3,13.2-45.8
	c4.4-8.5-0.3-18.1,0.9-27.4c0.8-5.6-1.4-11.6,0.8-17.5c0.9-2.4,1.5-6,0.4-7.8c-5.7-9.1,0.3-18,0-27c-0.2-8.5,2.4-17,5.3-25.2
	c3.1-8.7,5.5-18-0.5-26.7c-2.3-3.2-0.7-6.1-0.3-9.4c3-22.4,4-45.1,8.8-67c3.9-17.6,0.6-35.7,6-52.9c-2.2-6.5,2.3-11.3,4-16.9
	c2.2-7.4,7.2-14.6,2.2-22.8c-1.6-2.6,0.5-5,1.5-7.4c4.2-9.9,7.3-19.9,2.4-30.7c-1-2.2-0.6-5.3,0-7.8c5.6-20.5,5.3-42.1,12-62.5
	c2.4-7.4,1.9-15.8,2.7-23.7c0.5-5.3,0-10.9,1.5-15.9c7.6-24.3,6.4-50.1,12.7-74.5c1-3.9,2.6-7.9,2.4-11.7
	c-1.9-33.1,8.5-64.4,13.3-96.6c2.1-14.5,3.3-29.1,8.9-42.8c-1.8-18.5,4.5-36.7,2.8-55.2c-0.2-2.6-0.8-5.7,0.2-7.8
	c8.9-18.3,6.2-39.3,13.6-58.1c4.1-10.5,4.7-22.1,4.6-33.5c-0.1-15.7,5.6-29.9,12.6-43.7c3.7-7.3,9.2-11.2,17.6-10.1
	s17.3,1.3,25.6,3.2c7.3,1.6,14.2,3.7,21.7,3.2c1.9-0.1,4.7,0,5.7,1.2c7.3,8.1,16,4.8,24.2,3.2c9.8-1.9,20,0.1,29.5-3.8
	c8.9,3.7,18.3,2.5,27.5,3.3c2.7,0.1,5.3,0.8,7.7,1.9c10.9,6.3,23.3,4.8,35,6.8c5.3,0.8,10.7-0.1,15.4-2.8c5.9-3.1,12.4-4.9,18.1-8.3
	c6.9-4.1,14.3-2,21.2-3.6c7.4-1.6,13.6-1.8,21,0.6c10.7,3.4,22,5.1,33.4,2.4c3.9-0.9,8.2-2,11.7,0.3c8.4,5.6,18.4,1.3,27.1,4.9
	c2.7,1.1,5.2-0.3,7.2-2.3c2.9-2.8,5.7-5.7,8.6-8.3c1.4-1.3,4-3.1,5.2-1.2c5.9,9.8,16.8-0.4,23.2,6.2c13.3,2.3,25,8.8,36.7,15
	c6.9,3.6,13.4,5.2,20.9,1.9c7.3-3.2,16-0.4,23.3-4.5c2.5-1.4,5.2,0,7.4,1.6c0.6,0.4,1.1,0.8,1.5,1.3c5.9,7.3,16.7,9.3,21.1,17.9
	c4.1,8.1-1.1,16.8-0.7,25.5c0.6,15.3-1.5,30.6-6.3,45.1c-4.6,14.5-6,30-9,45c-0.8,4.2,0.9,7.8,1.2,11.8c0.4,3.9,1.5,9.3-0.5,11.6
	c-6.8,7.9-2.4,17.7-5.8,26.4c-3,7.6-1.3,17.1-1.3,25.7c0,9.3-0.4,18.4-4.2,27.4c-2.3,5.3-2.9,11.7-2.7,17.6
	c0.3,6.1,1.2,11.5-4.1,16.1c-3.2,2.8-2.8,7.3-3.1,11.3c-1.2,15.2,0,30.8-9,44.4c-0.6,1.2-0.9,2.5-0.8,3.9
	c-1.5,30.6-10.9,60.2-12.1,90.9c-6.5,18.2-6.2,37.9-13.2,55.9c-2,4.9-3,10.3-2.9,15.6c0.7,18.1-2.6,35.7-6.2,53.3
	c-3.1,15.6-5.1,31.4-8.3,47c-2.1,10.3-3.9,20.6-6,30.9c-1.1,5.7-2.7,9.9,2.2,14.1c2.5,2.1,1.8,4.4,0.4,7c-7,13-10,27.2-13.5,41.4
	c-4.9,20.2-5.1,40.8-7.5,61.2c-1.9,16.4-2.8,33.1-6.7,49.3c-2.6,10.6,1.2,21.3-0.9,31.3c-2.2,10.3-5.6,20.3-5.9,31.1
	c-0.5,16-2,31.9-3.3,47.8c-0.3,4-1,7.9-2,11.8c-5,18.4-12.1,23.5-31.4,22.7C1967.6,1807.9,1966.3,1807.6,1965,1807.2z"/>
<linearGradient id="SVGID_11_" gradientUnits="userSpaceOnUse" x1="1220.9331" y1="2165.1404" x2="1220.9331" y2="2694.5623" gradientTransform="matrix(1 0 0 -1 0 4020)">
	<stop  offset="8.219692e-02" style="stop-color:#2D097F"/>
	<stop  offset="0.1757" style="stop-color:#2F238A"/>
	<stop  offset="0.3752" style="stop-color:#3256A0"/>
	<stop  offset="0.563" style="stop-color:#347EB1"/>
	<stop  offset="0.7337" style="stop-color:#369BBE"/>
	<stop  offset="0.8815" style="stop-color:#37ADC5"/>
	<stop  offset="0.9897" style="stop-color:#37B3C8"/>
</linearGradient>
<path class="st10" d="M1112.9,890.2c5.4-2.9,15,3.1,24.8,1.7c9.2-1.4,18.4-2.3,27.7-2.8c10.5-0.3,21.1,3.9,31.7,0
	c10.2,3.9,21,2,31.4,3.5c5.9,0.8,11.9,0.8,17.8,0c9.9-1.1,19.6-1.9,29.6,1.5c6,2,13.2,1.6,19.8,0.8c11.8-1.5,23.2-3.7,34.3,3.5
	c2.9,1.9,8,1.7,11.7,0.7c10.7-3,21.1-0.8,31.6,0.2c5.3,0.5,10.7,1.9,15.6-1.1c6.6-4.1,13-6.3,19.6,0c0.5,0.4,1.2,0.6,1.9,0.5
	c12.6-3.8,24.6,2.8,36.9,2.1c10.7-0.6,21.1-1.8,31.3,2.9c3.6,1.7,7.9,0.5,11.7-1c7.5-3,13.9,3,21.2,2.9c1.1,0,2.7,2.7,3.4,4.5
	c1.3,3.3,3.2,6.6,6.7,6.7c9.8,0.3,9.8,7,10.3,13.9c0.7,10.7-0.2,21.3-2.6,31.7c-2.9,12.3-4.9,24.8-8.5,37
	c-3.5,11.8,0.6,24.3-3.1,35.6c-3.4,10.7-5.9,21.7-7.5,32.9c-3.2,21.6-5,43.4-10.6,64.8c-6.7,25.8-7.7,52.8-3.1,79
	c0.7,3.9,0.3,6.2-2.8,8.4c-4,2.8-4.8,6.6-5.6,11.6c-3,18.7-2.6,37.6-4.2,56.4c-1.6,19.2-4.4,38.3-6.8,57.4c-0.3,3.3-1.1,6.5-2.3,9.6
	c-3.9,9.5-3.6,19.3-4.2,29.3c-1.3,20.4-1.3,40.9-4.9,61.2c-3,17-4.4,34.2-6.3,51.4c-0.9,7.9-0.6,15.9-3,23.7
	c-1.3,4.5-1.6,9.2-1.1,13.8c1.4,13.3,0.3,26.7-3.2,39.5c-0.7,2.6-2.1,5.8-1.2,7.8c5,10.7-1.5,20.5-1.6,30.7
	c-0.1,18.8-4.1,36.8-9.6,54.6c-0.9,2.5-1,5.3-0.3,7.9c1.6,5.3,2.2,9.2-2.2,14.2c-4,4.5,3.1,10.9-0.2,17.2
	c-2.7,5.1-5.6,10.4-6.1,16.7c-1,13.9-4.3,27.9-3.6,41.7c1.1,23-4.7,44.8-9.1,66.9c-1.9,9.7-12.6,15.9-22.4,14
	c-7.1-1.4-14.5-2-21.4-4c-5.6-1.6-10.4-0.7-15.4,1.6c-7.3,3.3-14.7,6.4-21.9,9.6c-11.5,5.1-23,10.2-36,7c-6.1-1.5-8,8.2-13.7,5.3
	c-3.9-2-6.2-8.3-9.9-9c-9-1.7-18.8-3.2-27.6,0.3c-7.2,2.9-14.1,2.8-21.5,2.3c-12-0.7-23.6,0.9-35.5,3.5c-11.6,2.6-23.6,1.4-34.5-3.3
	c-4.8-2.1-10.3-3.6-14.3-6.7c-8.3-6.5-17.3-6.1-26.5-4.1c-10.3,2.2-20.8,2.4-31,6.3c-5.9,2.3-13.6-0.4-19.7,1.6
	c-16.1,5.2-31.4,0.1-47-1.6c-6-0.7-11.7-1.9-17.1,2.3c-2.1,1.7-4.7,2.6-7.3,2.7c-14.2-0.8-27.4,4.9-41.3,6.2
	c-4.6,0.4-9.2,0.4-13.9,0.7c-3.4,0.4-6.7-1.5-8.1-4.6c-2.6-5.2-6.1-7.8-12.2-8.4c-4.1-0.4-5.7-5.2-6.8-9.1
	c-4.2-14.1-4.6-29.1-1.1-43.3c3-13,5-26.1,4.3-39.4c-0.3-6,0.2-12,1.4-17.8s2.8-12.1,2-17.8c-1.8-12.9,0.4-25.1,4.1-37.2
	c3.8-12.7,2.4-26.5,8.8-38.6c1.5-2.7,1.2-6.5,1.2-9.8c0-28.7,5-57,7.6-85.5c0.8-9.3,0.1-19.1,3.1-27.7c6.5-18.6,5.4-38.1,9.3-56.8
	c4.5-21.6,2.6-43.9,8.3-65.1c5.2-19.5,3.7-39.5,6-59.2c1.2-10.5,4.6-20.8,4-31.6c-0.1-2.3,1.4-5.2,2.9-7.2c3.5-4.5,3.9-9.7,5.2-14.9
	c1.5-6.2-0.8-11.7-1.3-17.5c-0.4-5.1,6.3-8.4,6.2-14.2c-0.1-4,0.3-8.2-0.9-11.9c-3.1-9.4,1.9-18.2,1-27.4c8.6-19.8,7.5-41.4,11.8-62
	c3.4-16.2,4.3-32.9,6.1-49.4c0.3-2.7,0.7-5.2,2.6-7.3c7.9-8.4,9.6-18.9,8.5-29.6c-1.4-13.4,4.9-26,3.3-39.2
	c10.6-15.2,8.9-34.2,15.6-50.6c1.5-3.7,2.3-7.6,2.4-11.6c0.2-14.6,0.7-29.2-0.3-43.8c-0.7-9.6,3.5-15.3,10.8-19.5
	c10.4-6,22.1-8.9,33.3-13C1088.7,891.9,1098.7,893,1112.9,890.2z"/>
<linearGradient id="SVGID_12_" gradientUnits="userSpaceOnUse" x1="2019.4856" y1="288.0039" x2="2019.022" y2="905.7604" gradientTransform="matrix(1 0 0 -1 0 4020)">
	<stop  offset="0" style="stop-color:#2D097F"/>
	<stop  offset="4.147473e-02" style="stop-color:#2E1C87"/>
	<stop  offset="0.1408" style="stop-color:#304498"/>
	<stop  offset="0.2469" style="stop-color:#3266A7"/>
	<stop  offset="0.3589" style="stop-color:#3482B3"/>
	<stop  offset="0.479" style="stop-color:#3598BC"/>
	<stop  offset="0.6112" style="stop-color:#36A7C3"/>
	<stop  offset="0.7648" style="stop-color:#37B0C7"/>
	<stop  offset="0.9897" style="stop-color:#37B3C8"/>
</linearGradient>
<path class="st11" d="M1974.5,3715.7c-6.9-9-14.4-17.5-24-23.8c-33.8-42.2-62.3-87.9-89.5-134.5c-20.2-34.6-36.9-70.7-48.8-109.1
	c-5.2-16.5-8.5-33.6-9.6-50.8c-3.2-53.7,16.3-96.2,65-122.8c2.9-1.6,5.8-3.3,8.8-4.8c5.3-2.6,7.7-6.7,7.7-12.7
	c-0.2-27.3-0.2-54.6-0.1-81.9c0-6.7-2.7-11.5-8.2-15c-8.5-5.3-17.4-10.1-27.3-12c-11.7-2.2-23.6-3.6-33.4-11.6
	c-1.8-1.5-5.1-1.2-7.7-1.7c-2.7-0.3-4.8-2.6-4.8-5.4c-0.2-2.7-0.2-5.3-0.1-8c0.2-4.9,3.2-7.2,7.7-7.2c23.2-0.2,44.7,6.5,64.9,17.4
	c10,5.4,19.4,11.7,27.3,20c1.5,1.1,2.8,2.5,4,3.9l0,0c9.1,13.2,5.3,28.2,5.9,42.5c0.5,11.9-0.2,23.9,0.3,35.8
	c0.5,11.5,4.7,19.3,18,17.8c1.2-0.2,2.5-0.3,3.8-0.5c6.2-4.2,14.1,0.9,20.2-3.6c12.6-1.1,25.2-2.7,37.8-3.2
	c24.6-0.8,49.3,1.2,73.4,6.1c3.3,0.6,6.6,0.8,9.9,1.4c9.9,1.8,13.8-1.8,14.5-13.5c0.4-2.7-1.1-5.4-3.6-6.6
	c-5.4-2.5-10.8-5.1-16.4-7.4c-16-6.6-31.7-14-46.2-23.5c-9.5-6.2-18.5-13.1-25.4-22.3c-5.6-7.4-4.6-15.1,2.6-21.2
	c8.9-7.6,19.8-11.2,30.8-13.4c24.8-5,49.8-8.5,75.2-8.6c19.8-0.1,38.1,4.9,54.6,16.1c14.3,9.8,28.6,19.5,40.8,31.9
	c1.2,1.5,2.5,2.8,4,4l0,0c1.1,1.5,2.5,2.9,4,4l0,0c1.2,1.5,2.5,2.8,4,4l0,0c1.2,1.5,2.6,2.8,3.9,4.1l0,0c3.4,5.8,9.1,9.8,12.7,15.4
	c6.2,9.7,6.2,20.6,1.6,30.6c-5.4,11.8-17.3,14.3-28.8,14.4c-19.4,0.1-38.1-5.1-56.7-9.8c-6.4-1.6-12.9-2.8-19.4-4
	c-6.3-1.1-14.6-5.2-18.5,1.6c-4.1,7.4,5.8,10.5,8.9,16c7.9,4.4,16,8.5,23.6,13.4c7.1,4.5,13.7,9.7,20.5,14.6
	c1.3,1.4,2.8,2.6,4.4,3.5l0,0c0.8,1.8,2.3,3.3,4.1,4l0,0c0.7,1.9,2.2,3.3,4,4l0,0c0.7,1.9,2.1,3.3,4,4l0,0c0.7,1.8,2.1,3.3,3.9,4.2
	l0,0c34.6,42.1,28.8,89.6,16,136.7c-15.6,57.1-47.1,107-77.1,157.3c-25,41.9-52.9,81.5-89.7,114.2c-11.2,9.9-22.1,17.6-37.1,7.7
	l-11.8-4.2v0.2c-1.8-0.9-3.3-2.4-4.3-4.1l0.1,0.2c-1.9-0.7-3-2.4-4.4-3.6L1974.5,3715.7z"/>
<path class="st12" d="M2118.5,3263.8c-5.7-1.6-11.5-2.9-17.1-4.9c-1.4-0.5-2.7-3-2.8-4.7c-0.4-6.4,2.4-11.5,7.3-15.5
	c2-1.7,4.8-2.3,7.4-1.5c10.2,2.6,20.7,4.5,30.7,7.8c15.8,5.3,32.4,6.5,48.5,9.8c9.9,2,19.8,0.3,29.2-3.3c5.5-2.1,8.8-5.9,9.1-11.8
	c0.7-11.3,1.3-22.6-8.6-31.2c-2.5-2.2-3.9-5.5-3.7-8.9c12.5,6.2,19.4,17.8,26,29c4.9,8.2,3.7,18.2,1.3,27.1
	c-1.9,7.2-9.1,9.6-15.6,10.6c-9.8,1.5-19.8,1.4-29.6-0.3c-19.6-3.1-39-7.4-58.1-12.6c-2.5-0.8-5.1-1.5-7.7-2
	C2125.5,3250.1,2123.2,3251.8,2118.5,3263.8z"/>
<path class="st13" d="M1930.8,3251.9c-5.6,5.4-12.4,3.3-18.8,2.7c-2.8-0.3-4.5-2.6-4.7-5.5c-0.3-5.3-0.5-10.6-0.5-15.9
	c-0.2-25.8-0.3-51.6-0.4-77.4c12.1,5.5,17.2,14.7,16.7,28.2c-0.7,17.7-0.1,35.5-0.2,53.3C1923,3243.7,1924.5,3249,1930.8,3251.9z"/>
<path class="st14" d="M2055.1,2515.8c-0.2,12.6-1.7,25.2-4.7,37.6c-2.8,12.3-4.2,24.8-6.2,37.2c-2.5,15-3.9,30.2-9.1,44.8
	c-3.3,9.2-4.2,19.3-6,29.1c-4.3,23.5-9.7,46.8-11.1,70.7c-0.4,6.8-3.1,12.8-4.5,19.3c-6.2,29.1-13.1,58-18.3,87.2
	c-0.4,2.5-1.4,5.7-3.2,6.9c-8.7,5.9-17.9,11.4-29,10.9c-5.3-0.2-10.4-1.7-15.7-2.1c-12.2-1-13.4-2-12.8-12.7
	c0.1-2.6,0.1-5.6,1.2-7.8c5.4-10.4,5.5-21.2,4.2-32.6c-2.4-22,2.1-43.7,4.2-65.5c1.5-15.1,4-30.2,6.3-45.2
	c3.7-24.2,7.8-48.3,11.1-72.5c1.6-11.8,3.4-23.6,5.5-35.4c1.7-9.2,2-18.4,8.1-26.2c1.7-2.2,1.8-4.8,0.8-7.5
	c-2.9-7.9-1.2-15.7,0.6-23.5c3.9-16.8,5.6-33.9,7.2-51c0.8-9.3,1.5-18.6,2.6-27.8c0.5-3.9,1.2-8.4,3.4-11.3c2.8-3.7,6-6.2,3-11.4
	c-0.6-1,0.9-3.9,2.2-5c5.1-4.5,3.8-8.7,1.3-14.2c-3-6.7-2.4-7,5.4-11.7c1-0.7,1.9-1.5,2.7-2.4c-4.1-1.9-8.9-2.8-8.7-9.2
	c0.4-12.8,5-24.7,7.2-37.1c0.3-1.5,2.7-2.8,4.1-4c2.5-2.1,2.9-4.9,0.7-6.8c-4.2-3.7-4.2-7.8-3.2-12.7c1.8-8.5,3.3-17,4.5-25.5
	c1.7-11.4-1.1-21.1-11.6-27.6c-3.3-2.2-6.5-4.7-9.4-7.3c-10.8-9-22.1-16.1-37.3-14.3c-5.8,0.7-11.9-0.6-17.8-1.3
	c-13.1-1.4-16.1-3.9-13.6-16.2c2.5-12.2,1.1-25.4,7.8-36.8c1.8-3.1,1.6-6.3,0.4-9.6c-1.4-4,0-7.8,1-11.7c2.4-8.7,7.2-13.4,16.9-13.9
	c22.5-1.3,44.9-4.7,67.3,2c8,2.4,17.2,1.2,25.8,1.6c8.7,0.4,17.3-0.8,25.7,2.5c4.5,1.8,9.2,0.5,13.8,0c4.6-0.6,9.3-0.8,13.9-0.7
	c6,0.2,10.2,12.5,17.8,2.8c6.6-0.8,13.4,0.1,19.6,2.5c1,0.4,2.6,0,3.8-0.5c15.9-6.7,32.6-2.7,48.9-3.2c2.7-0.1,5.3,0.1,7.9,0.6
	c10.6,1.8,14,5.6,12.7,16.2c-1.2,8.5-2.9,17-5.2,25.3c-2.5,9.7-5.4,19.2-4.8,29.4c0.1,1.6-2,3.3-3.1,5c-6.1,4.5-12.6,3.6-17.9-0.4
	c-11.7-8.8-23.9-17.3-31.4-30.4c-0.6-1.5,1.6-2.7,0.7-4.4c-0.5,1.1-1.5,1.9-2.7,2.1c-0.5,2.6-8.4-3.8-4.5,3.7
	c5.4,10.2,15.6,15.3,24.4,21.4c13,9,11,16.4,0.3,24.7c-5.9,6.7-12.3-3.1-18.3,0.5c-0.7-1.1-1.3-2.2-1.7-3.4c-0.7-3,0.6-7.2-3.9-7.7
	c-3.3-0.4-3.4,3.4-4.8,5.4c-1.1,1.5-2.6,2.7-4.4,3.3c-2.5,0.5-5.3,0.2-7.9,0.1c-12.1-0.2-20.6,3.8-21.7,17.5c-0.3,3.1-2,5.8-5.8,7.1
	c-7.5,2.5-7.6,3-3.6,9.8c1.5,2.1,2.1,4.7,1.7,7.3c-0.6,3.9-1.4,7.9-1.2,11.8c0.6,9-9.5,15.1-7,23.6s0.4,15.8-1.7,23.3
	c-8.1,29.6-11.4,59.7-12.6,90.2c-0.4,9.8-2.5,19.7-5,29.3c-1.5,5.9-1.5,11.8-2.2,17.7c-11.8,5.2-18.9-3.5-27.2-8.9
	C2037.6,2497.9,2055.3,2499.6,2055.1,2515.8z"/>
<path class="st15" d="M907.5,2142.7c29.8,3.5,59.8,2.4,89.5,7.6c7.2,1.2,14.6,1.1,21.9,0.8c9.4-0.5,18.5-0.6,27.7,2
	c3.9,1,7.9,1.1,11.8,0.5c10.1-1.5,14.5-1.2,11.6,11.2c-4.3,18.3-3.3,37.1-6.5,55.5c-0.7,3.9-0.6,8-1.7,11.8
	c-3.2,11.2-5.8,14.9-17.8,14.6c-8.6-0.2-17.3,0.7-25.9,0.3c-15.2-0.7-30.3-2.9-45.5,1c-4.9,1.3-10.6-0.5-15.9-0.5
	c-8.1,0-13.1,3.7-13.7,11.4c-1.8,24.6-8.8,48.5-11.1,72.9c-2.2,23.9-6.2,47.4-8.3,71.3c-0.3,4-0.2,8,0.1,12c0.2,3.7,2.2,6.7,5.8,7
	c6,0.6,9.7,2.9,11.7,8.8c1.2,3.4,5,3.9,8.5,4c10.7,0.1,21.3,0.1,32,0.3c4.7,0.1,9.3,0.1,14,0.6c5.6,0.6,8,4,7.1,9.8
	c-1.5,9.1-4.4,18.2-4.5,27.3c-0.3,14.9-4.6,28.9-6.9,43.3c-1.3,8.1-6,13.2-13.3,16.1c-5.6,2.2-11.3,4.9-17.1,5.2
	c-11.8,0.7-23.1,4.9-35.3,2.6c-8.6-1.6-15.2,4.5-18.6,12.1c-2.6,5.4-4,11.3-4.3,17.3c-0.4,16.2-4.6,31.6-8.3,47
	c-4.7,19.4-8.8,39-11.2,58.8c-2.2,18.5-3.1,37.1-6.5,55.5c-1.5,8.1,0,9.9,9.7,13.8c3,1.2,5.6,3.2,7.5,5.9c5.4,7.4,8.1,8.9,14.2,4.9
	c8-5.2,15.9-5.4,24.8-4.4c16.6,1.9,33.2,0.5,49.8-0.4c17.5-1,20.1,1.8,17.3,19.2c-2.8,17.7-6,35.4-9.3,53.1c-1,5.2-3,10.2-4.6,15.2
	c-2.2,6.6-6.7,9.6-13.7,8.7c-2-0.2-4,0.2-6-0.1c-32.7-4.4-65,0.6-97.4,3.5c-12.1,1.1-24.1,0.5-32-11.1c-0.8-1.1-1.8-2-2.9-2.7
	c-7.7-5.2-14.8-6.9-14.6-3.5c0.3,7.1,6.8,7.2,11.1,9.8c1.6,1,3.5,2.2,4.2,3.8s0.3,3.9-0.3,5.7c-0.7,1.1-1.9,1.8-3.2,1.8
	c-6.4-0.8-12.7-3.8-19.2,0.2c-0.7,0.4-3.8-1.6-4.4-3.1c-1.2-2.9-1.5-6.3-2.3-9.4c-0.3-0.5-0.9-0.9-1.5-0.9c-1.2,0.2-2.4,0.7-3.4,1.3
	c-0.5,0.4-0.8,1-1,1.7c-1.7,4.6,1.7,12.6-5.5,13.3c-6.9,0.7-14.2-1.6-21.2-3c-1.1-0.2-2.3-3.2-2.4-5c-0.2-2.6,0.6-5.2,1-7.8
	c6.4-43.4,11.3-87,21.5-129.8c1.2-5.1,1.3-10.6,1.4-15.9c0.3-15.4,2.8-30.4,5.2-45.6c2-13.1,2.7-26.4,4.1-39.7
	c3.2-30.3,6.7-60.6,9.9-91c1.9-17.8,2.4-35.9,5.4-53.5c3.3-19.6,3.5-39.8,10.5-58.7c1.2-3.8,1.9-7.7,1.9-11.7
	c1.1-26.6,3.7-53.1,6.9-79.5c2.5-21.1,3.2-42.4,4.2-63.7c1.3-26.6,4.9-53,10.7-79c1.3-5.1,2.3-10.3,3-15.5c1-9.3,6.5-14.3,15.8-14.6
	C883.6,2142.4,895.6,2142.7,907.5,2142.7z"/>
<path class="st16" d="M2782.3,1630.7c-1.4-10.2,1.9-19.8,4-29.5c4.4-20.2,8.8-40.3,8.9-61.2c0-7.9,1.5-15.9,2.9-23.8
	c3.6-20.4,4.9-40.9,6-61.5c0.3-6.6,1.9-13.1,2.6-19.7c3-28.4,5.7-56.9,8.7-85.3c1.1-10.6,1.5-21.4,4-31.6
	c4.4-18.1,3.7-37.2,10.5-54.8c1.2-3,1.2-6.5,1.3-9.8c1.2-40.6,7.6-80.8,10.6-121.3c0.3-4.6,0.8-9.3,0.7-14
	c-0.7-29.5,4.8-58.3,10.3-87c1.1-5.9,2.4-11.6,3.1-17.6c1-8.3,6.1-13,14.2-14.2c2.6-0.4,5.3-0.5,8-0.3c31.9,1.6,63.8,3.1,95.7,4.8
	c19.9,1.1,39.6,4.8,59.7,3.6c7.8-0.5,15.7,2.5,23.6,2.7c14,0.3,15.5,1.1,13.1,13.4c-2.7,13.7-4.3,27.6-4.9,41.6
	c-0.3,6-1.3,11.9-2.1,17.8c-2.5,17.6-6.9,20.6-21.2,20.1c-6-0.2-12.2,1.7-17.9,0.7c-22-3.9-43.8,0.5-65.6,0.4
	c-11-0.1-15.1,3.3-15.6,13.7c-1,22-6.6,43.4-9.9,65c-0.3,2-1.3,3.9-1.3,5.8c-0.4,26.7-6.3,52.8-7.9,79.4c-0.1,2.5,0.8,5.2,1.7,7.6
	c0.6,1.2,1.7,2,3,2.2c11.8-0.6,13.8,16.8,28.4,13.9c12.7-2.6,26.5,0,39.8,0.6c4.4,0.2,7.8,4.1,6.6,8.2c-6.5,23.1-4.7,47.5-11.2,70.8
	c-2.9,10.6-8.1,16.2-17.6,19.1c-15.2,4.7-31,6.8-46.9,6.3c-9.3-0.3-17.5,4.1-20.6,12.3c-2.2,5.6-3.5,11.4-4,17.4
	c-1.1,17.4-5.6,34.1-9.3,51c-4.2,19.4-7.9,39.1-10.7,58.8c-2.5,17.1-2.8,34.5-6.4,51.5c-1.7,7.9-0.2,10,8,13.1
	c3.2,1.2,6.6,1.7,8,5.1c3.4,8.3,10.7,9.2,16.3,5.5c8.2-5.4,16.1-5,24.8-3.7c15.2,2.4,30.4,0.8,45.6-0.4c5.3-0.4,10.6-1.2,15.9-1.1
	c2.8,0,5.1,2.2,5.2,5c0.3,3.3,0.9,6.7,0.4,9.9c-3.5,21.7-5.7,43.6-11.8,64.8c-1.2,3.8-2.5,7.6-4.2,11.2c-1.4,3.9-5.2,6.4-9.3,6.3
	c-8,0.2-16,0.7-23.9-1.3c-5.8-1.4-11.9-1.9-17.9-1.3c-22.5,2-45.1,4.2-67.6,6.1c-11,0.9-20.6-1.3-28.8-10c-5.2-5.6-12.7-9-19.2-13.3
	c0,0-2,0.3-2,0.4c-1,1-1.6,2.5-1.5,3.9c-5.8,12.5-14.9,7.1-23.5,4.4c-1.6-0.8-3.2-1.7-4.8-2.6c-6.8-4.1-15-7.1-5.3-17.1
	c7.2-7.5-5.9-17.2,1.1-25.5c1.1-0.9,2.4-1.6,3.7-2.2C2784.3,1640.4,2778.1,1636.9,2782.3,1630.7z"/>
<path class="st17" d="M2466.6,1087.6c-7.9-10.2-18.6-17.2-29-24.2c-11.5-7.7-24.7-8.3-38.5-6.1c-9.8,1.6-17.2,5.5-23.4,13.2
	c-11.7,14.6-18.9,30.4-16.6,49.7c0.9,7.3-0.2,14.5-1.3,21.8c-3.7,22.3-7,44.6-3.2,67.5c3.4,20.3,10.6,38.3,24.7,53.5
	c3.3,3.3,6.1,7,8.6,10.9c5.1,8.7,11.9,15.9,18.6,23.4c6.1,6.8,14.7,11.6,16.9,21.7c1,4.4,6.1,4.6,9.5,6.5c5,2.7,6.5,6.3,3,11.3
	c-2,2.9-0.5,5,2.5,5.8c5.5,1.4,12.8,0.5,11.6,9.9c-0.1,0.7,2.9,1.9,4.5,2.6c1.2,0.5,3,0.2,3.8,1c6.2,6.2,8.9,16.3,19.7,17.3
	c4.2,8.2,8.6,16.4,12.7,24.7c1.4,2.9,1.1,7,3,9.3c8.8,10.7,9,23.3,9,36c0,22-0.8,43.8-3.9,65.7c-3.1,22.4-4.9,45-8.7,67.3
	c-1.1,6.5-2.9,13-4.2,19.5c-1,4.8-2.6,8.9-7.6,10.9c-1.7,0.7-3.9,1.9-2.5,4.4c3.9,7.2,0.7,13-3.9,18c-3,3.2-3.2,7.1-4.4,10.8
	c-5.4,16.1-13.8,31-28,40.4c-13.7,9.1-29.1,16-44.2,22.7c-10.3,4.6-21.3,7.6-32.2,10.7c-22.5,6.3-45.2,10.8-68.6,4.4
	c-2.6-0.7-5.2-1-7.8-1c-21-0.2-36-5.8-50.5-18.6c-9.2-8.1-16.3-17.5-20.3-29.1c-10.2-29.6-13.9-59.6-7.3-90.4
	c2.1-9.8,3.8-19.6,5.8-29.4c2.8-13.1,4.3-14.9,16.8-15c20-0.2,39.9,0,59.9,0.3c7.7,0.1,11.4,3.5,10.5,11.2
	c-1.2,10,0.3,19.9-0.1,29.8c-0.9,28.1,13.8,45.9,36.7,58.9c11.8,6.7,22.4,5.9,33.1-2.8c26.4-21.4,26.5-21.3,37.5-60.4
	c1.4-5.1,2.9-8.2,8.7-9c4.5-0.6,2.5-4.1,0.5-5.3c-4.8-2.8-5.4-6.1-4.6-11.5c1.7-13.2,0.6-26.7-3.2-39.5c-4.3-15-10.6-28-22.3-39.3
	c-16.3-15.6-30.6-33.3-45.9-50c-6.9-7.6-8-18.6-14.7-25.9c-6.2-6.9-13.8-12.7-17.9-21.2c-3.3-7.1-7.6-13.7-12.9-19.4
	c-4.6-5-7-12.3-11.6-18.1c-14.4-18.5-20.6-40.1-21.1-63.4c-0.3-16,0.6-31.9,1.7-47.9c2-29.3,7.5-58.1,12.3-86.9
	c1.1-6.8,2.6-13.2,11.2-14.3c1.8-0.2,3.4-2.7,0.8-3.9c-8.3-3.8-6.7-10.9-5.6-17.3c3.6-21.4,12.5-40.7,24.9-58.4
	c5.5-7.5,11.5-14.7,17.9-21.5c3.1-3.4,6.8-6.3,10.9-8.5c11.8-6.2,23.9-11.7,35.8-17.7c19.7-9.9,41.4-12.3,62.3-11.1
	c22.1,1.3,44.7,3.5,66.2,12.6c23.6,10,37.8,26.5,44.6,50.2c5.4,18.5,7.4,37.8,5.8,57c-2.9,35-9.8,69.7-9.8,105
	c0,7.3-4,11.3-10.9,11.5c-4,0.1-8.8,0.5-11.7-1.5c-9.4-6.5-19.3-3.5-28.6-1.7c-8.2,1.5-15.9,0.5-23.8,0.3c-6-0.2-9-3.5-8.4-8.8
	c1.1-10.5,2.6-21.1,4.3-31.6c0.6-3.4,3.2-5.7,6.3-7.2c3.1-1.8,6.6-3,10.2-3.4c-1.9-1.7-4.6-1.9-6.3-3.8c-1.1-0.1-2.2-0.3-3.3-0.7
	c-0.8-0.5-1.2-1.4-1-2.4c0.2-0.9,0.5-1.3,0.8-1.3l0,0c5.8-3.4,6.2-7.4,1.9-12.4c-4.1-4.7-5.5-10-1.9-15.7l0,0
	C2473.7,1113.8,2467.6,1101,2466.6,1087.6z"/>
<path class="st16" d="M1382.3,2448.8c1-3.1,1.8-6.4,3.1-9.3c4.4-9.5,4.7-19.2,2.5-29.3c-2.4-10.4-3.5-21-3.2-31.7
	c0.2-3.9-1.2-7.8-1.8-11.7c-3.5-24.3-6.6-48.7-10.4-73c-3.3-20.9-6.5-42-9.4-63c-3.6-26.3-7.4-52.7-11-79c-0.3-2.6-0.2-5.3,0.4-7.9
	c1.2-6.5,4.4-9.4,10.8-9.3c18.6,0.3,37.2,1,55.9,1.4c4.5,0.1,7,2.1,9.4,5.9c3.2,5,8.6,5.6,14.2,3.9c1.5-8.1,7.7-7,13.5-6.8
	c15.1,0.5,15.1,0.5,15.5,17c0.1,3.9,0.3,8.2,1.8,11.7c4.6,10.6,5.5,21.8,6.6,33.1c1.7,17.9,4.2,35.7,6.4,53.6
	c0.5,4,1.1,7.9,4.1,10.5c5.1-0.1,4.5-6.9,10.1-6.6c4.4,5.1,0.3,14.1,7.7,19.4c5.4-5,7.9-11.8,9.8-18.5c8.7-30.2,21-58.9,32.4-88.1
	c1-2.5,1.6-5.1,2.6-7.6c6-14.4,15-23.4,32.1-25.1c21.3-2,42.4-2.9,63.7-1.2c6.9,0.5,9,3.4,7.3,10.7c-1.3,5.8-2.5,11.8-4.9,17.2
	c-10.5,24.4-19.2,49.4-28,74.4c-14.9,42-30.7,83.8-50.8,123.8c-8.4,16.7-14.2,34.5-19.9,52.3c-1.7,5.3-2.7,10.1-0.2,15.4
	c8.2,17.2,9.6,35.8,11,54.5c0.7,9.9,2.9,19.7,4,29.6c1.7,15.9,2.3,31.9,4.8,47.7c2.4,15.8,4.2,31.6,7.2,47.2
	c6.2,32.9,8.3,66.1,10.8,99.3c1.8,22.6,3.2,45.2,5.9,67.7c1.2,10,0.2,19.9,0.7,29.8c0.5,8.9-4.4,14.1-13.6,13.5
	c-28.9-1.9-57,4.4-85.5,7.1c-15.5,1.5-16.7,0.9-19.8-15c-4.1-20.9-7.9-41.9-10.9-63c-4.3-29.6-8.3-59.3-9.5-89.3
	c-0.3-7.9-2-15.9-3.8-23.6c-1-4.3-3.7-3.9-7.2-1.1c-5.2,4-6.2,3.4-7.5-2.4c-1.1-5-0.3-10.7-5.1-14.4c-4.8,3-5.7,7.7-7,11.9
	c-6.5,21.7-12.6,43.5-19.4,65c-5.4,17.1-10.3,34.4-18.2,50.6c-1.8,3.6-3.8,7.2-4.5,11.1c-2.3,13.4-8.4,25.2-14.8,36.9
	c-4.3,7.8-4.9,16.5-7.1,24.9c-5.5,21.3-10.5,25.1-32.3,22.9c-22.5-2.2-45-4.9-67.5-7.5c-7.8-0.9-10.3-4.5-7.6-12.5
	c6-18.4,13.3-36.3,18.9-54.8c15.2-50.4,36.2-98.8,49.1-149.9c7-27.7,18-54.3,27.4-81.4c3-8.8,6.3-17.5,8.3-26.7
	c1.6-6.5,3.8-12.7,6.8-18.7c4.3-9,9.6-17.4,11.1-27.6c0.7-4.9,3.6-8.6,10-5.6c2,0.9,4.3,0.1,5.2-1.9c0.3-0.5,0.4-1.1,0.4-1.7
	c0.1-3.5-3.1-3.6-5.9-3.6C1385.5,2450,1384.3,2449.4,1382.3,2448.8z"/>
<path class="st16" d="M2540.4,2103.5c23.9-0.1,47.8-0.3,71.3,6.4c11.9,3.4,25.3,1.9,37.1,6.4c20.9,8,43,8,64.7,10.6
	c8,1,15.7,1,22.1,7c7,6.5,13,13.8,14.6,23.2c2.1,12.4,3.7,24.8,2.6,37.7c-3.4,41.8-11.6,82.9-18.7,124.2c-3,17.6-8.1,34.9-12.4,52.3
	c-6.5,26.3-25.3,41.3-48.4,52.3c-6,2.9-12.3,5-18.2,8c-2.5,1.3-3.1,4.4-1,6.8c2.6,3,5.6,5.7,8.5,8.4c9.8,9.2,17.2,20.3,24.2,31.6
	c5,8,4.2,18,6.4,27c0.9,3.8-0.2,8.3,1.2,11.8c9.4,23.5,3.5,47.3,1.9,71c-1.8,26-9.9,50.9-14.5,76.4c-2.1,11.6-7.1,22.7-4.5,34.9
	c-5.9,18.6-5.9,38-8.4,57c-1.5,11.8-6.1,23.1-7,35.1c-0.2,3.2-2,6.3-3.5,9.3c-1.9,3.8-4.9,6.4-9.2,6.7c-19.9,1.1-39.9,2-59.8,3
	c-1.3,0-2.7-0.2-4-0.5c-4.3-0.8-7.4-4.4-6.7-8.4c1.6-9.8,3.4-19.6,5.4-29.4c0.6-2.7,2.5-4.8,5.1-5.7c1.6-0.6,3.3-1.4,0.7-3.5
	c-6.3-5.3-3.8-12.4-2.6-18.6c2.5-13,5.4-26,8.7-38.9c1.7-6.4,2.6-13,2.7-19.7c0.1-4-0.2-8.2,0.8-11.9c7.2-27.8,7.9-56.6,13.3-84.7
	c4-21,3.7-42.3-2.3-63.3c-2.6-9-7.3-17.2-13.7-24c-9.1-10-20.1-17.4-31-25c-10.6-7.4-22.7-6.8-34.7-5.5c-3.9,0.4-5.7,3.5-6.2,6.8
	c-1.2,8.5-2.6,17.1-2.8,25.7c-0.2,8.1-1.9,15.8-3.7,23.6c-7,29.2-11,58.8-12.9,88.7c-0.1,2.7-0.3,5.3-0.7,8
	c-5.2,29.5-11,58.9-15.6,88.4c-1.5,9.6-8.7,17-7.6,28c0.9,8.8-3.3,18.2-5.2,27.3c-1.7,7.8-3.2,15.6-5,23.4
	c-3.3,14.1-7.7,17.3-22.5,16.4c-2,0-4-0.2-6-0.6c-15.6-4.4-31.6-4.4-47.5-4.9c-7.9-0.2-8.9-1.6-7.4-9.9c1.9-11.1,3.7-22.3,6.1-33.3
	c5.9-28,8.4-56.5,13.7-84.6c5.3-28.6,7.3-57.9,10.5-86.8c2-18.5,3.7-37.1,5.5-55.6c0.2-2-0.1-4.3,0.8-5.9
	c7.9-13.4,5.6-28.3,6.6-42.8c0.5-7.9,2.5-15.7,3.7-23.6c6.6-41.2,10.9-82.8,17-124c4.7-32.2,8.5-64.6,14.8-96.6
	c4.6-23.4,6.2-47.4,9.1-71.2c1.5-12.5,2.6-25.1,4-37.7c0.4-4,1.2-7.9,2.4-11.7c3.6-11.4,8.3-15,20.3-15.3
	C2515.1,2103.3,2527.8,2103.5,2540.4,2103.5z"/>
<path class="st18" d="M3213.5,2164.9c2-3.1,2.1-6.3-0.8-8.8c-2-1.7-4.6-2.6-6.8-4c-1.7-1-2.6-3.1-2.1-5.1c0.4-2.4,2.3-3.2,4.3-3.2
	c4.6-0.1,9.3,0.2,14,0.1c8.7-0.1,17.3-0.4,26-0.4c5,0,7.4,2.2,7.2,7.2c-0.4,9.2,1.6,18.7-3.4,27.3c-0.9,1.6-1.7,4.2-1.1,5.7
	c5.6,15.2-0.4,30.4,0.4,45.5c0.6,10.6-0.2,21.3-0.4,31.9c-0.1,4,0.8,8.6-2.5,11.3c-5.8,4.7-6.6,9.5-2.6,15.5
	c0.7,1.1,1.6,2.4,1.6,3.6c-1,18,4.3,35.7,1.8,53.7c-0.5,4-1.4,7.9-1.7,11.8c-1.2,17-1.3,17.1-15.9,8.7c-2,2.5,0.5,4.9,0.4,7.3
	c-0.1,2.2,1.5,3.7,3.7,3c3.3-1.1,6.8-2.1,9.4,0.4c3.1,3.1,2.3,7.7,1.2,11.4c-4.2,13.6-1.1,27.2-0.8,40.8c0.3,12,0.2,23.9-0.6,35.8
	c-1.4,20.6-1.6,41.2-1.8,61.9c-0.1,17.3-0.4,34.6-2.6,51.8c-1,8.6-1.4,17.3-1.3,25.9c0.1,26.6,0.7,53.2,0.6,79.9
	c0,11.3-2.6,22.7-1.8,33.8c2.6,36,0.4,71.9,1.1,107.8c0.2,5.3,0,10.7-0.4,16c-0.5,5.3-3.9,8.5-9,9c-8.1,0.7-15.9,0.2-23-4.6
	c-2.1-1.4-5-3.1-7.1-2.6c-17.8,4.1-35.6-1.9-53.4,0.4c-5.8,0.8-8.2-2.4-8.6-8.4c-0.3-5.4-0.3-10.5,5.2-14c3.6-2.2,2.6-5.5,0.3-8.5
	c-2.9-3.6-0.7-5.9,2.1-8.2c1.4-1.2,3.8-3.3,1.6-4.5c-6.4-3.4-4.4-8.9-4.4-14c0.1-12,0.3-24,0.3-36c0-5.7-1.2-10.7-8.3-11.4
	c-2.6-0.3-5.8-1-6.6-3.7c-3.1-10-11.7-10.2-19.4-10.5c-18-0.7-35.9-0.6-53.9-0.7c-6.2,0-9.9,3.3-11.1,9.4c-0.4,2-0.3,4.1-1,5.9
	c-1.5,3.6-2.3,7.8-6.1,9.8c-4.3,2.3-6.1-5.2-10.7-2.9c-2.2,3.9-0.2,8.3,1.4,11.2c4.3,7.7,2.5,15.3,2.6,23.2
	c0.1,8.8-7.9,15.4-5.2,24.5c2.4,8-1.2,15.7-1.8,23.6c-0.7,10.1-4,13-13.8,13.2s-19.9-0.9-29.9-1.4c-17.3-0.8-34.6-1.4-51.9-2.2
	c-7.4-0.4-9.4-2.9-7.8-10.3c2.4-11,5.4-22,8-33c10.7-46,20-92.4,32.2-138c17.7-66.3,33-133.1,48.7-199.8c4-16.9,10.6-32.8,14.6-49.5
	s7.7-33.8,13-50.2c11.1-35,16.8-71.2,23.6-107.1c4.8-25.5,7.7-51.3,11.8-76.9c1.3-7.9,3.2-15.7,5.8-23.2
	c3.4-10.1,7.1-12.2,17.9-11.6c6,0.2,12,0.7,17.9,1.7c15.7,2.9,31.8,4,47.7,3.2c18-1,31.6,7.4,45.3,16.4
	C3208,2161.8,3209.7,2165,3213.5,2164.9z"/>
<path class="st19" d="M1643.1,1567c-0.7-32,3.2-63.6,6.4-95.4c4.1-41.1,12.5-81.4,18.7-122.1c1.6-10.5,3.3-21,3.8-31.7
	c0.3-9.3,1.6-18.6,3.8-27.6c6.4-24.5,9.2-49.6,13.7-74.5c2.2-12.4,4.2-24.9,5.3-37.5c1.6-17.8,5-35.2,11.5-52.1
	c11.7-30.4,21.3-61.6,37.9-90c10.9-18.7,25.7-33.2,43-46.4c22.1-16.8,46.9-24.4,73.2-29.4c9.3-1.8,18.5-2,27.6,1.4
	c4.3,1.7,8.9,2.6,13.6,2.5c28.1-0.3,47.8,14.1,62.4,36.6c8.7,13.4,16.3,27.5,24.6,41.1c6.4,10.6,8.9,22,9.4,34.2
	c1.3,32.8-3.7,65-9.6,97.1c-6.6,35.9-14.8,71.4-18.4,108c-4.1,40.9-9.1,81.9-17.3,122.4c-2.7,13.5-5.3,27.2-7.1,40.9
	c-1.6,13.2-3.3,26.3-5.9,39.3c-5.5,27.4-11.1,54.8-16.6,82.1c-7.3,36.2-24.5,67.3-49.9,94c-3.2,3.4-6.8,6.4-10.7,8.9
	c-18.4,10.8-37.3,20.2-59.2,22c-28.6,2.3-57.2,3.5-85.5-2.9c-12.3-2.8-24.4-6.5-36.5-10c-5.3-1.5-9-5.2-12.3-9.7
	c-7.5-10.2-14.1-21-19.6-32.4c-4.2-8.4-6.3-17.6-6.2-27C1643.2,1595,1643.1,1581,1643.1,1567z"/>
<path class="st17" d="M1403,1138.9c-1.5,16.5,0.2,33.3-4.8,49.5c-0.8,2.5-0.5,5.3-0.4,8c1.2,23.4-2.9,46.4-5.6,69.5
	c-3.8,33.1-6.8,66.2-11.1,99.2c-2.8,21.8-7.3,43.3-11,64.9c-0.7,3.9-2.3,7.8-2.2,11.7c0.4,23.6-6.2,46-10.2,68.9
	c-0.9,5.2-2.5,10.5-2.4,15.7c0.2,18.9-4.9,36.8-9.3,54.8c-2.2,8.7-5.8,17.3-3.8,26.8c0.6,3-0.6,6.5-1.5,9.7
	c-6.9,25.1-19.6,48.2-37.1,67.4c-15.8,17.7-35.5,24.9-57.3,29.5c-4.5,1-9.3,0.5-13.7,0.6c-21.9,0-43,8.5-65.1,5.9
	c-18.3,5.3-37.1-0.4-55.5,2.3c-18.4,2.7-37,4.8-55.5,7.2c-1.3,0.2-2.6,0.4-4,0.6c-17,1.8-22.4,2.4-18.8-17.8
	c2.9-15,4.5-30.3,4.8-45.6c0.1-9.2,2.5-18.5,5.3-27.3c7.1-21.8,8.6-44.4,10.5-66.8c1.7-19.2,3-38.4,6.3-57.4c0.7-3.3,1-6.6,1-9.9
	c-1.2-25.3,3.7-50.1,7.4-74.9c2.4-16.5,1.6-33.3,5.9-49.5c7.1-26.5,7.1-54.1,10.8-81.1c2.5-17.8,6-35.5,7.1-53.4
	c1.7-29.2,9.3-57.7,9.5-87.1c0.1-13.2,3.1-26.4,4.7-39.6c2.4-19.8,5.4-39.5,6.8-59.4c0.7-10.1,3.1-19.7,4.3-29.5
	c0.6-4.5,2.9-7.2,7.6-7.7c4-0.4,7.9-1.5,11.9-1.4c14.8,0.6,29.1-2.2,43.5-5.4c11.7-2.7,23.9-2.7,35.6,0.2c11,2.6,22.4,3.4,33.7,2.2
	c4.6-0.4,9.7-1.3,13.9,0c23.7,7.5,48.6,7.8,72.8,12c5.9,1,11.7,2.7,17.5,4c12.8,3,22.5,11.1,32.4,18.9c6,4.7,8,12.2,10,19.2
	C1403,1094.8,1405.1,1116.9,1403,1138.9z"/>
<path class="st20" d="M2171.4,3404.2c1.5,30.5-9,59.4-20.9,87.6c-21.8,51.8-52.4,98.7-84.6,144.5c-9.1,13-19,25.7-30.9,36.6
	c-2.4,2.2-4.6,4.9-7.3,6.8c-20,14-28.2,16.3-48.1,0.8c-11.7-9.1-22.4-19.2-31.1-30.9c-26.6-35.9-49.9-73.8-71.8-112.8
	c-14.4-25.6-27.1-51.9-35.7-80.1c-5.5-17.9-9.5-36.3-9.5-54.8c0-47.3,23-80.9,65.4-101.1c21.1-10.1,43.7-15.3,67.1-17.9
	c14.6-1.6,29.1-3.6,43.7-2.9c34.1,1.6,67.7,6,99,20.3c24.8,11.4,45.1,28.2,56.7,53.8C2169.4,3366.8,2171.5,3381.6,2171.4,3404.2z"/>
<path class="st21" d="M2546.5,2345.8c3.8-21.2,3.1-46,10.1-69.8c5.2-18.1,5-36.8,6.7-55.2c0.6-6.6,1.2-13.2,3.7-19.5
	c5.3-13.1,13.2-18.7,27.4-18.6c4,0,8.3,0,11.8,1.5c26.9,11.2,48,27.5,53.5,58.8c3.5,19.9,4.5,39.3-0.8,59.1
	c-2.6,9.6-3.2,19.6-5.4,29.3c-1.6,7.1-4.1,14-6.2,21c-2.8,9.4-9.1,15.4-17.4,20.6c-17,10.5-34.6,16.4-54.7,14.2
	c-5-0.5-9-1.3-11.1-6.5c-0.7-1.7-2.2-4.4-3.4-4.5c-16.1-1-13.6-13.1-14.1-23.3C2546.4,2351.5,2546.5,2350.2,2546.5,2345.8z"/>
<path class="st21" d="M3143.3,2416.5c5.4-1.1,6-5.6,7.7-8.9c1-2,2.3-3.2,4.4-2.8c2.3,0.4,2.9,2.6,2.9,4.6c-0.1,17.9,0.7,36-0.7,53.8
	c-3.1,38.5-3.7,77-3.9,115.6c0,10,0.4,19.9-1.9,29.8c-2.4,10.4-5.3,13.3-16,13.9c-9.9,0.6-19.9,0.8-29.9,1c-7.3,0.2-14.8,0.7-18-8.3
	c-1.3-3.6-5.4-3.1-8.4-4.3c-7.1-2.6-8.7-4.9-7.1-11.9c4.2-18.8,8.8-37.5,13.4-56.2c4.2-17.4,8.7-34.8,12.8-52.3
	c2.6-11.7,6.2-23.1,10.8-34.1c8.5-19.5,16.1-39.4,24.1-59.1c0.6-1.9,1.3-3.7,2.2-5.5c0.7-0.9,1.9-1.4,3-1.2c1.1,0.3,2.6,1.6,2.7,2.6
	C3142.2,2400.8,3142.7,2408.6,3143.3,2416.5z"/>
<linearGradient id="SVGID_13_" gradientUnits="userSpaceOnUse" x1="1815.7184" y1="2458.6567" x2="1815.7184" y2="2819.9744" gradientTransform="matrix(1 0 0 -1 0 4020)">
	<stop  offset="8.219692e-02" style="stop-color:#2D097F"/>
	<stop  offset="0.1387" style="stop-color:#2F298D"/>
	<stop  offset="0.2162" style="stop-color:#314E9C"/>
	<stop  offset="0.3005" style="stop-color:#336DAA"/>
	<stop  offset="0.3917" style="stop-color:#3487B5"/>
	<stop  offset="0.4923" style="stop-color:#369ABD"/>
	<stop  offset="0.6073" style="stop-color:#36A8C3"/>
	<stop  offset="0.7495" style="stop-color:#37B1C7"/>
	<stop  offset="1" style="stop-color:#37B3C8"/>
</linearGradient>
<path class="st22" d="M1732.7,1583.9c0.4-37.1,2.5-67,6.9-96.6c5.5-36.8,9.7-73.9,16.5-110.5c4.5-24.3,6.9-48.7,10.2-73.1
	c2.6-19.1,6.1-38.1,9.4-57c7.1-40,13.7-80,22-119.8c3.5-16.8,9.8-33.2,16.7-49c9.9-22.7,26.5-28.9,52.9-20.6
	c11.8,3.7,19.7,13.4,29.5,20.1c2.3,1.6,2.3,4.7,1.3,7.3c-2.7,7.1-1.7,14.3-0.9,21.7c2.4,22.1-0.4,43.9-3.9,65.6
	c-3.1,19.2-4.5,38.4-5.3,57.7c-1.8,42.1-9.2,83.3-16,124.7c-5.7,34.8-11.8,69.5-17.7,104.2c-0.6,4-1.3,7.9-2.3,11.8
	c-5.7,19.9-7,40.6-9.3,61c-2.1,17.8-4.3,35.6-11.1,52.5c-5.3,13.4-11.8,25-26.6,30.3c-8,2.8-14.3,9.5-23.1,11.5
	c-8.3,1.9-15.8,1.5-22.5-4.2c-2.5-2.2-4.9-4.9-7.8-6.2C1734.1,1607.7,1733.1,1592.2,1732.7,1583.9z"/>
<linearGradient id="SVGID_14_" gradientUnits="userSpaceOnUse" x1="1227.66" y1="2359.7021" x2="1227.66" y2="2641.4146" gradientTransform="matrix(1 0 0 -1 0 4020)">
	<stop  offset="8.219692e-02" style="stop-color:#2D097F"/>
	<stop  offset="0.2994" style="stop-color:#2F2D8F"/>
	<stop  offset="0.78" style="stop-color:#3589B6"/>
	<stop  offset="0.9897" style="stop-color:#37B3C8"/>
</linearGradient>
<path class="st23" d="M1303.2,1170.7c-1.7,17.9-3.3,35.8-5.1,53.6c-3.1,29.7-9.8,59.1-9.3,89.2c0.2,1.3,0,2.7-0.4,3.9
	c-8.4,17.9-7.6,37.7-11.6,56.5s-6.2,38.1-9.1,57.2c-1.9,12.5-6.6,24.6-5.9,37.4c0.7,13.4-4.8,25.7-5.8,38.9c-1,12.6-3.5,25-5.6,37.5
	s-5,24.8-7,37.2c-2.6,15.9-10,28.8-22.7,38.6c-4.8,3.6-9.9,6.7-16.5,3.9c-5.8-2.5-10.2,1.8-15,3.6c-4.5,1.8-8.8,3.3-13.5,1.4
	c-3.7-1.5-8-3-8-7.8c0-7.6-4.8-9.9-10.7-12.3c-3.8-1.5-6.2-4.9-4.1-9.6c4.9-11.2,5.8-23.3,6.7-35.1c1.9-26.6,8.1-52.6,8.6-79.3
	c0.2-7.9,2.1-15.8,3.5-23.6c3.4-19.7,7.2-39.2,6.8-59.3c-0.1-7.3,0.7-14.6,2.2-21.8c6.7-32.7,10.5-65.7,13.9-98.8
	c2.5-24.4,7.3-48.7,11-73c0.6-3.9,1.4-7.9,1.8-11.8c2.5-25.8,7.6-51.3,8-77.3c0.1-9.7,2.6-11.7,12-11.6c6.7,0,13.3,0.2,20,0.6
	c3.3,0.1,6.6,0.6,9.8,1.6c15.3,5.6,27.6,15.7,38,27.9c4.5,5.1,6.9,11.7,6.8,18.5c-0.1,4.7,0.4,9.3,0.6,14h0.6L1303.2,1170.7
	L1303.2,1170.7z"/>
<radialGradient id="SVGID_15_" cx="2196.0635" cy="8496.1963" r="74.41" gradientTransform="matrix(2.7 0 0 -0.54 -3927.0002 8365.3906)" gradientUnits="userSpaceOnUse">
	<stop  offset="0.35" style="stop-color:#000000;stop-opacity:0.2"/>
	<stop  offset="1" style="stop-color:#FFFFFF;stop-opacity:0"/>
</radialGradient>
<ellipse class="st24" cx="2001.6" cy="3775.9" rx="271.2" ry="70.3"/>
</svg>
