<svg id="Camada_1" data-name="Camada 1" xmlns="http://www.w3.org/2000/svg" xmlns:xlink="http://www.w3.org/1999/xlink" viewBox="0 0 4019.23 4019.34"><defs><style>.cls-1{fill:#53352d;}.cls-2{fill:url(#Gradiente_sem_nome_161);}.cls-3{fill:#786662;}.cls-4{fill:#725f54;}.cls-5{fill:#b1a8a5;}.cls-6{fill:#afa8a6;}.cls-7{fill:#fefbfa;}.cls-8{fill:#fffcfb;}.cls-9{fill:#fffcf9;}.cls-10{fill:#fefcfa;}.cls-11{fill:#fffcfa;}.cls-12{fill:#fffdfc;}.cls-13{fill:#bfaea4;}.cls-14{fill:#786763;}.cls-15{fill:#796965;}.cls-16{fill:url(#Gradiente_sem_nome_141);}</style><radialGradient id="Gradiente_sem_nome_161" cx="2009.61" cy="2009.67" r="1887.21" gradientUnits="userSpaceOnUse"><stop offset="0.71" stop-color="#fff"/><stop offset="0.83" stop-color="#fefdfd"/><stop offset="0.88" stop-color="#f9f7f6"/><stop offset="0.92" stop-color="#f0ece9"/><stop offset="0.95" stop-color="#e3dcd8"/><stop offset="0.98" stop-color="#d4c8c1"/><stop offset="1" stop-color="#c0afa6"/><stop offset="1" stop-color="#bfaea4"/></radialGradient><radialGradient id="Gradiente_sem_nome_141" cx="212.73" cy="2220.47" r="74.41" gradientTransform="translate(1428 2578.39) scale(2.7 0.54)" gradientUnits="userSpaceOnUse"><stop offset="0.35" stop-opacity="0.2"/><stop offset="1" stop-color="#fff" stop-opacity="0"/></radialGradient></defs><path class="cls-1" d="M282.7-1586.71c42.83,2,96.86,1.53,150.67,6.74,19.89,1.93,39.92,2.51,59.79,4.57,23.16,2.41,46.31,5.28,69.33,8.83,30.89,4.77,61.81,9.63,92.45,15.78,67.3,13.52,133.77,30.39,199.64,49.8,79.42,23.4,156.6,52.76,232.32,85.93,59.24,26,116.56,55.83,173.15,87.19,61.31,34,120,72,177.28,112.25,63.31,44.48,123.32,93.17,181,144.79C1691.52-1005.35,1759-934.44,1822-859.21c45.42,54.23,86.87,111.43,125.87,170.39,53.41,80.73,101.27,164.65,142.42,252.28,48.8,103.94,90,210.71,119.42,321.93,12.42,47,24.7,94,34.24,141.69,12.42,62.07,21,124.73,28.68,187.56,13.08,107,10.33,214.27,7.78,321.55-.59,24.59-3.93,49.15-6.64,73.65-4.55,41-8,82.22-14.82,123-1.42,8.54-2.6,17.12-4.16,25.63-11.54,62.85-23.53,125.6-40.35,187.32-37.1,136.13-87.08,267.31-151.91,392.66-51.24,99.06-110.85,193-177,282.78-70.58,95.86-149.89,184-236.69,265.16-90.23,84.39-187.28,160.45-292,226.17-77.94,48.89-157.33,95.4-241.12,133.82-101.94,46.76-206.47,86.34-314.94,115.42-53.46,14.33-107.3,26.93-161.63,37.13-40.53,7.61-81.4,13.43-122.42,18.24-35.73,4.19-71.61,6.57-107.33,10.67-2,.23-4,.45-6,.49-57.29,1.36-114.53,6.15-171.89,3.54-47.26-2.15-94.59-3.72-141.71-7.74-43.73-3.74-87.4-9.18-130.76-16-80.32-12.64-159.39-31-237.71-53.06-110.06-31-216.12-72.13-318.73-122.17-103.23-50.35-201.36-109.32-295.24-175.65-118.7-83.87-225.33-180.94-323.64-287.69-70.22-76.25-131.56-159.14-189.13-245.12a1915.34,1915.34,0,0,1-152.29-274.11,1968.57,1968.57,0,0,1-106.83-294.72,2147.2,2147.2,0,0,1-47.39-218.74c-6.36-38.73-10.66-77.79-14.33-116.94-5.16-55.13-8.19-110.31-9.68-165.61-1-37.33-1.35-74.64,1.13-111.95,2.17-32.57,3-65.25,6.09-97.72,3.84-40.4,8-80.77,14.33-120.92C-1707.31,79-1700,34.39-1690.25-9.83A2080,2080,0,0,1-1634-213.94a1938.51,1938.51,0,0,1,151.66-343.2c62.65-111.18,134-216.44,216.31-314.09,99.66-118.21,211-224.12,335.26-316.16a2057.93,2057.93,0,0,1,295.57-182.77c70.81-35.84,142.87-68.7,217.54-95.75a2028.88,2028.88,0,0,1,231.8-68.5c36.3-8.44,72.61-16.81,109.5-22.34,32.9-4.92,65.88-9.35,98.73-14.57,34.26-5.45,68.81-8,103.34-10.47C174.27-1585.25,222.92-1586.64,282.7-1586.71Z" transform="translate(1736.71 1586.71)"/><circle class="cls-2" cx="2009.61" cy="2009.67" r="1887.21"/><path class="cls-3" d="M97.79,621.76c-2.45-15.85,4.26-26.44,2-37.82,9.22-14.94,9.55-32.68,15.3-48.72,1.33-3.7,3.42-8,2.61-11.44-3.31-14,2.24-27.7.24-41.5-1.36-9.43,3.31-15.53,11.16-19.13,14.49-6.66,29.1-13.54,45.41-14,11.09-.34,22.2-4.63,33.33-.18a3.86,3.86,0,0,0,2-.11c29.07-5.57,58.13-.51,87.18.35,8,.24,15.93.68,23.89-.48,3.28-.47,7-1.43,9.91-.48,13.71,4.44,27.47,3.37,41.41,1.91,4.53-.47,10.11-.75,13.67,1.41,8.22,5,16.3,4.33,25,2.87a37.34,37.34,0,0,1,13.82-.05,46.33,46.33,0,0,0,29.15-2.65c1.21-.52,3.14-1.44,3.77-.94,9.85,7.74,21.89-.14,32,4.64a21.72,21.72,0,0,0,11.7,1.62c10-1,19.73-2,29.38,2.42,2.66,1.22,6.5,0,9.78-.31,12.31-1.21,16.58.46,26.74,10.4,1.36,1.32,3.2,3,4.88,3,9.42.37,10.07,6.67,10.1,13.81,0,10-.3,19.88-3,29.71-3.15,11.55-5.41,23.35-7.78,35.1a75,75,0,0,0-2,15.8c.16,10.07-1.65,19.43-4.43,29.22a200.84,200.84,0,0,0-7.21,45.2c-.61,12.89-3.68,25-6.73,37.19-6.2,24.86-6.44,50-3.93,75.3.25,2.47,2.67,5.16-.07,7.15-10.93,7.91-5.18,21-9.9,30.82.25,27.9-4.4,55.4-6.73,83.09a26.12,26.12,0,0,1-1.07,5.89c-8.56,26.38-6.35,53.82-8.16,80.88-.71,10.56-2.66,21-4.11,31.55-2.82,20.43-5.72,40.85-8.53,61.28-.36,2.61-1.26,5.51-.52,7.84,3.18,10.08.25,19.73-1,29.62-1.11,8.92-4.87,17.29-1.48,27.24,2,6-3.45,14-3.25,21.12.39,13.58-2.54,26.38-6.06,39.23-3.64,13.31-4.06,27-4.7,40.67-.12,2.59.18,5.5-.87,7.72-9.12,19.33-9.62,40.07-8.84,60.62.81,21.08-6.39,40.6-9.27,60.93-.72,5-5.67,7.07-9,10.26-3.95,3.83-7.85,3.22-12.73,1.51-6.82-2.39-14.44-.9-21.4-4-5.33-2.37-10.34,1.14-15.19,3.21-12.81,5.43-25.58,10.77-39,14.81-6.16,1.86-12.17-3.53-17.17,1.1s-8.94,5.16-12.66-1.14c-2.7-4.57-6.33-5.49-11.77-4.84-8.35,1-17-.85-25.07,3.24-2.1,1.06-5.23.71-7.74.25-12.83-2.35-25.07-.12-37.41,3.44-11,3.19-21.93-.54-32.74-2.68-1.2-.24-2.13-1.62-3.32-2.17-7.78-3.55-15.65-9.92-23.4-9.8-10.94.17-22.41,1.18-33.28,4.84-21.09,7.1-42.79,7.61-64.44,3.37-8.12-1.59-15.61-3.38-22.74,2.21-19,2.67-37.5,8.66-57,7.58-3.47-.19-6.42-1.4-8.36-4.54-1.75-2.81-3.34-6.55-6.76-6.91-10.59-1.13-12.35-8.82-13.34-17-1.45-11.93-1.76-23.82,1.17-35.7,2.87-11.64,4.59-23.5,3.84-35.58a63.56,63.56,0,0,1,1.64-19.8c1.13-4.49,2.29-9.34,1.73-13.82-2.09-17,4-32.68,6.36-49,2.18-15,7.42-29.53,6.07-45.06-.87-10,3.42-19.46,4.08-29.53,1.51-23.19,2.91-46.7,8-69.27,4.26-19,5.14-38.13,8.58-56.95,2.88-15.71,3.08-31.64,6-47.13,4.32-22.9,5.54-46.05,8-69.09,1-9.23,4.48-18.06,3.79-27.59-.22-3,1.77-6.22,2.93-9.28s2.88-6,3.81-9.13c2.11-7.21-.38-14.42-.31-21.49.05-5.85,7-10.9,5.59-18.19-3-15.32.87-30.09,3.6-45,2.5-13.66,5-27.34,7.12-41.07,2-13.12,3.47-26.33,5.29-39.49,1.23-8.94,1.45-17.5,7.53-25.88C98,637.23,99.31,626.82,97.79,621.76Z" transform="translate(1736.71 1586.71)"/><path class="cls-3" d="M-817.88,1380.71c-9.13-4-18.23-8.4-28.28-2.86-3.27,1.8-6.3.64-9.59.15-5.9-.87-12.26-1.76-17.39,2-4.61,3.35-7.77,3.12-12.12-.5-14.11-11.76-30-7.75-45.35-3.53-4.21,1.16-7.95,4.77-12.84,4.36-16.55-1.38-33.25,2.16-49.71-1.37-3.38-.72-6.5-1-9.68.45a29.94,29.94,0,0,1-15.65,2.39c-7.55-.76-14.81,1-21.47,3.64-12.28,4.85-24.88,3.33-37.4,3.71-3.67.11-6.21-2-7.07-5.73-1.1-4.84-4.91-5.28-9-6.24-7-1.67-7.71-2.94-7.16-9.18,2.53-28.36,4.46-56.79,7.9-85,2.1-17.24,3.44-34.3,1.53-51.57-.28-2.56-.46-5.52.51-7.76,8.32-19.14,4.28-39.18,4.48-58.88.05-4.62-.89-9,1.13-13.63,5.2-11.86,4.72-24.56,4.46-37.15-.21-10-.51-19.83,1.4-29.75a78.86,78.86,0,0,0,1.31-19.87c-1.35-20.14,1.82-39.82,5.71-59.36a88.84,88.84,0,0,0,2-19.76c-.67-25.48,2.83-50.41,9.11-75,1.15-4.51,2.53-9.18,2.41-13.74-.55-20.74,4-40.92,6.14-61.36.34-3.27.48-6.9,2-9.66,4.73-8.61,4.47-17.87,5-27.18s2.93-18.32,3.13-27.5c.22-9.5,2.69-18.22,5-27.27,2.44-9.54,2.48-19.76,3-29.71a109,109,0,0,1,3.29-21.44c5.58-22.56,9.37-45.5,9-68.91,0-2-.73-4.26,0-5.93,10.18-23.63,9-49.51,14.76-74,2.54-10.76,5.4-21.23,2.33-33.11-2-7.69,1.4-17,3.41-25.42a62.45,62.45,0,0,0,1.2-25.5,52.9,52.9,0,0,1,2.15-25.67c2.63-7.79,7.35-12.42,16-12.1a68.09,68.09,0,0,0,25.53-3.79c2.48-.88,5.24-1.77,7.77-1.53,15.65,1.47,29.78-4.22,44-9.3,5.5-2,10.43-1,15.56.37s10.14,2.74,15-1.55c1.66-1.45,5.09-1.47,7.64-1.24,12.1,1.07,23.72-1.37,35.25-4.48,7.77-2.11,15-3.1,23.22,0,7.29,2.77,15.65,1.93,23.69.89a94.61,94.61,0,0,1,27.81,0c5.79.95,12.25,1.1,17.81-.49,15.08-4.33,29.94-3.42,45.16-1.25,11.15,1.59,22.53,1.55,33.81,2.22,4,.24,8.19-.38,11.83.81,9.08,3,17.19.37,24.82-3.77,3-1.64,5.39-3,9-2.71,9.85.79,19.82,2.65,29.2-2.75,1.44-.83,4.24-.59,5.79.27a29.68,29.68,0,0,0,23.06,2.83c2.2-.58,5.51.6,7.51,2.07,9.09,6.69,18,13.69,26.78,20.75a5,5,0,0,1,1.14,7.12c-6.21,8.53-8,17.91-7.21,28.33.26,3.63-2.26,7.52-3.72,11.21-5.71,14.45-8.54,29.34-7.43,44.92.29,4-.26,8.09,2.05,11.63,2.93,4.5,2.92,8.73-.92,12.6-3.53,3.58-5.32,7.9-4.41,12.7,1.77,9.33-6.14,17.74-2.25,27.3.54,1.33-1,3.86-2.08,5.42-6.16,8.56-7.16,18.38-7.74,28.48a138.29,138.29,0,0,1-2.82,21.76c-1.71,7.75.24,14.24,4.55,20.43-3.07,5.67-8.74,9.53-9.35,17-2.3,28.49-9.44,56.17-14.81,84.16-2.11,11-4.15,22.23-4.2,33.36,0,8.77-1.86,17.13-2.71,25.68-1.72,17.14-2.84,34.4-8.29,51-.81,2.45-.47,5.26-.9,7.86-.93,5.47,6.7,9.21,3.38,14.74-2.44,4.06-4.67,7.79-4.94,12.72-.22,3.93-2.34,7.8-2.32,11.68.06,14.73-3.25,28.93-5.81,43.27-.36,2-1.65,4.56-.85,5.8,6,9.3-1,17.21-2.21,25.74-2.85,19.67-5.56,39.36-7.76,59.11-.72,6.44-1.34,13,2,19.51,3.78,7.49-1.58,15.45-.51,23.58,2.35,17.82-4,35.56-1.56,53.51-7.7,18.49-3.68,38.11-5.38,57.17-.47,5.35-.33,10.78-3.34,15.41a28.32,28.32,0,0,0-4.33,17.13,110.73,110.73,0,0,1-6.61,41c-4.62,13-4.5,26-4.21,39s-5.32,24.53-6.44,37.11c-.61,6.89-16.9,14.58-24.62,12.3a78.37,78.37,0,0,0-21.62-3c-12.11-.16-23.77-.14-34,8.06-5.34,4.27-12.68,5-19.19,4-21-3.18-41,1.1-60.75,7.47-4.8,1.55-11.07-.73-13.92,5.63Z" transform="translate(1736.71 1586.71)"/><path class="cls-3" d="M1182.16,236.7c-9.38-3.31-18.67-7.52-28.71-2-3.18,1.76-6.48,0-9.71-.08-6-.08-12.17-.32-17.39,3.15-4.09,2.72-7.3,2-10.69-1-14-12.31-29.81-7.87-45.46-5-7,6.83-16.17,6.4-24.46,5.37-13.85-1.73-28,3.23-41.56-2.41a2.64,2.64,0,0,0-2,0c-12.87,6.86-27.74,2.74-40.81,7.29-9.79,3.4-19.64,3-29.51,3.74-6.69.51-13.39.6-16.25-7.85-1.14-3.34-4.89-4.24-8.36-4.4-5.93-.28-8.38-3.63-7.58-9.19,4-28.19,4.32-56.74,8-84.94,2.22-17.25,3.14-34.37,1.52-51.66-.23-2.54-.53-5.5.49-7.66,5.91-12.5,4.36-25.74,5-38.9.62-13.62-3.88-27.88,4-40.83-.66-10.58,2.92-20.76,1.42-31.73-1.19-8.75-1.68-18.4,1.23-27.49a27.94,27.94,0,0,0,1-9.87c-1.33-25.46,2.76-50.37,7-75.31,1-5.86.63-12,.66-18a290.58,290.58,0,0,1,8.16-65.06c3.2-13.61,5.75-27.36,4.54-41.5a29.18,29.18,0,0,1,.1-8c2.58-13,5.08-26,7-39.11,1.18-8.18,5.05-16.31,4.91-25-.09-6,2-12,2-17.53-.06-22.14,8.72-42.89,8.92-64.83a141.75,141.75,0,0,1,4.71-33.27c3.72-14.83,5.36-30,7.44-45.14,1.35-9.79-3.26-20.3,2.77-29.22s4.53-19.29,6.08-29c2.86-17.69,4.9-35.49,9.61-52.84.69-2.53,1.6-5.52.89-7.83-4.74-15.54,1.33-30.1,3.36-45,.89-6.53.44-13.23.67-19.86.28-8,0-16.05,1.16-23.89,1.28-8.39,6.45-12.21,15.45-12.14,9.38.07,18.51-.74,27.41-3.84,2.48-.86,5.25-2.07,7.67-1.71,14.45,2.2,27.12-5,40.68-7.33,2.58-.45,5.18-2.24,7.58-1.92,10.62,1.42,20.85-1.65,31.09-2.13,14-.65,27.43-3.28,41-5.63a40.61,40.61,0,0,1,17.56.49c9.63,2.38,19.19,3.81,29.35.66a34.9,34.9,0,0,1,21.69.32,27.63,27.63,0,0,0,17.63.34c22.37-6.6,44.85-2.53,67-.19,11.82,1.24,23.7.31,35.45,2.43,4.35.79,9.85.48,13.26-3.06,4.89-5.07,10.72-4.65,16.67-4.33,7.21.37,14.38,2.22,21.32-2.08,1.87-1.16,5.53-.9,7.7.13,7.4,3.48,14.31,6.32,22.7,2,3.48-1.78,7.65,1.45,10.88,3.78,5.94,4.27,11.74,8.75,17.51,13.26,9.44,7.39,9.34,7.45,4.12,19.43-1.3,3-3,6.31-2.75,9.37.69,10.39-3.1,19.57-6.37,29-4.17,12-6.74,24.34-5.77,37.23.4,5.28-.37,10.7,2.89,15.44,1.62,2.35,2.31,5.25.6,7.46-9.6,12.4-6.85,27.62-9.87,41.51-.7,3.2-.52,6.86-2,9.58-9.9,17.74-6,37.89-10.15,56.62-.47,2.11,1.1,5.28,2.69,7.13,3.57,4.17,2,7.15-1.36,10-3.83,3.28-4.65,7.59-5.41,12.38-4,25.58-7.88,51.21-12.94,76.6-3.24,16.25-4.61,32.6-6.63,48.95-2.52,20.35-2.68,41.14-9,61-1.39,4.39-3.71,10.08-2.09,13.51,4.88,10.35,0,19.1-2,28.53a164.93,164.93,0,0,0-3.11,23.66A119.1,119.1,0,0,1,1400-205c-1.92,8.86-5.3,18.12-1,27.36,1.61,3.5-.46,6.14-1.45,9.28-2.59,8.21-5.09,16.58-6.31,25.08-2,13.71-2.88,27.56-4.22,41.36-.7,7.24-2,14.35,1.58,21.49s-1.3,14.25-.62,21.63c1,11.14,1.1,22.38-1.5,33.52-1,4.44-.43,9.27-.42,13.93,0,2.64,1.29,5.67.39,7.87-7.36,18-3.89,36.8-4.77,55.26-.29,6-.2,12.07-3.77,17.28-4.83,7.06-5.3,15.17-4.73,23.09.83,11.52-.81,23.23-5.1,33-5.62,12.86-5.78,25.89-5.17,38.55.68,13.91-5.2,25.95-6.68,39.09-.77,6.73-15.08,14.59-22.41,12.93-7.82-1.77-15.47-3.34-23.61-3.3-12,0-23.42.26-34.12,7.81-8.4,5.93-19.22,5.46-29.11,3.65-10.89-2-21,.08-31.4,2.72-9,2.3-18.19,4-27.19,6.31-2.37.62-4.36,2.71-6.53,4.13Z" transform="translate(1736.71 1586.71)"/><path class="cls-3" d="M779.24,248.63c-8.62-.64-17.25-1.26-25.87-1.94-2.64-.21-5.49-1.43-7.88-.8-21.4,5.6-42.27-3.06-63.5-2.13-5.14.22-10.9-3.83-15.47-2.59-13.95,3.78-27.45-.45-41.13-.52-3.93,0-5.89,2.22-8.27,4.56-1.62,1.59-3.79,1.41-4.26-1.13-.67-3.59-1.65-6.93-6-6.12-17.64,3.3-34-2.56-50.68-6.54-8.52-2-16-2.58-24.82,1.55-9.07,4.22-19.37,9.34-30.48,5.19-12.75,5.45-26.23,3-39.42,3.69-2.66.13-5.62-.31-7.9.72-15.86,7.15-32.55,5.56-49.17,5.31-9.32-.14-18.65.09-28,.33-5.61.15-10.58-1-14.35-5.48-3.54-4.17-8.57-6.2-12.86-9.28-8-5.76-12.22-13.87-11.81-24a37.67,37.67,0,0,1,.31-4c4.79-32.18,8.11-64.6,15.91-96.27.95-3.86,2.28-7.63,3.6-11.39.66-1.87,1.7-3.61,2.54-5.42,4.23-9.21-.14-18-.86-27-.71-8.76,9.73-16.26,4.72-26.46a9.33,9.33,0,0,1-.88-5.8c5-21.83,4-44.6,10.21-66.24.55-1.9,1.62-4,1.32-5.76-2-12.19,2.2-23.59,4.51-35.13a116.28,116.28,0,0,0,2.46-23.54c0-9.94.73-20.13,6.17-29,4.07-6.61,4.22-14.38,4.13-21.14-.13-10.42,1.81-19.55,6.81-28.41,2.82-5,3.74-9.93-1.56-14.27-2.41-2-2.17-4.55-.41-7,6.82-9.71,5.18-22.69,12.58-32.34,1.72-2.25,2-6.68,1.14-9.63-2.67-9.72.85-19.82-2.46-29.44-2.17-6.3,1.81-11.64,3.68-17.19,3-8.79,7.14-17.12,3.11-26.91-1.89-4.57.91-9.06,3.51-13,3.49-5.33,5.09-10.76,1.7-16.84-2.26-4-.47-7.67,1.64-11.21,3.17-5.29,2.82-11.48,4.32-17.05,1.72-6.38-5.4-12-.87-16.95,4.37-4.78,1.58-10.23,3.51-15,2.32-5.74,1.85-11.75,1.36-17.75-.16-1.91-1-4.58,0-5.62,4.3-4.84,6-9.79,4.28-16.34-1.28-4.92,1.68-9.73,1-15.36-.8-6.5,3.34-13.35-1.09-20.39-1.63-2.59.27-6.92,3.06-8.88,6-4.2,5.9-10.2,5.36-16.15-1.15-12.71.27-42.47,3.33-52.59,2.14-7.06,4-13.74,2-21.43-1.71-6.51,1.22-13.15,3.34-19.43,4.09-12.1,5.24-24.26,4.93-37.14-.31-13.13,2.07-26.46,4.45-39.48,1.66-9.11,5.31-17.82,5.63-27.28.16-5,3-8.74,6.95-11.6,2.8-2,6.13-3.61,8.56.07,2.56,3.85,5.85,5,10.12,4.81,8.62-.27,17.36,1.61,25.82-1.18,5.57-1.83,10.21-1.75,14,3.69a4.4,4.4,0,0,0,7,.18c6.31-8.86,14-6.23,20.37-1.62s11.69,5.37,17.76.26c1.4-1.19,3.71-3,4.86-2.52,8.14,3.12,15.74.88,23.4-1.54,3.79-1.2,6.23,1.13,8.8,3.27,2.1,1.75,5.16,3.69,7.21,2,8-6.68,14.28.12,21.24,1.94,13.85,3.63,27.48,5.1,40.18-3.93,3.9-2.77,8-2.91,13.1-1.9,17.73,3.49,35.82.75,53.75,1.44a15.17,15.17,0,0,0,7.59-2c12.5-7.09,24.41-3.91,36.11,1.85,5.45,2.69,10.06,3.92,16.79,2.21,8.71-2.21,18.51-1.6,27.59-.35,5.93.82,11.47,2.91,17.46.58,1.15-.45,3.19-.68,3.83,0,6.2,6.27,13.22,4.17,20.39,2.57,7-1.57,14.62,1.22,21.23-3.7,2.07-1.55,5.31-.47,7.21,1.7a44.82,44.82,0,0,0,13.77,10.82c8,4.14,10.42,13.33,13.38,21.49,2.34,6.44-.79,11.61-3.66,16.92-2.53,4.69-5.83,9.53-5,14.93,1.58,10.49-1.22,19.5-6.24,28.53-3.58,6.43-4.65,13.95-4,21.33.5,5.94.68,11.65-.6,17.58-1,4.4-1.3,9,.43,13.74s-5.39,6.73-5,12-1.18,10.45,4.13,14.42c4.12,3.08,2.93,7-.18,10.26-6,6.3-7,13-5.61,21.86,1.7,10.83,3.77,22.39-1.78,33.14,7.44,8.29-.87,15.42-1.73,23.09-.07.61-.63,1.16-1,1.74-2.08,3.7-2.61,7.24-.22,11.21,3.36,5.57,3.38,11.19-.53,16.81-4.72,6.8-5.2,14.93-6.69,22.77-.81,4.22-.84,8.08,2.15,11.19,4.78,5,3.67,9.36-.4,14-2.67,3-3.74,6.79-5,10.66-2.76,8.56-.38,17-.79,25.46s-5.28,16.47.41,25.12c2.63,4,.25,9.06-2.49,13.07-3.53,5.16-4.84,9.21-.86,16,4.34,7.38,2.4,16.69-3.6,23.93-1.68,2-4.13,3.44-5.78,5.49-2.46,3-2.47,6.25,1.45,8.06,5.76,2.67,6.16,6.58,2.83,11.16-4,5.45-8.3,10.44-4.61,18,2,4-.67,8-2.42,11.32a63.56,63.56,0,0,0-7.17,26.7c-.62,15.43-7,29.73-6.81,45.08-9.28,16.33-4.53,35.14-9.25,52.28-2.47,9-4.83,18-6.93,27-1.22,5.25-2.1,11,3.43,14.43,4.66,2.91,5.72,5.6.65,8.49-3.93,2.24-5.16,5.41-6.12,9.52-2.1,9-4.88,17.76-7.33,26.63-.35,1.27-1.07,3-.53,3.86,6.59,9.87-.48,16.55-4.53,24.68-4.35,8.75-3.39,19.06-3.29,28.83,0,3.29,1.11,6.81.26,9.82a72.79,72.79,0,0,1-6.22,14.68c-3,5.48,3.4,10,.9,15.35-4.68,10-1.67,21.14-4.32,31.45-1.1,4.32-.2,7.79,3.08,10.79,3.78,3.45,3.68,6.83-.72,9.61-4.76,3-6,6.93-3.4,11.86,1.11,2.08.86,4.09-.59,5.34-7.49,6.42-3.56,16.4-7.73,24.1-2.29,4.24-1,10.43-1.25,15.74-.09,2,.07,4,.08,6,.13,23.93-.39,24.45-24.46,24.52h-6Z" transform="translate(1736.71 1586.71)"/><path class="cls-3" d="M-138.9,1393.48c-8.66,0-17.33.08-26,0-4.65-.06-9.64.57-13.9-.86-12.93-4.34-26-4.5-39.41-3.79-4.54.24-9.19-1-13.75-1.71-2-.33-3.83-1.91-5.67-1.79-14.87,1-28.7-2.48-42.28-8.29-3.32-1.42-7.86-.49-11.75,0-6.57.89-13.29,1.64-19.56,3.67-13.5,4.36-27.19,4.92-41.15,4.08-3.89-.23-8.27-.47-9.91,4.52a2.93,2.93,0,0,1-4.68,1.65c-9.61-7.48-19.9-1.92-29.82-1.66-5.15.14-10.1,2.74-15.35-.6-2-1.27-5.35-1.48-7.72-.84-14.93,4.08-30.54.86-45.51,4.5a52.16,52.16,0,0,1-11.94,1q-41.94.18-83.88.17c-5.45,0-10.7,0-12.2-7.19-1.06-5.06-5.66-4.73-9.58-5.18-4.94-.58-6.9-3.76-6.34-8.3.48-3.93,1-8.1,2.66-11.6,6.5-13.52,6.15-28.27,7.51-42.57.55-5.78-3.13-11.74.94-17.86,1.39-2.08-1.49-4.73-3.47-6.57-3.84-3.55-3.84-6.87,1.17-9.1,3.92-1.74,7.08-4,7.18-8.55.24-11.3,7.57-21.51,4.91-33.29a7.18,7.18,0,0,1,1.61-5.47c4.06-4.57,4-9.53,2.59-15a29.3,29.3,0,0,1,2.21-21.15c3.28-6.87,3.76-15.13,5.12-22.84.87-4.93-1.82-8.88-4.34-12.9-1.91-3-1.84-6.74,1.22-9,5-3.63,6.15-8.43,5.52-14a67.74,67.74,0,0,1,.56-17.87c.48-3.19-.9-6.62-.64-9.89.36-4.7-5.74-5.77-5.26-10.13.55-5.06,6.51-3.62,8.77-7a23.8,23.8,0,0,0,3.85-15.18c-.64-12-.4-24,2-35.81,4.18-20.79,4.12-41.94,6.23-62.9.6-5.93,1.92-11.79,2.4-17.72.64-7.89,2.15-16.08.73-23.66-1.27-6.83-1.12-13.44,1.07-19.19,2.66-7,2.58-12.21-1.7-18.35-3-4.33-1.72-6.36,3.66-9.08,1.75-.88,3.88-1,5.54-2,2.51-1.49,3.55-3.84,2-6.68a17.32,17.32,0,0,0-2.35-3.2c-2.56-3-7.16-6-5.24-10,3-6.22-1.07-15.47,8.19-19,3.55-1.36,4.91-4.58,3.45-8.14-4-9.61-2.61-18.2,4.24-26a3.21,3.21,0,0,0,.88-1.76c.5-14.65,6-28.32,8.29-42.62a9.93,9.93,0,0,0-1.45-7.58c-4.54-6.44-5.25-11.94,2.81-16.29,3.13-1.69,4.2-5,4.39-8.49.33-6,1.51-12.08.71-17.92-1.31-9.53-1.86-18.41,5.77-25.8,2.8-2.72,2.38-6.21.85-9.24-2.78-5.52,2.23-11.91-2.22-17.22-.43-.52.52-3.27,1.06-3.35,8.45-1.22,6-7.06,5.24-12.09s1-9.17,3-13.42c1.68-3.6,3.39-7.17,5.11-10.75,3.91-8.16,5.71-16.22-.42-24.25-2.54-3.33-1.45-6.69,1.86-8.35,6-3,7.95-7.88,9.6-14,1.45-5.4-7.76-9.09-1.54-14.17,4.29-3.5,2.9-8.59,4.28-12.87,1.61-5,2.48-10.17,3.68-15.26,2.27-9.71,5.1-19.21,1-29.35a19.11,19.11,0,0,1,.43-15.62c4.19-8.37,4.08-16.76.52-25.09-2.41-5.64-1.37-10.26,2.32-14.78,2.94-3.62,5.5-7.56,8.53-11.08,5.79-6.73,10.84-11.91,21.93-7,7.87,3.5,18.26,1.13,27.34,3.76,1.94.56,4.67-1.81,7.08-2.72s5.14-2.76,7.35-2.32c18.28,3.6,36.75-4.05,55,1.28,4.66,1.36,9.21-1.34,13.27-3.42,13.82-7.09,27.56-9.49,41.79-1.21a10.7,10.7,0,0,0,5.75,1.29c19.78-1.29,39.76,2.27,59.38-2.09a13.72,13.72,0,0,1,11.28,1.85c16.79,11,34.21,8.92,51.14,1.33,5-2.25,8.11-2.38,12.47.15,2.93,1.7,7.18,1.92,9.37-.67,4.79-5.67,9.62-5.44,15.8-2.69,5.46,2.43,11.63,3.83,17.51,2.42,3.77-.91,6.13,0,9,2,5.51,3.92,11.93,4,16.34-.61C-66.7,437.1-62,438-58,436c3.66-1.84,6.41-.67,8.38,2.55,3.08,5.06,6.89,6.2,11.32,2,3.84-3.65,8.17-4.58,12.84-2.76,10.45,4.05,21.13.67,31.66,1.43,2.93.21,5-1.14,7.3-2.49,8.83-5.16,8.87-5.12,14.66.58,2.33,2.3,4.56,5.39,7.42,6.33,10.4,3.43,12.6,11.13,11.5,20.51-2.69,23.05-4.88,46.16-12,68.5-2.57,8.07-4.07,16.56-2.9,25.51,1.29,9.85,1.13,19.93-4.37,29.1a13.14,13.14,0,0,0-1.57,7.67c1.63,14.87-3.57,28.85-5.14,43.29a33,33,0,0,1-5,14.54c-3.34,5.43-7.33,12.94-.23,19.61a6.46,6.46,0,0,1,1.33,7.45,52.94,52.94,0,0,1-6.69,9.76c-3.17,3.81,2.39,6.78.43,10.75-4.11,8.32-7.5,24.31-6.43,30.21.5,2.78-.12,5.11-.49,7.7C2.39,749.84-2.67,761.16.79,773.3c.27,1-.53,2.47-1.23,3.43-6.73,9.16-8.1,19.19-4.94,29.94,1,3.39,1.14,6.65-1.38,9.34-5.12,5.47-6.07,11.6-3.5,18.47,2.3,6.17,1,11.67-2.84,16.9-2.88,3.91-4.14,8.49-2.71,13.25,5.19,17.3-2.59,32.56-8.19,47.82-3,8.29-7.64,15.55-1.63,24.08-4.15,7.49,2.17,14.72.52,22.63-.84,4,1.8,8.2-3.7,11.11-4.69,2.49-5.83,7.35-3.94,12.17,4.15,10.57,2.42,20.4-1.12,30.89-2.18,6.47-3.3,13.71-1.08,21.31a46.66,46.66,0,0,1-1,27.64c-4.35,12.74-5.25,25.48-5.67,38.64-.35,11.17-4.87,21.67-5.13,33.2-.42,19-6.15,37.44-7.79,56.4a10.85,10.85,0,0,1-1.77,5.59c-5,6.37-5.62,13.34-3.38,20.76,1.68,5.61,1.11,10.39-3.7,14.36-5.87,4.84-6.56,11.77-5.25,18.33,4.63,23.28-.37,46.14-2.5,69.08-1.42,15.19-5,30.19-6.25,45.4-1,12-7.91,19.3-16.26,26.18-3.89,3.21-8.59,3.25-13.29,3.25h-32Z" transform="translate(1736.71 1586.71)"/><path class="cls-3" d="M973.76,1384.44a33.51,33.51,0,0,1-13.21-2.93c-16.09-7-32.4-9.52-50.52-6.24a204.89,204.89,0,0,1-47.46,2.88c-10.6-.59-21.32-1.05-31.82,1.74-2.55.68-5.56,1.57-7.89.86-14.9-4.61-28.8.88-42.94,3.79-9.9,2-20.07,3.32-29.75,1-16.72-4-31.81.44-46.43,7.2-6.4,3-11.77,4.24-18.85,2.32-21.41-5.8-43.48-5.8-65.39-4.41-8.28.53-15.82.15-23.27-3.29-4.24-2-8.61-4.23-13.33-2-2.28,1.09-4,.67-4.16-1.37-.5-8.27-6.43-8.47-11.29-6.31-8,3.55-15.41-4.82-23.31.19-2.33,1.47-4.26-2.26-5.6-4.53-2.76-4.63-5.27-9.55-12.19-7.59-2.7.76-3.2-1.62-4.11-3.3q-2.84-5.28-5.63-10.58a13,13,0,0,1-.69-11.47c5.94-15,8.15-30.6,7.57-46.72-.11-3,1.71-6.3,3.14-9.22,7.48-15.22,10.72-30.63,8.33-48-1.51-11-2.53-23.43,5.3-34,2.14-2.9,1.67-7.67,2.6-11.54,2.65-10.91,1-22.75,7.19-32.88-2.8-14.15,6.16-26.54,5.62-40.67-.69-18,7.31-34.71,12-51.85,6.27-23.11,10-46.48,10-70.43,0-2-.28-4.16.4-5.92,6.71-17.13,5.2-35.3,7.09-53,1.1-10.34,2.52-20.49,2.4-31.08-.1-10.24,4.45-20.53,6.91-30.81.92-3.86,2.44-7.74,2.45-11.61C597,843,604.3,824.84,608.31,806c1.8-8.44,3.94-16.77,5-25.37.64-5.24,1.89-10.42,3-15.61a21.66,21.66,0,0,1,1.72-5.72c3.64-6.8-6.18-13.11-1.73-18.58,5.11-6.27,5.75-13.35,7.23-20.33,1.38-6.47,1.65-13.2,2.09-19.84.5-7.3.73-14.63.92-22,.17-6.68.13-13.37,2.57-19.72,3.43-9,1.42-18.52,3.17-27.7,1.57-8.26,5.3-16,3-25.25-1.25-5,2.46-11.34,4.28-17,1.22-3.78,4.92-7.74,4.26-11-2.1-10.2.9-19.73,1.71-29.56.75-9.13.24-18.07,2.55-27.39,2.08-8.39-1.17-18.14-2.22-27.27s-4.13-18.18,3.15-26.22c2.2-2.42,1-5-.56-7.23-3.17-4.51-5-9.25-4.29-14.94s2.19-10.34,7.69-13.07c4.77-2.36,9.91-4.4,13.94-7.73,7.63-6.32,15.25-6.64,23.94-2.74,6.15,2.76,12.61,4,19.38,1.25,5.8-2.34,11.48-1.36,17.49.54,21.31,6.75,42.46,6.47,64.6,1.55,16.61-3.69,32.88-9.6,50.67-9.6,13.17,0,26.24,1.35,39.38,1.46,18,.15,36-2.32,53.89.86,10.42-5.67,22,1.2,32.61-3.11,3.35-1.37,6.5.11,9.58,1.43,4.25,1.82,7.62,1.31,9.82-3.36,1.55-3.27,4.52-2.93,6.38-.75,4.29,5,9.2,7.07,15.86,6.15,3.13-.43,6.59.57,9.75,1.46,16.15,4.56,32.81,4.33,49.32,5.43,9,.6,17.2-1.81,23.86-8.2,3.66-3.51,7.32-3.2,10.26.4,3.88,4.74,9.06,7.55,13.82,11.1,8.66,6.44,13.13,15.1,8.73,26.19-2.76,6.93-3.58,14.11-4.12,21.48-.38,5.25-1.1,10.78-3.11,15.57-8.2,19.51-8.26,39.9-7.25,60.39a64.37,64.37,0,0,1-1.37,15.83,188.69,188.69,0,0,0-1.6,63.38,22.65,22.65,0,0,1-.28,7.54c-1.86,10.7-9.64,20.91-3,32.46.39.67-.5,2.53-1.29,3.36-9.84,10.28-7.21,23.29-7.89,35.56-.15,2.57,1.28,6.3,0,7.55-7.9,7.91-4.38,17.44-4.66,26.46-.17,5.32-.21,10.75-1.33,15.9-1.16,5.33-1.93,10.34-.21,15.69.78,2.44,1.26,5.5.51,7.84-4.58,14.25-2.38,29-3.93,43.52-.5,4.61-.62,9.34-1.76,13.79a70.66,70.66,0,0,0-2.1,21.77c.83,14.71.86,29.31-3.29,43.63-.36,1.27-.27,2.67-.67,3.93-1.93,6.1,3.69,11.38,1.72,17.56-1.82,5.69-4.29,11.46-4.58,17.3-1.35,27.32-7.12,54.11-9.43,81.3-1.24,14.46-2.29,29-3.62,43.4a64.33,64.33,0,0,1-2.27,11.65c-5.26,18.47-12.19,36.62-15.58,55.42-2.91,16.15-10.46,31.52-8.3,48.79.78,6.23-2.56,13-3.89,19.47-1.45,7.09-4.39,14.11-.81,21.46,1.64,3.37-.08,6.29-1.71,9.31-3.78,7-3.77,14,1.07,20.6,2.12,2.89,2.34,5.62,1.67,9.22-1.8,9.62-4.32,18.93-3.93,29.19.34,8.82-3.48,17.78-3.42,27.29.06,8.07-4.72,15.78-6.82,23.85-1.88,7.23-7.7,13.59-7.89,22-.08,3.45-2.86,6-5.8,7.71C995.45,1380.91,986.32,1384.86,973.76,1384.44Z" transform="translate(1736.71 1586.71)"/><path class="cls-3" d="M1175.26,1369.35c-12,0-24-.12-36,0-8,.11-16.32,1.49-19.23-9.12a4,4,0,0,0-3.12-2.13c-12,0-11.21-8.35-11.47-16.62-.34-10.63-1.48-21.23-2.18-31.85s-1.59-21.14,1.68-31.71c1.73-5.6,1.66-11.84,1.91-17.81.41-10,.77-19.94,4.14-29.53.86-2.45,1.62-5.32,1.15-7.75-1.18-6.1-1.75-11.88,2.46-17.11-2.64-10.85,8.37-18.66,5.69-30.51-2.07-9.15,1.17-19.58,2.47-29.39,1.39-10.54,2.93-21.08,5-31.51,5.4-27.4,13.15-54.39,14-82.56a32.42,32.42,0,0,1,1-5.9c8.48-38.42,12.66-77.42,15.71-116.56q3.63-46.79,6.65-93.63a48,48,0,0,1,8-24.26c3.19-4.72,3.15-9.43,3.61-14.84,1.88-22.54-2.57-45.19,1.12-67.55,3.1-18.85,7.56-37.46,11-56.25,1.92-10.43,4.25-21,4.17-31.52-.07-11.57,2.78-22.26,5.12-33.31,3.58-16.84,5.44-34.06,8.29-51,3.65-21.7,1.19-44,7.39-65.32,1.39-4.78,3.46-7.12,8.14-6,14.51,3.53,28.93,3.83,43.44.08a9.62,9.62,0,0,1,5.87.07c10.05,4.5,19.62-1.3,29.44-1,16.21-10.07,35.28-1.36,52.12-7.82,2.09-.79,5.08,1,7.69,1.31,17.68,1.84,35.37,4.82,53-.58a10.57,10.57,0,0,1,5.87-.37c17.94,5.74,36.83,3.49,55.12,6.53,8.26,1.38,17.21,3.47,25.41-1.4,7.71,3.27,15.8,1.29,23.71,1.56,9.28.31,18.64-.63,27.85.27,18.8,1.85,37.15.9,55.09-5.37,1.83-.64,4.24-1.54,5.73-.87,8.17,3.66,17.31,1.79,25.38,4.43,10.84,3.54,20.5,3.84,30-3.2,3.27-2.41,7.42-2.36,11.54-1.37a148.69,148.69,0,0,0,17.57,3.36c4.47.52,7.46,2.55,9.3,6.4,1.52,3.19,3.61,5.47,7.28,6,9,1.33,9.81,8,9.06,15-1.57,14.56-3.25,29.12-5.4,43.6-2.85,19.09-6.48,38.06-9.24,57.16-2.29,15.8-3,31.87-5.9,47.52a246.78,246.78,0,0,0-4.19,49.61c.13,8.66-.2,17.56-4,25.49-4.15,8.69-4.89,18.06-5.63,27.16-.65,8-2.83,15.54-3.87,23.21-1.66,12.27-3.3,24.45-5.87,36.6-1,4.78,2.47,10.34,2.42,15.53-.06,6.68,5.13,13.89-2.12,20.3-1.75,1.54-1.87,6.91-.61,9.48,4.2,8.62,2.26,17.52-.1,25.27-4.39,14.38-4.34,29.09-4.48,43.47-.17,17.09-5,32.67-10,48.37-3.26,10.23-6.16,19.92-4.64,31.09,1,7.41-.87,15-5,22.57-4.23,7.81-5.36,17.64-6.46,26.75-1.37,11.37-4.63,22.11-8,32.92-1.75,5.52-5,11.14-.85,17.13.67,1,1,3,.47,3.79-4.36,6.25-6.71,13.38-5.71,20.65s-6.34,13.77-1.82,21.2c-3.27,7-7.9,13.17-9.6,21-.67,3.08-3,6.09-1.87,9.34,3,8.27.37,16.53-2.49,23.38-7.28,17.43-7,35.81-9.25,53.86-.77,6.28-5.4,12.38-1.35,19.24,1.78,3-2.8,4.17-3.27,6.44a177.65,177.65,0,0,0-3.38,21.46c-.27,3.34,0,6.57-2,9.48-7.37,10.66-2.38,19.9,3.35,29,3,4.8,2.54,8.91-2.25,11.2-7.65,3.66-15.27,7.08-24,8.33-20.53,2.92-41.14,1.78-61.69,2.72-4.68.22-9.23-.26-13.37-3-6.41-4.31-13.58-5.11-21.08-3.73-12.15,2.26-24.63,2-36.71,5.1-4.45,1.13-9.88,2.59-13.75,1.07-16.36-6.42-29.91,1.72-43.42,7.9-9.33,4.28-18.91,6.11-28.67,8-2.56.49-5.78,1-7.87,0-9.9-5.13-19.11-4-28.46,1.38-4.18,2.39-9,1.86-13.68,1.35-17.2-1.87-34.41-3.68-51.66-5.16a99.28,99.28,0,0,0-20-.12C1215.2,1368,1195.22,1367.86,1175.26,1369.35Z" transform="translate(1736.71 1586.71)"/><path class="cls-3" d="M228.3,220.47a6.67,6.67,0,0,0-2-.11c-14.93,3.6-30,3.35-45.16,2a11.54,11.54,0,0,0-7.36,2.24c-3.63,2.77-7.15,2.59-11.23,1.69-8.06-1.78-15.13.48-22.9,3.5-6.17,2.41-12.9-6-20.66-5-13.94,1.79-27.89,1.48-41.85.16-2.57-.24-5.73-.21-7.77,1.05-9.93,6.13-20.69,3.57-31.16,3.41-9.95-.15-19.9-1.55-29.61,2-5.83,2.15-11.78,1.12-17.76.17-15.06-2.39-35.44-1-51.11,1.66-8.34,1.4-17.06.78-25.61.7-12.6-.12-25.31,1.62-37.76-1.88-1.89-.54-4.27-1.35-5.84-.67-11.77,5.06-23.51.69-35.19,0-25.76-1.43-46.51-14.28-65.62-30.33-4.58-3.84-6.29-9.43-3.63-14.45,7.63-14.38,5.68-31.31,13.21-45.75,4.44-8.51-.34-18.13.95-27.38.77-5.56-1.4-11.61.75-17.54.87-2.39,1.52-6,.37-7.8-5.69-9.11.29-18,0-27-.24-8.48,2.39-17,5.29-25.22,3.07-8.72,5.54-18-.54-26.7-2.27-3.24-.74-6.11-.31-9.36,3-22.36,4-45.13,8.85-67,3.93-17.64.63-35.72,6-52.92-2.21-6.49,2.35-11.33,4-16.91,2.22-7.41,7.16-14.61,2.19-22.84-1.59-2.64.52-4.95,1.54-7.38,4.15-9.93,7.32-19.9,2.42-30.69-1-2.17-.62-5.34.05-7.8,5.57-20.5,5.28-42.08,11.95-62.45,2.43-7.39,1.91-15.76,2.68-23.69.51-5.3,0-10.91,1.51-15.87,7.56-24.31,6.38-50.05,12.7-74.53,1-3.87,2.58-7.87,2.36-11.72-1.94-33.1,8.54-64.44,13.27-96.58,2.13-14.48,3.28-29.1,8.86-42.84-1.84-18.55,4.5-36.68,2.82-55.22-.23-2.62-.85-5.7.19-7.85,8.88-18.35,6.18-39.31,13.61-58.1,4.13-10.45,4.7-22.06,4.64-33.48-.08-15.74,5.59-29.9,12.57-43.66,3.69-7.27,9.17-11.16,17.64-10.11s17.28,1.26,25.62,3.17C-51.44-737-44.5-734.9-37-735.36c1.92-.12,4.65,0,5.71,1.18,7.28,8.07,16,4.76,24.24,3.17,9.79-1.9,20,.1,29.53-3.76,8.86,3.65,18.29,2.51,27.49,3.35a19.23,19.23,0,0,1,7.67,1.94c10.94,6.26,23.3,4.84,35,6.84a24,24,0,0,0,15.44-2.75c5.87-3.06,12.43-4.89,18.08-8.28,6.86-4.13,14.31-2,21.19-3.56,7.42-1.63,13.61-1.81,21,.57,10.66,3.41,22,5.06,33.44,2.37,3.92-.92,8.22-2,11.69.34,8.43,5.6,18.43,1.31,27.11,4.9,2.74,1.13,5.15-.33,7.16-2.26,2.88-2.76,5.65-5.65,8.64-8.3,1.43-1.26,4-3.12,5.17-1.23,5.86,9.77,16.75-.4,23.21,6.21,13.3,2.34,25,8.79,36.68,15,6.87,3.62,13.43,5.16,20.94,1.89,7.35-3.21,16-.37,23.32-4.54,2.49-1.41,5.15,0,7.4,1.56a7.27,7.27,0,0,1,1.48,1.34c5.93,7.34,16.73,9.33,21.11,17.89,4.14,8.1-1.11,16.81-.74,25.45a129.07,129.07,0,0,1-6.29,45.14c-4.62,14.47-6,30-9,45-.85,4.18.86,7.85,1.22,11.76s1.48,9.26-.52,11.59c-6.8,7.94-2.35,17.73-5.75,26.41-3,7.58-1.27,17.06-1.3,25.71,0,9.35-.35,18.41-4.19,27.36-2.28,5.31-2.94,11.74-2.69,17.59.27,6.05,1.18,11.47-4.1,16.12-3.16,2.78-2.82,7.26-3.13,11.26-1.17,15.17,0,30.82-9,44.44a7.91,7.91,0,0,0-.83,3.86c-1.46,30.63-10.92,60.21-12.1,90.88-6.52,18.15-6.16,37.92-13.21,55.94a38.73,38.73,0,0,0-2.92,15.6c.65,18.09-2.65,35.67-6.2,53.29-3.13,15.59-5.15,31.39-8.28,47-2.07,10.3-3.9,20.64-5.95,30.9-1.14,5.72-2.68,9.92,2.25,14.08,2.47,2.09,1.84,4.38.43,7-7,13-10,27.24-13.49,41.43-4.92,20.15-5.14,40.75-7.5,61.15-1.9,16.41-2.79,33.14-6.68,49.27-2.56,10.63,1.25,21.35-.86,31.31-2.19,10.35-5.6,20.29-5.95,31.14-.5,16-2,31.9-3.31,47.83a64.16,64.16,0,0,1-2,11.76c-5,18.44-12.08,23.47-31.38,22.66A23.71,23.71,0,0,1,228.3,220.47Z" transform="translate(1736.71 1586.71)"/><path class="cls-3" d="M-623.81-696.51c5.39-2.91,15,3.11,24.83,1.72a250.8,250.8,0,0,1,27.73-2.75c10.53-.31,21.08,3.87,31.66,0,10.16,3.94,21,2,31.35,3.49a69.61,69.61,0,0,0,17.78,0c9.87-1.09,19.61-1.87,29.6,1.53,6,2,13.24,1.56,19.75.76,11.8-1.46,23.24-3.67,34.33,3.48,2.89,1.87,8,1.71,11.65.69,10.68-3,21.09-.82,31.62.16,5.26.49,10.71,1.91,15.63-1.12,6.61-4.09,13-6.32,19.57,0a2.28,2.28,0,0,0,1.9.45c12.58-3.8,24.59,2.77,36.9,2.08,10.66-.58,21.11-1.76,31.33,2.89,3.63,1.65,7.87.49,11.68-1,7.55-3,13.93,3,21.17,2.94,1.14,0,2.69,2.74,3.4,4.49,1.34,3.26,3.24,6.59,6.67,6.68,9.76.27,9.84,7,10.31,13.86a107.22,107.22,0,0,1-2.61,31.74c-2.86,12.32-4.94,24.85-8.52,37-3.49,11.84.56,24.3-3.08,35.57A202.84,202.84,0,0,0-226.65-519c-3.21,21.62-5,43.41-10.58,64.79a185.41,185.41,0,0,0-3.07,79c.69,3.91.26,6.2-2.8,8.38-4,2.84-4.75,6.59-5.56,11.64-3,18.74-2.62,37.62-4.2,56.39-1.62,19.19-4.4,38.28-6.8,57.41a37.71,37.71,0,0,1-2.32,9.64c-3.93,9.47-3.62,19.29-4.25,29.31-1.29,20.38-1.3,40.88-4.93,61.17-3,16.95-4.41,34.21-6.32,51.36-.88,7.91-.59,15.89-3,23.71a35.87,35.87,0,0,0-1.11,13.77,107,107,0,0,1-3.23,39.55c-.7,2.55-2.09,5.78-1.17,7.77,5,10.69-1.54,20.51-1.58,30.67-.06,18.84-4.06,36.79-9.65,54.57a14,14,0,0,0-.34,7.88c1.63,5.26,2.25,9.25-2.18,14.21-4,4.49,3.14,10.88-.22,17.16-2.73,5.1-5.62,10.42-6.07,16.72-1,13.93-4.31,27.89-3.64,41.69,1.12,23-4.7,44.79-9.11,66.86-1.94,9.69-12.58,15.88-22.4,14-7.14-1.36-14.46-2-21.41-4-5.63-1.58-10.4-.68-15.4,1.61-7.26,3.32-14.65,6.38-21.95,9.63-11.47,5.11-23,10.24-36,7-6.12-1.5-8,8.25-13.68,5.34-3.88-2-6.21-8.34-9.92-9-9-1.67-18.78-3.21-27.6.28-7.22,2.86-14.11,2.76-21.47,2.3-12-.74-23.63.93-35.51,3.53a56,56,0,0,1-34.46-3.35c-4.85-2.14-10.27-3.57-14.34-6.73-8.33-6.46-17.28-6.09-26.55-4.1-10.28,2.21-20.84,2.43-30.95,6.34-5.89,2.28-13.58-.35-19.68,1.63-16.06,5.22-31.41.13-47-1.62-6.05-.69-11.7-1.91-17.09,2.32a12.1,12.1,0,0,1-7.32,2.68c-14.23-.75-27.41,4.93-41.27,6.22-4.61.43-9.25.43-13.87.73a7.93,7.93,0,0,1-8.13-4.6c-2.56-5.24-6.11-7.84-12.23-8.44-4.13-.4-5.66-5.22-6.83-9.09a83,83,0,0,1-1.11-43.35c3-13,5-26.07,4.33-39.42a70.76,70.76,0,0,1,1.37-17.83c1.21-5.84,2.78-12.05,2-17.79-1.84-12.89.42-25.14,4.06-37.17,3.84-12.68,2.41-26.48,8.83-38.61,1.45-2.72,1.15-6.52,1.16-9.82,0-28.72,5-57,7.59-85.49.85-9.26.14-19.1,3.11-27.65,6.46-18.56,5.4-38.07,9.32-56.79,4.52-21.58,2.62-43.9,8.27-65.13,5.19-19.53,3.68-39.53,6-59.24,1.24-10.53,4.6-20.76,4-31.57-.12-2.35,1.37-5.17,2.92-7.17,3.45-4.47,3.92-9.69,5.17-14.87,1.49-6.19-.82-11.66-1.32-17.46-.43-5.06,6.34-8.43,6.23-14.17-.07-4,.33-8.21-.89-11.87-3.12-9.39,1.94-18.25,1-27.4,8.6-19.76,7.51-41.41,11.84-62,3.4-16.17,4.26-32.87,6.12-49.36.31-2.7.66-5.21,2.6-7.29,7.87-8.41,9.57-18.88,8.47-29.6-1.38-13.39,4.91-26,3.29-39.24,10.62-15.16,8.9-34.16,15.61-50.56a32.35,32.35,0,0,0,2.41-11.61c.23-14.59.73-29.25-.32-43.78-.69-9.58,3.47-15.3,10.75-19.54,10.39-6,22.07-8.93,33.3-13C-648-694.85-638-693.71-623.81-696.51Z" transform="translate(1736.71 1586.71)"/><path class="cls-4" d="M237.83,2129c-6.92-9-14.37-17.47-24-23.76-33.77-42.23-62.32-87.93-89.52-134.53-20.2-34.62-36.88-70.74-48.8-109.08a215.42,215.42,0,0,1-9.62-50.84c-3.24-53.68,16.26-96.2,65-122.8,2.92-1.59,5.79-3.3,8.77-4.78,5.32-2.63,7.72-6.71,7.69-12.74q-.23-40.95-.06-81.91c0-6.67-2.68-11.5-8.16-15-8.5-5.34-17.36-10.08-27.29-12-11.74-2.21-23.61-3.57-33.37-11.64-1.8-1.49-5.07-1.24-7.68-1.72a5.43,5.43,0,0,1-4.83-5.36,70.29,70.29,0,0,1-.07-8c.22-4.87,3.17-7.18,7.74-7.22,23.23-.22,44.67,6.54,64.87,17.41,10,5.36,19.36,11.74,27.3,20a24.73,24.73,0,0,1,4,3.91h0c9.09,13.18,5.26,28.2,5.89,42.53.52,11.91-.19,23.86.34,35.78.51,11.45,4.74,19.26,18,17.77,1.25-.18,2.5-.34,3.76-.49,6.2-4.17,14.07.93,20.2-3.64,12.59-1.11,25.16-2.73,37.77-3.21a318.13,318.13,0,0,1,73.42,6.09c3.26.63,6.61.84,9.88,1.43,9.91,1.79,13.77-1.82,14.5-13.54a6.43,6.43,0,0,0-3.56-6.61c-5.42-2.54-10.82-5.12-16.35-7.4-16-6.62-31.69-14-46.2-23.52-9.46-6.25-18.53-13.1-25.41-22.26-5.6-7.45-4.58-15.1,2.57-21.19,8.88-7.57,19.82-11.19,30.84-13.4,24.78-5,49.8-8.5,75.17-8.64,19.83-.11,38.09,4.89,54.61,16.15,14.3,9.75,28.58,19.48,40.79,31.89a27,27,0,0,0,4,4h0a19.44,19.44,0,0,0,4,4h0a22.61,22.61,0,0,0,4,4h0c1.18,1.48,2.57,2.76,3.86,4.13h0c3.4,5.81,9.09,9.82,12.66,15.38,6.22,9.71,6.25,20.6,1.64,30.61-5.43,11.83-17.27,14.35-28.75,14.42-19.37.12-38.1-5.13-56.72-9.83-6.45-1.62-12.95-2.84-19.43-4-6.27-1.15-14.62-5.23-18.47,1.62-4.13,7.37,5.81,10.54,8.89,16,7.9,4.42,16,8.53,23.63,13.35,7.1,4.48,13.71,9.72,20.54,14.62a18.06,18.06,0,0,0,4.42,3.5l0,0a7.57,7.57,0,0,0,4.09,4l0,0a6.84,6.84,0,0,0,4.05,4l0,0a6.64,6.64,0,0,0,4,4l0,0a8.14,8.14,0,0,0,3.85,4.2h0c34.6,42.12,28.81,89.61,16,136.71-15.56,57.14-47.08,107-77.14,157.31-25,41.87-52.88,81.53-89.7,114.22-11.18,9.92-22.14,17.59-37.1,7.67l-11.79-4.19v.19a10.78,10.78,0,0,1-4.29-4.1l.06.17c-1.86-.71-3-2.36-4.39-3.6Z" transform="translate(1736.71 1586.71)"/><path class="cls-5" d="M381.76,1677.09c-5.71-1.58-11.51-2.92-17.08-4.9-1.37-.48-2.71-3-2.81-4.7-.37-6.37,2.45-11.46,7.35-15.48a7.79,7.79,0,0,1,7.37-1.53c10.24,2.57,20.71,4.47,30.7,7.79,15.81,5.26,32.35,6.52,48.49,9.84,9.86,2,19.76.33,29.24-3.34,5.49-2.13,8.76-5.88,9.15-11.76.74-11.34,1.28-22.62-8.57-31.17a10.84,10.84,0,0,1-3.66-8.89c12.47,6.25,19.41,17.76,26,29,4.86,8.25,3.69,18.18,1.3,27.12-1.91,7.16-9.12,9.6-15.63,10.63a94,94,0,0,1-29.65-.32,550.88,550.88,0,0,1-58.1-12.59,69.11,69.11,0,0,0-7.68-2C388.77,1663.39,386.54,1665.11,381.76,1677.09Z" transform="translate(1736.71 1586.71)"/><path class="cls-6" d="M194.1,1665.14c-5.6,5.37-12.37,3.28-18.78,2.68-2.84-.26-4.52-2.6-4.66-5.53-.26-5.28-.45-10.56-.48-15.85q-.24-38.68-.36-77.38c12.14,5.52,17.22,14.72,16.68,28.21-.7,17.73-.05,35.51-.17,53.27C186.29,1657,187.8,1662.25,194.1,1665.14Z" transform="translate(1736.71 1586.71)"/><path class="cls-7" d="M318.42,929.13a172.83,172.83,0,0,1-4.66,37.55c-2.84,12.27-4.19,24.8-6.22,37.18-2.46,15-3.88,30.21-9.1,44.79-3.3,9.22-4.18,19.33-6,29.06-4.33,23.46-9.67,46.79-11.11,70.67-.41,6.82-3.13,12.83-4.51,19.26-6.22,29.06-13.09,58-18.34,87.24-.44,2.48-1.37,5.72-3.2,6.95-8.72,5.9-17.87,11.35-29,10.88-5.26-.22-10.45-1.69-15.72-2.11-12.22-1-13.39-2-12.77-12.73.15-2.63.06-5.58,1.21-7.81,5.39-10.41,5.49-21.16,4.23-32.55-2.44-22,2.14-43.73,4.22-65.52,1.45-15.14,4-30.19,6.26-45.24,3.65-24.19,7.76-48.31,11.11-72.54,1.64-11.84,3.41-23.61,5.55-35.38,1.68-9.23,2-18.44,8.13-26.18,1.73-2.19,1.76-4.83.78-7.54-2.89-7.91-1.21-15.72.62-23.55,3.93-16.76,5.64-33.85,7.2-51,.84-9.26,1.47-18.55,2.64-27.77.49-3.89,1.18-8.35,3.43-11.27,2.84-3.68,6-6.24,3-11.38-.56-1,.92-3.89,2.23-5,5.11-4.46,3.83-8.72,1.35-14.18-3-6.68-2.36-7,5.42-11.68a19.54,19.54,0,0,0,2.69-2.42c-4.07-1.93-8.86-2.84-8.66-9.16.39-12.79,5-24.73,7.16-37.15.27-1.54,2.66-2.75,4.14-4,2.46-2.09,2.87-4.89.69-6.81-4.15-3.67-4.16-7.78-3.16-12.65q2.63-12.69,4.54-25.52c1.71-11.44-1.09-21.07-11.56-27.57a86.12,86.12,0,0,1-9.43-7.34c-10.82-9-22.14-16.14-37.34-14.27-5.8.71-11.87-.62-17.8-1.26-13.07-1.41-16.06-3.94-13.57-16.17s1.12-25.44,7.81-36.81c1.83-3.11,1.57-6.27.41-9.56-1.41-4,0-7.8,1.05-11.68,2.37-8.71,7.25-13.37,16.86-13.94,22.52-1.33,44.87-4.72,67.34,2,8.05,2.4,17.18,1.18,25.83,1.58s17.3-.82,25.67,2.53c4.47,1.79,9.19.54,13.83,0a94.05,94.05,0,0,1,13.93-.65c6,.21,10.17,12.54,17.82,2.77A41.43,41.43,0,0,1,393,583.71c1,.42,2.62,0,3.77-.52,15.95-6.74,32.6-2.74,48.94-3.23a40,40,0,0,1,7.95.56c10.59,1.84,14,5.63,12.74,16.19a196.3,196.3,0,0,1-5.16,25.3c-2.47,9.67-5.39,19.17-4.78,29.37.1,1.6-2,3.33-3.07,5-6.07,4.52-12.62,3.55-17.9-.41-11.72-8.81-23.95-17.29-31.44-30.37-.55-1.46,1.6-2.68.66-4.35a3.68,3.68,0,0,1-2.71,2.09c-.49,2.57-8.4-3.78-4.46,3.74,5.35,10.22,15.61,15.28,24.36,21.36,13,9,10.95,16.35.28,24.71-5.92,6.7-12.33-3.13-18.34.53a16.57,16.57,0,0,1-1.69-3.4c-.69-3,.55-7.22-3.95-7.72-3.29-.37-3.36,3.41-4.83,5.42a8.52,8.52,0,0,1-4.4,3.28c-2.53.55-5.27.2-7.92.15-12.11-.22-20.57,3.82-21.73,17.46-.27,3.14-2,5.79-5.84,7.07-7.47,2.52-7.59,3-3.55,9.79a10.36,10.36,0,0,1,1.7,7.3c-.56,3.93-1.41,7.93-1.15,11.83.6,9-9.5,15.1-7,23.62s.37,15.77-1.7,23.31c-8.1,29.55-11.36,59.7-12.56,90.23-.38,9.82-2.51,19.7-5,29.27-1.51,5.91-1.51,11.78-2.2,17.66-11.77,5.25-18.95-3.52-27.24-8.9C300.9,911.18,318.59,912.91,318.42,929.13Z" transform="translate(1736.71 1586.71)"/><path class="cls-8" d="M-829.16,556c29.8,3.48,59.84,2.38,89.47,7.55,7.15,1.25,14.63,1.13,21.92.78,9.37-.45,18.55-.6,27.72,2a29.05,29.05,0,0,0,11.79.49c10.12-1.49,14.53-1.16,11.61,11.25-4.32,18.31-3.3,37.11-6.46,55.47-.68,3.93-.65,8-1.73,11.83-3.18,11.16-5.75,14.9-17.83,14.56-8.63-.25-17.3.72-25.92.32-15.21-.7-30.3-2.9-45.51,1-4.92,1.27-10.56-.49-15.86-.51-8.11,0-13.12,3.66-13.69,11.37-1.85,24.63-8.81,48.51-11.11,72.91-2.25,23.85-6.24,47.44-8.35,71.27a87,87,0,0,0,.06,12c.18,3.7,2.24,6.7,5.83,7,6,.58,9.71,2.88,11.73,8.81,1.16,3.41,5,3.94,8.47,4,10.65.12,21.31.14,32,.29,4.66.07,9.33.13,14,.61,5.56.58,8,4,7.06,9.81-1.47,9.13-4.36,18.2-4.54,27.33-.28,14.87-4.56,28.88-6.93,43.3-1.32,8.07-6,13.24-13.28,16.09-5.56,2.18-11.32,4.89-17.12,5.22-11.76.67-23.09,4.86-35.33,2.56-8.63-1.62-15.16,4.48-18.62,12.11a45.39,45.39,0,0,0-4.31,17.31c-.39,16.17-4.58,31.58-8.34,47-4.72,19.42-8.8,39-11.17,58.78-2.21,18.5-3.07,37.14-6.55,55.51-1.53,8.12,0,9.94,9.72,13.76a15.73,15.73,0,0,1,7.45,5.93c5.43,7.4,8.11,8.89,14.24,4.9,8-5.19,15.92-5.36,24.76-4.36,16.59,1.87,33.22.49,49.83-.44,17.51-1,20.08,1.8,17.33,19.19-2.8,17.74-6,35.42-9.35,53.07-1,5.19-3,10.21-4.63,15.25-2.17,6.59-6.67,9.63-13.72,8.74-2-.25-4,.16-6-.1-32.67-4.37-65,.56-97.39,3.52-12.14,1.11-24.06.47-32-11.15a11,11,0,0,0-2.92-2.66c-7.71-5.21-14.76-6.9-14.6-3.55.35,7.1,6.76,7.22,11.12,9.78,1.63,1,3.55,2.23,4.23,3.83s.32,3.92-.27,5.69a3.83,3.83,0,0,1-3.21,1.8c-6.41-.81-12.73-3.84-19.23.18-.65.4-3.75-1.61-4.36-3.06-1.24-2.95-1.51-6.3-2.31-9.44a1.76,1.76,0,0,0-1.49-.9,11.93,11.93,0,0,0-3.43,1.28,3.25,3.25,0,0,0-1,1.65c-1.7,4.62,1.68,12.56-5.49,13.33-6.91.73-14.22-1.55-21.24-3-1.14-.24-2.27-3.25-2.38-5-.15-2.58.64-5.23,1-7.85,6.44-43.39,11.31-87,21.53-129.82,1.22-5.12,1.31-10.57,1.43-15.88.35-15.36,2.84-30.43,5.21-45.56,2-13.12,2.68-26.45,4.09-39.67,3.25-30.33,6.69-60.64,9.87-91,1.88-17.84,2.39-35.89,5.38-53.53,3.32-19.59,3.54-39.77,10.5-58.74a39.13,39.13,0,0,0,1.89-11.73c1.07-26.63,3.7-53.08,6.88-79.53,2.54-21.1,3.17-42.44,4.21-63.69a471.53,471.53,0,0,1,10.65-79,134.71,134.71,0,0,0,3-15.53c1-9.27,6.49-14.33,15.77-14.65C-853.12,555.65-841.13,556-829.16,556Z" transform="translate(1736.71 1586.71)"/><path class="cls-9" d="M1045.63,44c-1.42-10.21,1.93-19.8,4-29.51,4.35-20.19,8.81-40.31,8.9-61.17,0-7.93,1.49-15.91,2.89-23.77,3.61-20.36,4.94-40.91,6-61.52.34-6.6,1.94-13.13,2.62-19.73,3-28.42,5.74-56.87,8.7-85.29,1.1-10.58,1.46-21.38,4-31.63,4.45-18.1,3.73-37.15,10.54-54.79,1.16-3,1.23-6.54,1.33-9.85,1.15-40.64,7.58-80.81,10.57-121.29.34-4.65.82-9.31.72-14-.69-29.5,4.81-58.28,10.29-87,1.12-5.86,2.43-11.63,3.14-17.6,1-8.32,6.12-13,14.24-14.23a41.63,41.63,0,0,1,8-.35c31.89,1.56,63.79,3.06,95.67,4.83,19.89,1.11,39.59,4.77,59.7,3.62,7.8-.45,15.74,2.55,23.65,2.73,14,.31,15.52,1.07,13.08,13.43a286,286,0,0,0-4.94,41.56c-.28,6-1.29,11.91-2.13,17.84-2.5,17.61-6.94,20.56-21.22,20.11-6-.18-12.16,1.69-17.9.68-22-3.86-43.75.55-65.61.36-11-.1-15.07,3.32-15.56,13.68-1,22.05-6.56,43.37-9.93,65-.3,2-1.31,3.88-1.34,5.83-.42,26.68-6.34,52.81-7.89,79.37-.15,2.5.78,5.16,1.68,7.57a4.06,4.06,0,0,0,3,2.24c11.81-.58,13.77,16.81,28.36,13.86,12.71-2.56,26.51,0,39.81.64,4.43.21,7.8,4.07,6.65,8.15-6.51,23.13-4.72,47.48-11.16,70.77-2.93,10.61-8.07,16.18-17.59,19.12A144,144,0,0,1,1191-190c-9.29-.26-17.48,4.13-20.58,12.33a61.3,61.3,0,0,0-4,17.41c-1.1,17.41-5.62,34.09-9.3,51-4.24,19.45-7.92,39.07-10.65,58.78C1144-33.37,1143.71-16,1140.1,1c-1.67,7.87-.22,10,8.05,13.05,3.18,1.19,6.64,1.72,8,5.09,3.39,8.32,10.65,9.18,16.32,5.47,8.2-5.36,16.11-5,24.79-3.65,15.21,2.44,30.42.83,45.62-.44,5.3-.44,10.62-1.16,15.93-1.13a5.24,5.24,0,0,1,5.24,5c.3,3.31.91,6.73.39,9.94-3.53,21.67-5.7,43.6-11.81,64.79a94.54,94.54,0,0,1-4.17,11.22,9.7,9.7,0,0,1-9.29,6.3c-8,.17-16,.69-23.88-1.27a53.13,53.13,0,0,0-17.85-1.3c-22.53,2-45.06,4.22-67.61,6.13-11,.93-20.58-1.26-28.76-10-5.2-5.57-12.74-9-19.24-13.33,0,0-2,.35-2,.38a5.13,5.13,0,0,0-1.47,3.92c-5.81,12.53-14.89,7.11-23.52,4.39-1.65-.77-3.21-1.66-4.77-2.58-6.79-4.09-15-7.12-5.3-17.09,7.25-7.48-5.86-17.21,1.09-25.49a17.55,17.55,0,0,1,3.66-2.17C1047.57,53.66,1041.39,50.22,1045.63,44Z" transform="translate(1736.71 1586.71)"/><path class="cls-10" d="M729.92-499.07c-7.86-10.22-18.57-17.25-29-24.24-11.52-7.73-24.74-8.3-38.48-6.07-9.79,1.58-17.25,5.49-23.39,13.16-11.66,14.58-18.88,30.45-16.62,49.66.86,7.32-.16,14.52-1.35,21.83-3.65,22.32-7,44.6-3.2,67.46,3.42,20.3,10.64,38.35,24.7,53.55a66.34,66.34,0,0,1,8.64,10.9c5.14,8.7,11.93,15.93,18.59,23.41,6.07,6.8,14.7,11.63,16.92,21.7,1,4.39,6.11,4.59,9.53,6.45,5,2.7,6.46,6.28,3,11.35-2,2.95-.49,5,2.51,5.77,5.51,1.41,12.75.46,11.62,9.89-.09.68,2.89,1.87,4.55,2.59,1.2.51,3,.2,3.8,1,6.18,6.22,8.91,16.33,19.73,17.26,4.25,8.22,8.63,16.37,12.65,24.7,1.41,2.93,1.06,7,3,9.35,8.81,10.68,9,23.28,9,36,0,21.95-.82,43.75-3.86,65.66-3.11,22.38-4.91,45-8.67,67.32-1.1,6.55-2.94,13-4.25,19.49-1,4.79-2.56,8.89-7.58,10.9-1.7.68-3.89,1.91-2.54,4.39,3.93,7.2.71,13-3.92,18-3,3.23-3.17,7.05-4.43,10.78-5.44,16.1-13.84,31-28,40.36-13.74,9.09-29.07,16-44.2,22.73-10.28,4.58-21.31,7.63-32.2,10.68-22.52,6.3-45.24,10.77-68.63,4.39a31.06,31.06,0,0,0-7.85-1c-21-.22-36-5.83-50.52-18.6-9.16-8.09-16.28-17.45-20.31-29.14C469,53.05,465.28,23.05,471.87-7.83c2.08-9.76,3.78-19.6,5.83-29.36,2.75-13.13,4.34-14.85,16.79-15,20-.19,39.93,0,59.9.33,7.74.11,11.41,3.54,10.52,11.17-1.18,10,.26,19.9-.06,29.79-.92,28.13,13.77,45.93,36.74,58.92,11.8,6.67,22.45,5.9,33.13-2.75,26.4-21.38,26.52-21.34,37.49-60.4,1.42-5.08,2.94-8.22,8.69-9,4.45-.58,2.48-4.13.51-5.28-4.8-2.81-5.4-6.07-4.64-11.51a94.53,94.53,0,0,0-3.2-39.51c-4.28-15-10.56-28-22.26-39.27C635-135.29,620.67-153,605.44-169.71c-6.89-7.57-8-18.56-14.66-25.89-6.23-6.9-13.81-12.68-17.91-21.22A76.5,76.5,0,0,0,560-236.27c-4.63-5-7-12.27-11.55-18.14-14.38-18.46-20.57-40.14-21.05-63.38-.34-16,.58-31.9,1.67-47.88,2-29.33,7.51-58.07,12.28-86.95,1.12-6.77,2.61-13.22,11.25-14.32,1.85-.23,3.36-2.7.84-3.85-8.32-3.83-6.68-10.93-5.61-17.26,3.6-21.4,12.52-40.72,24.89-58.37a218.07,218.07,0,0,1,17.87-21.52,40.52,40.52,0,0,1,10.88-8.53c11.8-6.19,23.94-11.72,35.83-17.73,19.66-9.94,41.43-12.28,62.27-11.1,22.14,1.27,44.67,3.54,66.15,12.62,23.6,10,37.8,26.49,44.63,50.23a155.83,155.83,0,0,1,5.8,57c-2.95,35-9.84,69.68-9.83,105,0,7.32-4,11.35-10.86,11.46-4,.06-8.82.49-11.72-1.51-9.41-6.47-19.33-3.46-28.55-1.72-8.16,1.54-15.89.55-23.78.28-6-.21-9-3.46-8.44-8.78,1.14-10.55,2.65-21.08,4.32-31.56.55-3.44,3.17-5.74,6.34-7.22a26.31,26.31,0,0,1,10.22-3.41c-1.86-1.69-4.63-1.87-6.33-3.82a15.14,15.14,0,0,1-3.26-.69,2.17,2.17,0,0,1-1-2.36c.25-.85.52-1.27.82-1.27h0c5.81-3.35,6.18-7.36,1.85-12.37-4.07-4.7-5.54-9.95-1.92-15.71h0C737-472.88,730.84-485.71,729.92-499.07Z" transform="translate(1736.71 1586.71)"/><path class="cls-9" d="M-354.36,862.09c1-3.13,1.75-6.36,3.12-9.3,4.41-9.5,4.71-19.19,2.46-29.27a123.57,123.57,0,0,1-3.23-31.7c.15-3.87-1.19-7.78-1.75-11.69-3.47-24.35-6.59-48.74-10.44-73-3.31-20.93-6.46-42-9.38-63-3.64-26.34-7.43-52.67-11-79a25.74,25.74,0,0,1,.37-7.87c1.16-6.48,4.39-9.43,10.81-9.31,18.63.33,37.25,1,55.87,1.35,4.47.09,7,2.14,9.42,5.91,3.24,5,8.61,5.55,14.15,3.9,1.53-8.14,7.69-7,13.49-6.84,15.15.53,15.06.51,15.53,17,.12,3.93.27,8.2,1.79,11.71,4.61,10.64,5.52,21.8,6.57,33.14,1.66,17.9,4.17,35.72,6.35,53.58.48,4,1.06,7.9,4.15,10.5,5.12-.08,4.5-6.92,10.1-6.64,4.37,5.09.31,14.1,7.68,19.43,5.37-5,7.9-11.8,9.81-18.46,8.68-30.16,21-58.95,32.43-88.08,1-2.48,1.57-5.1,2.58-7.56,6-14.37,15-23.45,32.08-25.09,21.28-2,42.4-2.95,63.66-1.24,6.91.55,9,3.43,7.35,10.7-1.29,5.83-2.53,11.79-4.88,17.22-10.52,24.39-19.16,49.42-28,74.45-14.88,42-30.65,83.84-50.84,123.78-8.43,16.7-14.17,34.48-19.87,52.26-1.7,5.31-2.7,10.09-.19,15.37,8.19,17.22,9.57,35.81,11,54.46.73,9.91,2.92,19.71,4,29.61,1.71,15.89,2.32,31.92,4.75,47.69s4.21,31.63,7.15,47.23c6.2,32.88,8.26,66.09,10.85,99.29,1.76,22.58,3.19,45.2,5.94,67.66,1.24,10,.22,19.91.74,29.85.46,8.91-4.44,14.11-13.57,13.49-28.92-1.94-57,4.38-85.51,7.09-15.52,1.48-16.66.93-19.78-15-4.11-20.9-7.87-41.9-10.94-63-4.32-29.63-8.31-59.31-9.49-89.31-.31-7.92-2-15.86-3.85-23.6-1-4.27-3.68-3.88-7.22-1.13-5.16,4-6.15,3.37-7.48-2.45-1.13-5-.32-10.71-5.15-14.41-4.83,3-5.68,7.67-7,11.93-6.52,21.66-12.62,43.46-19.38,65-5.36,17.12-10.29,34.42-18.21,50.64-1.75,3.59-3.85,7.23-4.52,11.07-2.34,13.4-8.41,25.19-14.83,36.87-4.29,7.79-4.92,16.54-7.07,24.89-5.48,21.28-10.5,25.08-32.34,22.93-22.53-2.21-45-4.91-67.49-7.51-7.76-.9-10.27-4.5-7.63-12.55,6-18.35,13.32-36.31,18.89-54.79,15.17-50.36,36.17-98.75,49.11-149.92,7-27.67,18.05-54.32,27.4-81.39,3-8.81,6.33-17.48,8.29-26.68a86.3,86.3,0,0,1,6.84-18.69c4.26-9,9.58-17.39,11.07-27.61.71-4.88,3.6-8.6,10-5.58a3.92,3.92,0,0,0,5.6-3.59c.05-3.46-3.09-3.56-5.89-3.55C-351.19,863.27-352.4,862.65-354.36,862.09Z" transform="translate(1736.71 1586.71)"/><path class="cls-9" d="M803.71,516.82c23.93-.08,47.75-.32,71.29,6.44,11.9,3.42,25.28,1.9,37.15,6.43,20.9,8,43,8,64.69,10.63,8,1,15.71,1,22.14,7,7,6.53,13,13.78,14.63,23.24,2.09,12.4,3.69,24.78,2.63,37.67-3.43,41.84-11.65,82.91-18.66,124.17-3,17.63-8.06,34.92-12.36,52.32-6.5,26.29-25.34,41.31-48.38,52.31-6,2.86-12.34,5-18.24,8-2.53,1.29-3.13,4.39-1,6.79,2.63,3,5.61,5.68,8.53,8.4,9.84,9.18,17.19,20.35,24.24,31.6,5,8,4.2,18,6.4,26.95.94,3.82-.24,8.31,1.18,11.85,9.37,23.5,3.55,47.29,1.87,71-1.84,26-9.89,50.89-14.47,76.42-2.09,11.65-7.07,22.73-4.48,34.94-5.94,18.57-5.94,38-8.44,57-1.54,11.75-6.13,23.06-7,35.11-.22,3.17-2,6.32-3.5,9.3-1.86,3.76-4.9,6.45-9.25,6.69-19.92,1.1-39.85,2-59.77,3a17.85,17.85,0,0,1-4-.47c-4.28-.78-7.39-4.37-6.72-8.4q2.43-14.73,5.37-29.38a7.74,7.74,0,0,1,5.09-5.67c1.57-.62,3.29-1.4.72-3.53-6.35-5.3-3.76-12.36-2.57-18.64q3.71-19.56,8.74-38.85a83.93,83.93,0,0,0,2.7-19.7c.09-4-.24-8.15.75-11.93,7.22-27.79,7.9-56.58,13.26-84.68,4-21,3.72-42.33-2.31-63.31a58.64,58.64,0,0,0-13.67-24c-9.11-10-20.11-17.4-31-25-10.59-7.39-22.67-6.78-34.73-5.48-3.88.41-5.73,3.5-6.22,6.82-1.24,8.51-2.58,17.08-2.8,25.66-.2,8.11-1.88,15.85-3.74,23.6-7,29.18-11,58.79-12.89,88.7a72.61,72.61,0,0,1-.67,8c-5.25,29.47-11,58.86-15.61,88.43-1.52,9.62-8.67,17-7.62,28,.85,8.84-3.3,18.16-5.24,27.27-1.66,7.81-3.23,15.64-5,23.41-3.3,14.13-7.67,17.26-22.54,16.43a27.93,27.93,0,0,1-6-.56c-15.57-4.39-31.56-4.39-47.53-4.87-7.87-.24-8.86-1.57-7.45-9.87,1.88-11.14,3.72-22.29,6.05-33.34,5.92-28,8.43-56.48,13.68-84.59,5.34-28.6,7.27-57.85,10.48-86.84,2-18.52,3.69-37.08,5.52-55.63.2-2-.1-4.3.82-5.88,7.9-13.45,5.65-28.34,6.65-42.83.54-7.91,2.48-15.72,3.73-23.58,6.59-41.22,10.94-82.76,17-124,4.71-32.2,8.49-64.58,14.83-96.6,4.64-23.41,6.24-47.42,9.05-71.18,1.49-12.55,2.58-25.14,4-37.69a61.89,61.89,0,0,1,2.38-11.71c3.65-11.39,8.29-15,20.26-15.27C778.39,516.6,791.05,516.82,803.71,516.82Z" transform="translate(1736.71 1586.71)"/><path class="cls-11" d="M1476.8,578.18c2-3.14,2.13-6.34-.8-8.84-2-1.68-4.55-2.61-6.8-4a4.65,4.65,0,0,1-2.11-5.07c.35-2.36,2.33-3.19,4.28-3.25,4.65-.13,9.31.17,14,.12,8.66-.09,17.31-.4,26-.43,5,0,7.42,2.17,7.19,7.24-.4,9.17,1.6,18.67-3.35,27.35-.93,1.64-1.7,4.15-1.11,5.73,5.59,15.15-.4,30.36.45,45.53.6,10.61-.2,21.3-.43,31.95-.09,4,.82,8.62-2.52,11.32-5.79,4.66-6.63,9.47-2.56,15.48.74,1.09,1.64,2.44,1.57,3.62-1,18,4.32,35.7,1.84,53.7-.54,4-1.38,7.87-1.66,11.84-1.23,17-1.3,17.09-15.92,8.7-2,2.54.52,4.86.39,7.34-.12,2.24,1.54,3.72,3.69,3,3.31-1.12,6.85-2.13,9.39.41,3.11,3.11,2.33,7.71,1.19,11.36-4.22,13.58-1.12,27.25-.82,40.83.27,12,.21,23.85-.62,35.84-1.42,20.56-1.6,41.22-1.75,61.85-.12,17.32-.39,34.59-2.6,51.82a200,200,0,0,0-1.28,25.92c.07,26.62.68,53.24.58,79.85,0,11.29-2.62,22.66-1.81,33.83,2.63,36,.4,71.89,1.14,107.82a139.34,139.34,0,0,1-.44,16c-.51,5.35-3.86,8.5-9,9-8.08.7-15.92.17-23-4.59-2.09-1.4-5-3.12-7.12-2.64-17.8,4.07-35.62-1.94-53.43.45-5.8.78-8.25-2.36-8.59-8.36-.3-5.4-.32-10.53,5.25-14,3.58-2.24,2.65-5.54.27-8.48-2.93-3.62-.73-5.92,2.06-8.17,1.44-1.16,3.82-3.31,1.56-4.52-6.4-3.42-4.44-8.88-4.4-14,.09-12,.27-24,.29-36,0-5.68-1.15-10.67-8.26-11.4-2.65-.28-5.82-1-6.65-3.69-3.09-10-11.67-10.21-19.38-10.53-18-.73-35.94-.64-53.91-.72-6.16,0-9.88,3.33-11.12,9.36-.4,2-.27,4.08-1,5.88-1.47,3.59-2.33,7.82-6.12,9.83-4.28,2.26-6.11-5.24-10.7-2.88-2.22,3.92-.18,8.35,1.43,11.21,4.31,7.68,2.46,15.3,2.56,23.18.11,8.76-7.89,15.42-5.22,24.48,2.37,8-1.21,15.72-1.78,23.57-.74,10.13-4,13-13.84,13.16s-19.91-.94-29.87-1.38c-17.3-.76-34.61-1.35-51.91-2.18-7.38-.36-9.4-2.9-7.77-10.26,2.43-11,5.43-21.95,8-33,10.67-46,20-92.36,32.2-138,17.66-66.27,33-133.11,48.68-199.83,4-16.89,10.61-32.75,14.62-49.5s7.74-33.78,13-50.24c11.11-35,16.78-71.16,23.55-107.06,4.8-25.47,7.72-51.29,11.84-76.9a146.54,146.54,0,0,1,5.75-23.23c3.38-10.09,7.06-12.19,17.9-11.6a148.32,148.32,0,0,1,17.89,1.66,204.49,204.49,0,0,0,47.74,3.18c18-1,31.56,7.39,45.33,16.43C1471.28,575.07,1473,578.32,1476.8,578.18Z" transform="translate(1736.71 1586.71)"/><path class="cls-12" d="M-93.63-19.68c-.72-32,3.2-63.64,6.38-95.44,4.12-41.09,12.5-81.39,18.7-122.08,1.6-10.53,3.3-21,3.82-31.67a138.11,138.11,0,0,1,3.8-27.64C-54.57-321-51.71-346.15-47.27-371c2.22-12.44,4.23-24.86,5.35-37.5,1.59-17.76,5-35.18,11.52-52.12,11.68-30.43,21.31-61.64,37.86-90,10.93-18.73,25.67-33.19,43-46.36,22.08-16.78,46.87-24.37,73.15-29.42,9.29-1.78,18.53-2,27.57,1.39a36.6,36.6,0,0,0,13.6,2.52c28.07-.33,47.8,14.1,62.37,36.61,8.66,13.39,16.28,27.45,24.56,41.09,6.41,10.56,8.91,22,9.38,34.22,1.26,32.84-3.7,65-9.61,97.13-6.62,35.91-14.79,71.44-18.43,108-4.07,40.94-9.14,81.88-17.3,122.39-2.72,13.5-5.34,27.24-7.05,40.94-1.65,13.18-3.27,26.31-5.9,39.32q-8.3,41.07-16.6,82.14c-7.34,36.25-24.54,67.29-49.88,94a51,51,0,0,1-10.72,8.86C107.21,93,88.33,102.46,66.4,104.26c-28.64,2.35-57.2,3.51-85.45-2.92-12.29-2.8-24.39-6.49-36.51-10-5.28-1.53-9-5.19-12.29-9.66A201.39,201.39,0,0,1-87.46,49.25a59.24,59.24,0,0,1-6.21-27C-93.48,8.29-93.62-5.7-93.63-19.68Z" transform="translate(1736.71 1586.71)"/><path class="cls-10" d="M-333.69-447.85c-1.45,16.53.17,33.33-4.79,49.54-.76,2.46-.5,5.31-.36,8,1.24,23.42-2.94,46.39-5.6,69.5-3.82,33.05-6.84,66.2-11.13,99.18-2.83,21.75-7.26,43.3-11,64.93-.68,3.93-2.3,7.84-2.23,11.74.42,23.58-6.25,46.05-10.25,68.94-.91,5.23-2.48,10.5-2.43,15.73.19,18.88-4.86,36.75-9.32,54.8-2.16,8.73-5.83,17.26-3.82,26.77.64,3-.64,6.53-1.52,9.68a165.79,165.79,0,0,1-37.13,67.43c-15.81,17.66-35.53,24.87-57.32,29.49-4.53,1-9.29.55-13.67.56-21.91,0-43,8.49-65.05,5.9-18.3,5.35-37.06-.38-55.51,2.31s-37,4.8-55.49,7.17c-1.32.17-2.63.41-4,.55-17,1.85-22.42,2.45-18.75-17.83a280.2,280.2,0,0,0,4.84-45.62c.14-9.16,2.48-18.54,5.34-27.33,7.09-21.76,8.57-44.4,10.51-66.8,1.67-19.22,3-38.42,6.35-57.43a44.89,44.89,0,0,0,1-9.91c-1.22-25.35,3.69-50.11,7.37-74.95,2.43-16.46,1.56-33.27,5.94-49.52,7.14-26.52,7.08-54.05,10.82-81.05,2.47-17.79,6-35.53,7.08-53.41,1.68-29.22,9.31-57.7,9.49-87.12.08-13.22,3.05-26.41,4.65-39.62,2.39-19.79,5.44-39.53,6.79-59.38.69-10.06,3.07-19.68,4.31-29.55.57-4.5,2.9-7.22,7.58-7.71,4-.42,7.93-1.51,11.86-1.36,14.82.59,29.12-2.15,43.46-5.44a76.67,76.67,0,0,1,35.61.17,101.08,101.08,0,0,0,33.65,2.23c4.61-.42,9.65-1.28,13.87,0,23.72,7.48,48.55,7.79,72.75,12,5.9,1,11.69,2.65,17.53,4,12.75,3,22.54,11.14,32.41,18.94,6,4.74,8,12.24,10,19.23A174,174,0,0,1-333.69-447.85Z" transform="translate(1736.71 1586.71)"/><path class="cls-13" d="M434.72,1817.52c1.5,30.49-9,59.35-20.89,87.61-21.84,51.81-52.35,98.74-84.56,144.51-9.14,13-19,25.7-30.9,36.58-2.45,2.25-4.58,4.94-7.28,6.83-20,14-28.17,16.26-48.09.82-11.71-9.07-22.41-19.22-31.07-30.91-26.56-35.87-49.87-73.85-71.78-112.75-14.44-25.64-27.09-51.89-35.68-80.07C99,1852.24,95,1833.81,95,1815.31c0-47.29,23-80.94,65.38-101.08,21.13-10.06,43.73-15.26,67.13-17.89,14.59-1.64,29.07-3.58,43.73-2.87,34.05,1.63,67.69,6,99,20.35,24.83,11.36,45.08,28.25,56.7,53.78C432.64,1780.1,434.79,1794.94,434.72,1817.52Z" transform="translate(1736.71 1586.71)"/><path class="cls-14" d="M809.77,759.1c3.83-21.17,3.15-46,10.05-69.79,5.24-18.06,5-36.78,6.69-55.24.62-6.64,1.15-13.17,3.67-19.46,5.27-13.11,13.21-18.73,27.45-18.59,4,0,8.26,0,11.8,1.48,26.94,11.21,48,27.55,53.5,58.81,3.52,19.92,4.54,39.34-.81,59.07-2.58,9.55-3.23,19.61-5.35,29.31-1.56,7.1-4.13,14-6.2,21-2.8,9.45-9.07,15.38-17.45,20.59-17,10.53-34.62,16.4-54.74,14.25-5-.53-9-1.34-11.1-6.53-.69-1.73-2.16-4.41-3.41-4.49-16.12-1-13.56-13.1-14.1-23.34C809.71,764.81,809.77,763.48,809.77,759.1Z" transform="translate(1736.71 1586.71)"/><path class="cls-15" d="M1406.63,829.78c5.39-1.14,6-5.56,7.69-8.94,1-2,2.31-3.2,4.39-2.83,2.32.42,2.93,2.63,2.92,4.56-.1,17.94.69,36-.72,53.81-3.07,38.48-3.74,77-3.86,115.55,0,10,.36,19.93-1.92,29.78-2.4,10.36-5.28,13.28-16.05,13.93-9.94.59-19.9.77-29.85,1-7.33.18-14.75.73-18-8.33-1.3-3.55-5.41-3.13-8.44-4.27-7.08-2.64-8.7-4.93-7.14-11.87,4.2-18.8,8.84-37.51,13.38-56.23,4.23-17.43,8.69-34.81,12.81-52.26a201.91,201.91,0,0,1,10.8-34.1c8.46-19.51,16.15-39.35,24.15-59.06A37.29,37.29,0,0,1,1399,805a3.43,3.43,0,0,1,3-1.24c1.08.32,2.56,1.57,2.67,2.55C1405.46,814.09,1406,821.89,1406.63,829.78Z" transform="translate(1736.71 1586.71)"/><path class="cls-3" d="M-4-2.84c.36-37.11,2.47-67,6.87-96.64C8.33-136.31,12.61-173.36,19.34-210c4.46-24.28,6.93-48.72,10.22-73.1,2.58-19.09,6.06-38.06,9.44-57,7.12-40,13.7-80,22-119.76,3.51-16.77,9.78-33.21,16.66-49,9.88-22.65,26.52-28.87,52.92-20.6,11.78,3.7,19.66,13.42,29.52,20.09,2.3,1.56,2.29,4.68,1.28,7.35-2.72,7.14-1.74,14.35-.93,21.69,2.42,22.05-.44,43.92-3.92,65.56-3.09,19.15-4.46,38.44-5.26,57.65-1.75,42.09-9.15,83.35-16,124.72-5.72,34.76-11.79,69.46-17.73,104.18a108,108,0,0,1-2.33,11.75c-5.69,19.95-7,40.56-9.35,61-2.08,17.85-4.33,35.6-11.11,52.53C89.42,10.5,83,22.1,68.12,27.38c-8,2.84-14.28,9.51-23.06,11.48-8.32,1.88-15.8,1.54-22.52-4.22-2.52-2.17-4.86-4.9-7.8-6.17C-2.57,21-3.57,5.51-4-2.84Z" transform="translate(1736.71 1586.71)"/><path class="cls-3" d="M-433.46-416c-1.7,17.88-3.28,35.77-5.13,53.64-3.08,29.73-9.85,59.08-9.34,89.2a9.25,9.25,0,0,1-.39,3.92c-8.39,17.88-7.64,37.66-11.63,56.45s-6.16,38.09-9.06,57.16c-1.9,12.48-6.62,24.62-5.92,37.36.73,13.44-4.75,25.74-5.77,38.85-1,12.56-3.47,25-5.62,37.47s-5,24.78-7.05,37.25c-2.64,15.86-10,28.85-22.73,38.58-4.75,3.62-9.93,6.7-16.46,3.94-5.79-2.46-10.21,1.75-15,3.64-4.47,1.76-8.77,3.31-13.48,1.43-3.71-1.49-8-3-8-7.77,0-7.59-4.78-9.94-10.74-12.28-3.8-1.49-6.18-4.86-4.07-9.64,4.92-11.17,5.81-23.3,6.67-35.12,1.93-26.56,8.06-52.62,8.64-79.33.17-7.9,2.12-15.77,3.46-23.62,3.36-19.65,7.21-39.19,6.79-59.32A99.31,99.31,0,0,1-556.08-206c6.7-32.66,10.49-65.67,13.9-98.81,2.52-24.45,7.29-48.67,11-73,.61-3.94,1.36-7.88,1.75-11.85,2.52-25.78,7.65-51.28,8-77.3.14-9.72,2.61-11.69,12-11.63,6.66,0,13.32.22,20,.61a34.69,34.69,0,0,1,9.76,1.62c15.35,5.6,27.59,15.72,38,27.9A27.06,27.06,0,0,1-434.88-430c-.09,4.65.37,9.31.59,14Z" transform="translate(1736.71 1586.71)"/><ellipse class="cls-16" cx="2001.64" cy="3775.92" rx="271.22" ry="70.28"/></svg>